<?xml version="1.0" encoding="UTF-8"?>
<svg version="1.1" viewBox="0 0 548 497" xmlns="http://www.w3.org/2000/svg" xmlns:xlink="http://www.w3.org/1999/xlink">
<title>4FFED6D2-56DE-4D9E-83C4-C0411051B896</title>
<desc>Created with sketchtool.</desc>
<defs>
<rect id="d" width="548" height="497"/>
<path id="b" d="m274.97 366.9c124.53-54.301 223.66-187.52 195.51-283.14-48.119-163.39-133.71-38.53-199.49-23.554-76.269 17.367-178.13-31.422-233.32 21.95-15.757 15.238-27.71 38.805-34.176 74.62-29.109 161.24 146.94 264.43 271.48 210.13z"/>
<linearGradient id="e" x2="85.346%" y1="19.03%" y2="84.959%">
<stop stop-color="#935DFF" offset="0"/>
<stop stop-color="#4B545F" offset="1"/>
</linearGradient>
<linearGradient id="m" x1="84.483%" x2="39.366%" y1="6.3723%" y2="57.104%">
<stop stop-color="#F5F5F9" offset="0"/>
<stop stop-color="#EFF1F8" offset=".30912"/>
<stop stop-color="#C6CBF0" offset="1"/>
</linearGradient>
<linearGradient id="l" x1="10.677%" x2="50%" y1="70.469%" y2="100%">
<stop stop-color="#5F64AA" offset="0"/>
<stop stop-color="#313471" offset="1"/>
</linearGradient>
<polygon id="f" points="343 292.56 394.43 292.56 386.49 305.2 343 307.91"/>
<filter id="r" x="-46.7%" y="-156.3%" width="193.3%" height="412.6%">
<feGaussianBlur in="SourceGraphic" stdDeviation="7.99999952"/>
</filter>
<polygon id="i" points="340.36 346.35 391.79 346.35 383.85 359 340.36 361.71"/>
<filter id="q" x="-46.7%" y="-156.3%" width="193.3%" height="412.6%">
<feGaussianBlur in="SourceGraphic" stdDeviation="7.99999952"/>
</filter>
<path id="h" d="m431.36 324.35l64.352-30.354c-3.113 9.9539-6.0371 17.75-8.7723 23.387-2.7352 5.6376-6.7652 12.175-12.09 19.613l-43.49 2.7092v-15.356z"/>
<filter id="p" x="-52.1%" y="-64.9%" width="204.2%" height="229.8%">
<feGaussianBlur in="SourceGraphic" stdDeviation="7.99999952"/>
</filter>
<circle id="c" cx="365" cy="144" r="74"/>
<linearGradient id="n" x1="-5.3506%" x2="76.681%" y1="49.466%" y2="53.088%">
<stop stop-color="#F5F5F9" offset="0"/>
<stop stop-color="#888DB2" offset="1"/>
</linearGradient>
<path id="a" d="m347.74 189.78c-18.292 35.573-62.002 49.605-97.63 31.34-35.627-18.265-49.68-61.909-31.388-97.482 18.292-35.573 62.002-49.605 97.63-31.34 35.627 18.264 49.68 61.909 31.388 97.482m98.914 30.514c-5.8672-4.1227-12.353-7.1362-18.727-10.366-5.5537-2.8147-10.561-6.2208-16.314-8.9252-13.098-6.1579-26.269-12.852-38.979-19.368-0.8535-0.43757-1.7355-0.76525-2.6294-0.99569 1.7699 0.45575 3.0684-26.163 2.9188-28.55-0.59183-9.4296-2.7113-18.755-6.2449-27.519-3.623-8.9861-8.7289-17.368-15.072-24.699-3.167-3.6606-6.7508-6.6303-10.29-9.8387-3.8364-3.4776-6.8474-7.4845-11.813-9.5146-16.973-6.9386-33.353-12.235-51.994-10.679-17.9 1.4937-35.251 8.3991-49.092 19.863-12.574 10.416-19.729 22.848-26.016 37.592l-1.7458 4.0934c-6.8347 16.028-5.0628 37.317 0.30482 53.637 5.6863 17.288 16.747 32.619 31.427 43.412 7.9329 5.833 16.715 12.704 26.871 13.818 9.6739 1.0613 18.591 3.7053 28.51 3.3646 19.127-0.65734 37.848-7.6347 52.71-19.677 4.6911-3.8009 8.9859-8.0869 12.795-12.768 0.70821 0.59093 1.4893 1.1155 2.3428 1.553 2.6979 0 8.4887 4.1401 10.964 5.448 4.1859 2.2112 8.1395 4.9496 12.264 7.288 10.253 5.8129 21.151 10.016 31.51 15.326 4.7528 2.4369 9.5052 4.8733 14.258 7.3094 1.3436 0.68896 2.7481 1.317 4.0537 2.0756 4.9159 2.857 10.188 3.28 15.918 3.3527 1.8721 0.024112 3.8099-0.044665 5.4994-0.84944 1.5558-0.74153 2.762-2.0408 3.908-3.3274 2.684-3.0136 5.3565-6.3279 6.0271-10.306 0.72721-4.3132-1.0835-8.7446-3.8645-12.123-2.762-3.3559-5.9963-6.1611-9.5021-8.6256"/>
<filter id="o" x="-11%" y="-11.8%" width="122%" height="131.2%">
<feOffset dx="0" dy="7" in="SourceAlpha" result="shadowOffsetOuter1"/>
<feGaussianBlur in="shadowOffsetOuter1" result="shadowBlurOuter1" stdDeviation="8.5"/>
<feColorMatrix in="shadowBlurOuter1" values="0 0 0 0 0   0 0 0 0 0   0 0 0 0 0  0 0 0 0.179036458 0"/>
</filter>
<polygon id="g" points="212.21 218.37 310.74 218.37 310.74 290.77 212.21 290.77"/>
</defs>
<g fill="none" fill-rule="evenodd">
<g transform="translate(-738 -1300)">
<g transform="translate(738 1300)">
<mask id="k" fill="white">
<use xlink:href="#d"/>
</mask>
<use fill="#FFFFFF" fill-rule="nonzero" xlink:href="#d"/>
<g mask="url(#k)">
<g transform="translate(-11)">
<g transform="translate(292.22 266.25) scale(-1 1) rotate(22) translate(-238 -191)" fill-rule="evenodd">
<mask id="j" fill="white">
<use xlink:href="#b"/>
</mask>
<use fill="#F2F2FE" xlink:href="#b"/>
<path d="m14.291 297.5s73.302-114.05 195.73-59.937c122.43 54.12 194.51 7.7231 179.3-279.07 0 0 172.07 37.258 150.01 226.99-26.774 230.26-372.36 318.12-525.05 112.01" fill="#E4E5F8" mask="url(#j)"/>
</g>
<path transform="translate(303.04 144.1) scale(-1 1) translate(-303.04 -144.1)" d="m304.16 137.74l-1.1219-3.2184-1.1219 3.2184c-0.94372 2.7142-3.1923 5.0062-6.2329 6.3597 3.0406 1.3535 5.2891 3.6431 6.2329 6.3597l1.1219 3.2184 1.1219-3.2184c0.94612-2.7166 3.1923-5.0062 6.2329-6.3597-3.0406-1.3535-5.2867-3.6455-6.2329-6.3597" fill="#fff" fill-rule="evenodd"/>
<path transform="translate(445.69 419.65) scale(-1 1) translate(-445.69 -419.65)" d="m446.3 416.24l-0.60956-1.7281-0.60956 1.7281c-0.51277 1.4573-1.7345 2.6879-3.3866 3.4147 1.6521 0.72672 2.8738 1.956 3.3866 3.4147l0.60956 1.7281 0.60956-1.7281c0.51407-1.4586 1.7345-2.6879 3.3866-3.4147-1.6521-0.72672-2.8725-1.9573-3.3866-3.4147" fill="#C7CCEA" fill-rule="evenodd"/>
<path transform="translate(111.95 111.83) scale(-1 1) rotate(10) translate(-111.95 -111.83)" d="m112.64 108.04l-0.69664-1.9201-0.69664 1.9201c-0.58602 1.6192-1.9823 2.9866-3.8704 3.7941 1.8881 0.80746 3.2844 2.1734 3.8704 3.7941l0.69664 1.9201 0.69664-1.9201c0.58751-1.6207 1.9823-2.9866 3.8704-3.7941-1.8881-0.80746-3.2829-2.1748-3.8704-3.7941" fill="#C7CCEA" fill-rule="evenodd"/>
<path transform="translate(26.094 296.8) scale(-1 1) translate(-26.094 -296.8)" d="m26.79 293.01l-0.69664-1.9201-0.69664 1.9201c-0.58602 1.6192-1.9823 2.9866-3.8704 3.7941 1.8881 0.80746 3.2844 2.1734 3.8704 3.7941l0.69664 1.9201 0.69664-1.9201c0.58751-1.6207 1.9823-2.9866 3.8704-3.7941-1.8881-0.80746-3.2829-2.1748-3.8704-3.7941" fill="#C7CCEA" fill-rule="evenodd"/>
<path transform="translate(101.13 315.11) scale(-1 1) rotate(10) translate(-101.13 -315.11)" d="m101.87 310.92l-0.74149-2.1231-0.73908 2.1231c-0.62353 1.7902-2.1041 3.3029-4.1119 4.1956 2.0078 0.89267 3.4884 2.4054 4.1119 4.198l0.73908 2.1231 0.74149-2.1231c0.62353-1.7926 2.1041-3.3053 4.1119-4.198-2.0078-0.89267-3.4884-2.4054-4.1119-4.1956" fill="#fff" fill-rule="evenodd"/>
<path transform="translate(448.26 188.84) scale(-1 1) translate(-448.26 -188.84)" d="m449 184.64l-0.74149-2.1231-0.73908 2.1231c-0.62353 1.7902-2.1065 3.3029-4.1119 4.1956 2.0054 0.89267 3.4884 2.4054 4.1119 4.1956l0.73908 2.1255 0.74149-2.1255c0.62353-1.7902 2.1065-3.3029 4.1119-4.1956-2.0054-0.89267-3.4884-2.4054-4.1119-4.1956" fill="#fff" fill-rule="evenodd"/>
<path transform="translate(239.54 214.03) scale(-1 1) rotate(10) translate(-239.54 -214.03)" d="m261.14 241.28l-0.40204 0.99642c-1.0785 2.6684-3.6617 4.28-6.3677 4.2679l-51.606-0.37154c-2.0897-0.014476-3.7676-1.7226-3.7532-3.8144 0.014445-1.8963 1.4156-3.4549 3.2332-3.7203l45.426-5.9235v0.10823l11.072-43.195c1.5119-5.8 7.4318-9.2742 13.219-7.7614 5.7875 1.5151 9.2566 7.4478 7.7447 13.25-0.11556 0.43669-0.27926 0.92162-0.44297 1.3318l-18.123 44.831z" fill="#E7AE88" fill-rule="evenodd"/>
<path transform="translate(273.13 236.62) scale(-1 1) translate(-273.13 -236.62)" d="m285.78 232.58l-17.622-0.36431c-4.3575 0-7.8916 3.9398-7.8916 8.8037h25.738l-0.22389-8.4394z" fill="#E7AE88" fill-rule="evenodd"/>
<path transform="translate(208.18 193.85) scale(-1 1) rotate(10) translate(-208.18 -193.85)" d="m191.65 206.72l28.22 6.9049 4.6295-25.202c1.2422-6.7747-3.4619-13.214-10.383-14.215-5.8236-0.84201-11.445 2.4681-13.443 7.9158l-9.0231 24.597z" fill="#826EF6" fill-rule="evenodd"/>
<path transform="translate(185.89 222.82) scale(-1 1) rotate(10) translate(-185.89 -222.82)" d="m184.05 170.39l-19.261 3.9307c-7.4462 3.3174-14.503 8.9574-14.407 17.122 0.195 16.449 8.7987 62.374 17.182 83.801l53.832-7.5371c0-33.166-3.3772-65.187-3.3772-65.187-2.2577-12.701-8.9313-26.895-19.743-28.198l-14.226-3.9307z" fill="#5805FC" fill-rule="evenodd"/>
<path transform="translate(187.48 162.54) scale(-1 1) rotate(10) translate(-187.48 -162.54)" d="m179.36 178.45l-1.6579-32.52 16.077-1.8746 3.4162 26.737c0.57297 4.4803-2.6193 8.5648-7.0923 9.086-4.4032 0.51148-10.18 2.98-10.743-1.4279z" fill="#ECB38C" fill-rule="evenodd"/>
<path transform="translate(198.55 140.64) scale(-1 1) rotate(10) translate(-198.55 -140.64)" d="m202.84 163.24l-0.64279 0.084442c-10.716 1.3993-20.533-6.1715-21.932-16.91l-3.0526-23.458 39.448-5.1534 3.0526 23.458c1.3963 10.739-6.1582 20.577-16.874 21.979" fill="#F1BD9A" fill-rule="evenodd"/>
<path transform="translate(175.78 143.19) scale(-1 1) rotate(10) translate(-175.78 -143.19)" d="m169.3 143.98c0.43334 3.5852 3.6834 6.1377 7.2608 5.7059 3.5775-0.43427 6.1269-3.6913 5.6936-7.2765s-3.6834-6.1377-7.2608-5.7059c-3.5775 0.43427-6.1269 3.6913-5.6936 7.2765" fill="#F1BD9A" fill-rule="evenodd"/>
<path transform="translate(206.07 151.54) scale(-1 1) rotate(10) translate(-206.07 -151.54)" d="m200.53 151.02l11.072-2.362s0.53204 4.8204-5.5299 5.6914c-4.786 0.6876-5.5419-3.3294-5.5419-3.3294" fill="#fff" fill-rule="evenodd"/>
<path transform="translate(204.78 219.52) scale(-1 1) rotate(10) translate(-204.78 -219.52)" d="m224.42 247.19l-0.39964 1.0085c-1.0761 2.7094-3.6906 4.3548-6.4351 4.3427l-48.132-2.0586c-2.1065-0.014476-3.2693-2.7112-3.2573-4.8222 0.012038-1.9132 1.4252-3.4838 3.2573-3.7565l40.665-3.0745v0.020688l11.709-44.123c1.4974-5.8627 7.4534-9.3972 13.304-7.899 5.8501 1.5031 9.3794 7.4719 7.882 13.332-0.11315 0.44151-0.27445 0.92645-0.43575 1.339l-18.157 45.69z" fill="#F1BD9A" fill-rule="evenodd"/>
<path transform="translate(175.44 198.84) scale(-1 1) rotate(10) translate(-175.44 -198.84)" d="m158.91 211.95l28.218 7.0352 4.6295-25.675c1.2446-6.8977-3.4595-13.458-10.381-14.478-5.8236-0.8589-11.445 2.514-13.443 8.063l-9.0231 25.055z" fill="#826EF6" fill-rule="evenodd"/>
<ellipse transform="translate(52.291 247.71) scale(-1 1) translate(-52.291 -247.71)" cx="52.291" cy="247.71" rx="5.7088" ry="5.7141" fill="url(#e)" fill-rule="nonzero"/>
<circle transform="translate(373 406) scale(-1 1) translate(-373 -406)" cx="373" cy="406" r="13" fill="url(#e)" fill-rule="nonzero"/>
<path transform="translate(191.42 134.42) scale(-1 1) rotate(10) translate(-191.42 -134.42)" d="m190.73 101.27c-7.7014 0-14.787 2.7392-20.466 7.3714-5.6924 4.6323-9.9663 11.143-12.028 18.658 0 0 16.004-11.516 44.052 0 0 0 4.8204 7.1133 7.0036 19.074 1.0983 5.966 1.5416 13.137 0.40315 21.196 6.6688-4.833 11.638-12.147 13.767-20.709 0.738-2.9687 1.1251-6.1094 1.1251-9.3219 0-20.035-15.147-36.269-33.858-36.269" fill="url(#m)" fill-rule="evenodd"/>
<path transform="translate(163.49 142.23) scale(-1 1) rotate(7) translate(-163.49 -142.23)" d="m163.9 130.11c3.6565 0.14915 6.4424 5.6863 6.2241 12.379-0.052236 1.4442-0.23439 2.8238-0.53039 4.1016-1.0795 4.6322-3.6391 7.8763-6.5027 7.7644-2.8649-0.10326-5.1901-3.5136-5.9642-8.1932-0.21698-1.3051-0.31341-2.7134-0.26118-4.1762 0.22635-6.7031 3.3699-12.017 7.0344-11.876" fill="#B6B8E2" fill-rule="evenodd"/>
<path transform="translate(201.45 146.43) scale(-1 1) rotate(10) translate(-201.45 -146.43)" d="m227.54 166.02c-1.6983 1.2305-3.4998 2.3018-5.3977 3.1967-4.1521 1.9404-8.7408 3.0203-13.572 3.0203-1.0005 0-1.993-0.045892-2.9774-0.13911-1.8376-0.16779-3.631-0.49334-5.3709-0.96948-4.7802-1.295-9.1506-3.6814-12.877-6.8881-7.7041-6.6558-12.64-16.844-12.64-28.264 0-3.561 0.47816-6.9914 1.3662-10.234h0.009375s16-11.522 44.051 0c0 0 4.8137 7.1205 6.9982 19.081 1.1063 5.9646 1.5416 13.124 0.40985 21.196" fill="url(#l)" fill-rule="evenodd"/>
<polygon transform="translate(185.55 274.91) scale(-1 1) rotate(1) translate(-185.55 -274.91)" points="157.83 267.94 156.14 283.94 214.95 287.86 213.52 261.95" fill="#393F5C" fill-rule="evenodd"/>
<polygon transform="translate(208.16 349.99) scale(-1 1) rotate(1) translate(-208.16 -349.99)" points="229.97 279.28 208.04 349.99 205.7 432.42 193.12 432.42 186.36 343.56 202.07 267.56" fill="#393F5C" fill-rule="evenodd"/>
<polygon transform="translate(166.02 360.22) scale(-1 1) rotate(1) translate(-166.02 -360.22)" points="174.1 284.3 177.72 354.92 191.01 434.25 177.72 436.14 149.8 355.41 141.03 284.3" fill="#393F5C" fill-rule="evenodd"/>
<path transform="translate(229.2 438.22) scale(-1 1) rotate(1) translate(-229.2 -438.22)" d="m233.94 429.5l11.981-0.079165 0.31307 17.362-34.069 0.22799c0.2442-2.7264 2.0569-4.8765 4.6867-5.5289l16.871-4.1704 0.21602-7.812z" fill="#202E3B" fill-rule="evenodd"/>
<path transform="translate(229.39 448.65) scale(-1 1) rotate(1) translate(-229.39 -448.65)" d="m246.42 447.01l-34.053 0.2584c0.010356 1.6766 1.3779 3.0274 3.0546 3.0171 0.001322-8e-6 0.002644-1.7e-5 0.003967-2.7e-5l27.967-0.20929c1.6819-0.012587 3.0363-1.3842 3.0277-3.0662z" fill="#C7CCEA" fill-rule="evenodd"/>
<path transform="translate(157.86 443.86) scale(-1 1) rotate(1) translate(-157.86 -443.86)" d="m160.44 434.48l11.981-1.6097 2.4726 17.406-34.064 4.5823c-0.094737-2.7705 1.4526-5.1627 4.0042-6.1503l16.361-6.3492-0.75474-7.8787z" fill="#202E3B" fill-rule="evenodd"/>
<path transform="translate(158.19 453.61) scale(-1 1) rotate(1) translate(-158.19 -453.61)" d="m175.04 450.46l-33.722 4.1573c0.19269 1.3544 1.4344 2.3052 2.7922 2.1379l28.828-3.5515c1.3271-0.1635 2.2705-1.3719 2.107-2.699-0.001832-0.014876-0.003803-0.029735-0.005912-0.044575z" fill="#C7CCEA" fill-rule="evenodd"/>
<path transform="translate(145.64 223.11) scale(-1 1) rotate(10) translate(-145.64 -223.11)" d="m121.67 182.1c13.039-5.8773 24.467-1.9092 34.284 11.904 14.726 20.72 19.611 62.39 4.2694 68.062-10.228 3.7809-16.583 5.2732-19.065 4.4768-0.81498-32.021-2.3338-52.631-4.5566-61.831s-7.2001-16.737-14.932-22.611z" fill="#A7A9CE" fill-rule="nonzero"/>
<ellipse transform="translate(140.83 247.6) scale(-1 1) rotate(10) translate(-140.83 -247.6)" cx="140.83" cy="247.6" rx="4.3959" ry="6.0467" fill="#E7E9F7" fill-rule="nonzero"/>
<ellipse transform="translate(138.4 208.32) scale(-1 1) rotate(-7) translate(-138.4 -208.32)" cx="138.4" cy="208.32" rx="4.3959" ry="6.0467" fill="#E7E9F7" fill-rule="nonzero"/>
<ellipse transform="translate(138.4 208.32) scale(-1 1) rotate(-7) translate(-138.4 -208.32)" cx="138.4" cy="208.32" rx="2.198" ry="3.8479" fill="#826EF6" fill-rule="nonzero"/>
<ellipse transform="translate(140.83 247.6) scale(-1 1) rotate(10) translate(-140.83 -247.6)" cx="140.83" cy="247.6" rx="2.198" ry="3.8479" fill="#826EF6" fill-rule="nonzero"/>
<path transform="translate(143.6 185.09) scale(-1 1) rotate(10) translate(-143.6 -185.09)" d="m131.84 179.72c1.1286 4.2393 4.7035 7.4895 10.725 9.7506 6.0213 2.2611 10.285 2.6875 12.792 1.279-3.0277-5.8772-6.1149-9.5537-9.2617-11.03s-7.8985-1.4759-14.255 0z" fill="#464769" fill-rule="nonzero"/>
<path transform="translate(142.06 182.57) scale(-1 1) rotate(10) translate(-142.06 -182.57)" d="m134.31 179.27c2.0592 2.3119 3.6766 3.7836 4.8524 4.4152 7.0192 3.7703 11.672 3.6357 10.445 1.6532-1.7619-2.8472-1.7619-3.9434-9.059-6.6793-1.1867-0.44491-3.2662-0.2413-6.2387 0.61085z" fill="#826EF6" fill-rule="nonzero"/>
<path transform="translate(151.47 169.1) scale(-1 1) rotate(10) translate(-151.47 -169.1)" d="m165.16 178.53c2.5687-5.4128 2.5687-10.386 0-14.92s-7.7497-5.1527-15.543-1.8556c-3.0309 1.8067-5.937 2.2584-8.7184 1.355s-4.4668-1.5781-5.0566-2.0244" fill="none" fill-rule="nonzero" stroke="#B6B8E2" stroke-dasharray="2.200000047683716" stroke-width="7.7"/>
<polygon points="367.44 263.39 411.36 277.81 411.36 235.3" fill="#131321" fill-rule="evenodd"/>
<polygon points="367.44 263.39 350.74 267.79 396.61 240.14 411.36 235.3" fill="#464769" fill-rule="evenodd"/>
<polygon points="477.78 254.06 411.36 235.3 411.36 277.81 431.74 284.01" fill="#2A2A46" fill-rule="evenodd"/>
<polygon points="477.78 254.06 411.36 235.3 428.06 230.63 495.71 248.25" fill="#464769" fill-rule="evenodd"/>
<polygon points="309 275.26 342.64 286.02 359.95 275.75 326.31 264.98" fill="#F9647C" fill-rule="evenodd"/>
<polygon points="316.57 275.26 326.39 275.26 326.39 272.3 316.57 272.3" fill="#E73F46" fill-rule="evenodd"/>
<mask fill="white">
<use xlink:href="#f"/>
</mask>
<polygon points="356.42 292.56 394.43 295.21 389.05 305.26 343 307.91" fill="#121212" fill-rule="evenodd" filter="url(#r)"/>
<path d="m326.39 275.26c0 1.2219-2.1995 2.2129-4.9118 2.2129-2.7132 0-4.9118-0.99094-4.9118-2.2129 0-1.2219 2.1986-2.212 4.9118-2.212 2.7123 0 4.9118 0.9901 4.9118 2.212" fill="#E73F46" fill-rule="evenodd"/>
<path d="m326.39 272.3c0 1.2219-2.1995 2.212-4.9118 2.212-2.7132 0-4.9118-0.9901-4.9118-2.212 0-1.2219 2.1986-2.2129 4.9118-2.2129 2.7123 0 4.9118 0.99094 4.9118 2.2129" fill="#F9647C" fill-rule="evenodd"/>
<polygon points="325.41 269.72 335.23 269.72 335.23 266.76 325.41 266.76" fill="#E73F46" fill-rule="evenodd"/>
<path d="m335.23 269.72c0 1.2211-2.1995 2.212-4.9118 2.212-2.7131 0-4.9118-0.99094-4.9118-2.212 0-1.2219 2.1986-2.2129 4.9118-2.2129 2.7123 0 4.9118 0.99094 4.9118 2.2129" fill="#E73F46" fill-rule="evenodd"/>
<path d="m335.23 266.76c0 1.2219-2.1995 2.2129-4.9118 2.2129-2.7131 0-4.9118-0.99094-4.9118-2.2129 0-1.2211 2.1986-2.212 4.9118-2.212 2.7123 0 4.9118 0.99094 4.9118 2.212" fill="#F9647C" fill-rule="evenodd"/>
<polygon points="334.52 281.16 344.35 281.16 344.35 278.19 334.52 278.19" fill="#E73F46" fill-rule="evenodd"/>
<path d="m344.35 281.16c0 1.2219-2.1995 2.2129-4.9118 2.2129-2.7131 0-4.9118-0.99094-4.9118-2.2129 0-1.2211 2.1986-2.212 4.9118-2.212 2.7123 0 4.9118 0.99094 4.9118 2.212" fill="#E73F46" fill-rule="evenodd"/>
<path d="m344.35 278.19c0 1.2219-2.1995 2.2129-4.9118 2.2129-2.7131 0-4.9118-0.99094-4.9118-2.2129 0-1.2219 2.1986-2.212 4.9118-2.212 2.7123 0 4.9118 0.9901 4.9118 2.212" fill="#F9647C" fill-rule="evenodd"/>
<polygon points="343.04 276 352.86 276 352.86 273.03 343.04 273.03" fill="#E73F46" fill-rule="evenodd"/>
<path d="m352.86 276c0 1.2219-2.1995 2.2129-4.9118 2.2129-2.7131 0-4.9118-0.99094-4.9118-2.2129 0-1.2211 2.1986-2.212 4.9118-2.212 2.7123 0 4.9118 0.99094 4.9118 2.212" fill="#E73F46" fill-rule="evenodd"/>
<path d="m352.86 273.03c0 1.2219-2.1995 2.2129-4.9118 2.2129-2.7131 0-4.9118-0.99094-4.9118-2.2129 0-1.2219 2.1986-2.212 4.9118-2.212 2.7123 0 4.9118 0.9901 4.9118 2.212" fill="#F9647C" fill-rule="evenodd"/>
<polygon points="390.78 319.04 424.42 308.28 407.12 298 373.47 308.77" fill="#32CDF6" fill-rule="evenodd"/>
<polygon points="407.03 308.29 416.85 308.29 416.85 305.32 407.03 305.32" fill="#0087BA" fill-rule="evenodd"/>
<path d="m407.03 308.29c0 1.2211 2.1995 2.212 4.9118 2.212 2.7131 0 4.9118-0.99094 4.9118-2.212 0-1.2219-2.1986-2.2129-4.9118-2.2129-2.7123 0-4.9118 0.99094-4.9118 2.2129" fill="#0087BA" fill-rule="evenodd"/>
<path d="m407.03 305.32c0 1.2219 2.1995 2.2129 4.9118 2.2129 2.7131 0 4.9118-0.99094 4.9118-2.2129 0-1.2211-2.1986-2.212-4.9118-2.212-2.7123 0-4.9118 0.99094-4.9118 2.212" fill="#32CDF6" fill-rule="evenodd"/>
<polygon points="398.19 302.74 408.02 302.74 408.02 299.78 398.19 299.78" fill="#0087BA" fill-rule="evenodd"/>
<path d="m398.19 302.74c0 1.2219 2.1995 2.2129 4.9118 2.2129 2.7132 0 4.9118-0.99094 4.9118-2.2129 0-1.2211-2.1986-2.212-4.9118-2.212-2.7123 0-4.9118 0.99094-4.9118 2.212" fill="#0087BA" fill-rule="evenodd"/>
<path d="m398.19 299.78c0 1.2219 2.1995 2.2129 4.9118 2.2129 2.7132 0 4.9118-0.99094 4.9118-2.2129 0-1.2219-2.1986-2.212-4.9118-2.212-2.7123 0-4.9118 0.9901-4.9118 2.212" fill="#32CDF6" fill-rule="evenodd"/>
<polygon points="389.08 314.18 398.9 314.18 398.9 311.21 389.08 311.21" fill="#0087BA" fill-rule="evenodd"/>
<path d="m389.08 314.18c0 1.2219 2.1995 2.2129 4.9118 2.2129 2.7132 0 4.9118-0.99094 4.9118-2.2129 0-1.2219-2.1986-2.212-4.9118-2.212-2.7123 0-4.9118 0.9901-4.9118 2.212" fill="#0087BA" fill-rule="evenodd"/>
<path d="m389.08 311.21c0 1.2211 2.1995 2.212 4.9118 2.212 2.7132 0 4.9118-0.99094 4.9118-2.212 0-1.2219-2.1986-2.2129-4.9118-2.2129-2.7123 0-4.9118 0.99094-4.9118 2.2129" fill="#32CDF6" fill-rule="evenodd"/>
<polygon points="380.56 309.02 390.39 309.02 390.39 306.05 380.56 306.05" fill="#0087BA" fill-rule="evenodd"/>
<path d="m380.56 309.02c0 1.2219 2.1995 2.212 4.9118 2.212 2.7132 0 4.9118-0.9901 4.9118-2.212s-2.1986-2.2129-4.9118-2.2129c-2.7123 0-4.9118 0.99094-4.9118 2.2129" fill="#0087BA" fill-rule="evenodd"/>
<path d="m380.56 306.05c0 1.2219 2.1995 2.212 4.9118 2.212 2.7132 0 4.9118-0.9901 4.9118-2.212 0-1.2219-2.1986-2.2129-4.9118-2.2129-2.7123 0-4.9118 0.99094-4.9118 2.2129" fill="#32CDF6" fill-rule="evenodd"/>
<polygon points="409.47 283.22 419.3 283.22 419.3 280.26 409.47 280.26" fill="#E7D8DB" fill-rule="evenodd"/>
<path d="m409.47 283.22c0 1.2219 2.1995 2.212 4.9118 2.212 2.7132 0 4.9118-0.9901 4.9118-2.212 0-1.2219-2.1986-2.2129-4.9118-2.2129-2.7123 0-4.9118 0.99094-4.9118 2.2129" fill="#E7D8DB" fill-rule="evenodd"/>
<path d="m409.47 280.26c0 1.2211 2.1995 2.212 4.9118 2.212 2.7132 0 4.9118-0.99094 4.9118-2.212 0-1.2219-2.1986-2.2129-4.9118-2.2129-2.7123 0-4.9118 0.99094-4.9118 2.2129" fill="#fff" fill-rule="evenodd"/>
<polygon points="400.64 277.68 410.46 277.68 410.46 274.71 400.64 274.71" fill="#E7D8DB" fill-rule="evenodd"/>
<path d="m400.64 277.68c0 1.2211 2.1995 2.212 4.9118 2.212 2.7131 0 4.9118-0.99094 4.9118-2.212 0-1.2219-2.1986-2.2129-4.9118-2.2129-2.7123 0-4.9118 0.99094-4.9118 2.2129" fill="#E7D8DB" fill-rule="evenodd"/>
<path d="m400.64 274.71c0 1.2219 2.1995 2.2129 4.9118 2.2129 2.7131 0 4.9118-0.99094 4.9118-2.2129 0-1.2211-2.1986-2.212-4.9118-2.212-2.7123 0-4.9118 0.99094-4.9118 2.212" fill="#fff" fill-rule="evenodd"/>
<polygon points="393.91 278.1 411.22 288.39 411.22 266.87 393.91 256.6" fill="#25E7B9" fill-rule="evenodd"/>
<path d="m411.22 288.39c9.132-0.91717 15.962-2.1001 20.49-3.5487 4.5281-1.4486 8.9115-3.853 13.15-7.2133v-21.524l-33.64 10.765v21.521z" fill="#00C697" fill-rule="evenodd"/>
<polygon points="411.22 266.87 444.86 256.11 427.55 245.83 393.91 256.6" fill="#91DE5F" fill-rule="evenodd"/>
<polygon points="427.47 256.11 437.29 256.11 437.29 253.15 427.47 253.15" fill="#368800" fill-rule="evenodd"/>
<path d="m427.47 256.11c0 1.2219 2.1995 2.2129 4.9118 2.2129 2.7131 0 4.9118-0.99094 4.9118-2.2129 0-1.2219-2.1986-2.212-4.9118-2.212-2.7123 0-4.9118 0.9901-4.9118 2.212" fill="#368800" fill-rule="evenodd"/>
<path d="m427.47 253.15c0 1.2219 2.1995 2.212 4.9118 2.212 2.7131 0 4.9118-0.99009 4.9118-2.212 0-1.2219-2.1986-2.2129-4.9118-2.2129-2.7123 0-4.9118 0.99094-4.9118 2.2129" fill="#91DE5F" fill-rule="evenodd"/>
<polygon points="418.63 250.57 428.46 250.57 428.46 247.61 418.63 247.61" fill="#368800" fill-rule="evenodd"/>
<path d="m418.63 250.57c0 1.2219 2.1995 2.212 4.9118 2.212 2.7131 0 4.9118-0.99009 4.9118-2.212 0-1.2219-2.1986-2.2129-4.9118-2.2129-2.7123 0-4.9118 0.99094-4.9118 2.2129" fill="#368800" fill-rule="evenodd"/>
<path d="m418.63 247.61c0 1.2211 2.1995 2.212 4.9118 2.212 2.7131 0 4.9118-0.99094 4.9118-2.212 0-1.2219-2.1986-2.2129-4.9118-2.2129-2.7123 0-4.9118 0.99094-4.9118 2.2129" fill="#91DE5F" fill-rule="evenodd"/>
<polygon points="409.52 262.01 419.34 262.01 419.34 259.04 409.52 259.04" fill="#368800" fill-rule="evenodd"/>
<path d="m409.52 262.01c0 1.2211 2.1995 2.212 4.9118 2.212 2.7131 0 4.9118-0.99094 4.9118-2.212 0-1.2219-2.1986-2.2129-4.9118-2.2129-2.7123 0-4.9118 0.99094-4.9118 2.2129" fill="#368800" fill-rule="evenodd"/>
<path d="m409.52 259.04c0 1.2219 2.1995 2.2129 4.9118 2.2129 2.7131 0 4.9118-0.99094 4.9118-2.2129 0-1.2219-2.1986-2.212-4.9118-2.212-2.7123 0-4.9118 0.9901-4.9118 2.212" fill="#91DE5F" fill-rule="evenodd"/>
<polygon points="401 256.84 410.83 256.84 410.83 253.88 401 253.88" fill="#368800" fill-rule="evenodd"/>
<path d="m401 256.84c0 1.2211 2.1995 2.212 4.9118 2.212 2.7132 0 4.9118-0.99094 4.9118-2.212 0-1.2219-2.1986-2.2129-4.9118-2.2129-2.7123 0-4.9118 0.99094-4.9118 2.2129" fill="#368800" fill-rule="evenodd"/>
<path d="m401 253.88c0 1.2219 2.1995 2.2129 4.9118 2.2129 2.7132 0 4.9118-0.99094 4.9118-2.2129 0-1.2211-2.1986-2.212-4.9118-2.212-2.7123 0-4.9118 0.99094-4.9118 2.212" fill="#91DE5F" fill-rule="evenodd"/>
<polygon points="393.82 256.6 411.13 266.89 411.13 245.37 393.82 235.1" fill="#FBC337" fill-rule="evenodd"/>
<polygon points="411.13 266.89 444.77 256.13 444.77 234.61 411.13 245.37" fill="#FFA94D" fill-rule="evenodd"/>
<polygon points="411.13 245.37 444.77 234.61 427.46 224.33 393.82 235.1" fill="#FFD56D" fill-rule="evenodd"/>
<polygon points="427.38 234.61 437.2 234.61 437.2 231.65 427.38 231.65" fill="#E19500" fill-rule="evenodd"/>
<path d="m427.38 234.61c0 1.2219 2.1995 2.2129 4.9118 2.2129 2.7131 0 4.9118-0.99094 4.9118-2.2129 0-1.2211-2.1986-2.212-4.9118-2.212-2.7123 0-4.9118 0.99094-4.9118 2.212" fill="#E19500" fill-rule="evenodd"/>
<path d="m427.38 231.65c0 1.2219 2.1995 2.2129 4.9118 2.2129 2.7131 0 4.9118-0.99094 4.9118-2.2129 0-1.2219-2.1986-2.212-4.9118-2.212-2.7123 0-4.9118 0.99009-4.9118 2.212" fill="#FFD56D" fill-rule="evenodd"/>
<polygon points="418.54 229.07 428.36 229.07 428.36 226.1 418.54 226.1" fill="#E19500" fill-rule="evenodd"/>
<path d="m418.54 229.07c0 1.2219 2.1995 2.2129 4.9118 2.2129 2.7131 0 4.9118-0.99094 4.9118-2.2129 0-1.2219-2.1986-2.212-4.9118-2.212-2.7123 0-4.9118 0.99009-4.9118 2.212" fill="#E19500" fill-rule="evenodd"/>
<path d="m418.54 226.11c0 1.2219 2.1995 2.212 4.9118 2.212 2.7131 0 4.9118-0.9901 4.9118-2.212 0-1.2219-2.1986-2.2129-4.9118-2.2129-2.7123 0-4.9118 0.99094-4.9118 2.2129" fill="#FFD56D" fill-rule="evenodd"/>
<polygon points="409.42 240.51 419.25 240.51 419.25 237.54 409.42 237.54" fill="#E19500" fill-rule="evenodd"/>
<path d="m409.42 240.51c0 1.2219 2.1995 2.212 4.9118 2.212 2.7131 0 4.9118-0.9901 4.9118-2.212 0-1.2219-2.1986-2.2129-4.9118-2.2129-2.7123 0-4.9118 0.99094-4.9118 2.2129" fill="#E19500" fill-rule="evenodd"/>
<path d="m409.42 237.54c0 1.2211 2.1995 2.212 4.9118 2.212 2.7131 0 4.9118-0.99094 4.9118-2.212 0-1.2219-2.1986-2.2129-4.9118-2.2129-2.7123 0-4.9118 0.99094-4.9118 2.2129" fill="#FFD56D" fill-rule="evenodd"/>
<polygon points="400.91 235.34 410.73 235.34 410.73 232.38 400.91 232.38" fill="#E19500" fill-rule="evenodd"/>
<path d="m400.91 235.34c0 1.2219 2.1995 2.212 4.9118 2.212 2.7131 0 4.9118-0.9901 4.9118-2.212 0-1.2219-2.1986-2.2129-4.9118-2.2129-2.7123 0-4.9118 0.99094-4.9118 2.2129" fill="#E19500" fill-rule="evenodd"/>
<path d="m400.91 232.38c0 1.2211 2.1995 2.212 4.9118 2.212 2.7131 0 4.9118-0.99094 4.9118-2.212 0-1.2219-2.1986-2.2129-4.9118-2.2129-2.7123 0-4.9118 0.99094-4.9118 2.2129" fill="#FFD56D" fill-rule="evenodd"/>
<polygon points="393.77 235.15 411.08 245.45 411.08 223.93 393.77 213.65" fill="#F5535A" fill-rule="evenodd"/>
<polygon points="411.08 245.45 444.72 234.69 444.72 213.16 411.08 223.93" fill="#E73F46" fill-rule="evenodd"/>
<polygon points="411.08 223.93 444.72 213.16 427.41 202.89 393.77 213.65" fill="#F9647C" fill-rule="evenodd"/>
<polygon points="427.33 213.17 437.15 213.17 437.15 210.21 427.33 210.21" fill="#B6142E" fill-rule="evenodd"/>
<path d="m427.33 213.17c0 1.2219 2.1995 2.212 4.9118 2.212 2.7132 0 4.9118-0.9901 4.9118-2.212 0-1.2219-2.1986-2.2129-4.9118-2.2129-2.7123 0-4.9118 0.99094-4.9118 2.2129" fill="#B6142E" fill-rule="evenodd"/>
<path d="m427.33 210.21c0 1.2211 2.1995 2.212 4.9118 2.212 2.7132 0 4.9118-0.99094 4.9118-2.212 0-1.2219-2.1986-2.2129-4.9118-2.2129-2.7123 0-4.9118 0.99094-4.9118 2.2129" fill="#FF4B67" fill-rule="evenodd"/>
<polygon points="418.49 207.63 428.32 207.63 428.32 204.66 418.49 204.66" fill="#B6142E" fill-rule="evenodd"/>
<path d="m418.49 207.63c0 1.2211 2.1995 2.212 4.9118 2.212 2.7131 0 4.9118-0.99094 4.9118-2.212 0-1.2219-2.1986-2.2129-4.9118-2.2129-2.7123 0-4.9118 0.99094-4.9118 2.2129" fill="#B6142E" fill-rule="evenodd"/>
<path d="m418.49 204.66c0 1.2219 2.1995 2.2129 4.9118 2.2129 2.7131 0 4.9118-0.99094 4.9118-2.2129 0-1.2219-2.1986-2.212-4.9118-2.212-2.7123 0-4.9118 0.9901-4.9118 2.212" fill="#FF4B67" fill-rule="evenodd"/>
<polygon points="409.37 219.06 419.2 219.06 419.2 216.1 409.37 216.1" fill="#E73F46" fill-rule="evenodd"/>
<path d="m409.37 219.06c0 1.2219 2.1995 2.2129 4.9118 2.2129 2.7132 0 4.9118-0.99094 4.9118-2.2129 0-1.2211-2.1986-2.212-4.9118-2.212-2.7123 0-4.9118 0.99094-4.9118 2.212" fill="#E73F46" fill-rule="evenodd"/>
<path d="m409.37 216.1c0 1.2219 2.1995 2.212 4.9118 2.212 2.7132 0 4.9118-0.9901 4.9118-2.212 0-1.2219-2.1986-2.2129-4.9118-2.2129-2.7123 0-4.9118 0.99094-4.9118 2.2129" fill="#F9647C" fill-rule="evenodd"/>
<polygon points="400.86 213.9 410.68 213.9 410.68 210.94 400.86 210.94" fill="#E73F46" fill-rule="evenodd"/>
<path d="m400.86 213.9c0 1.2219 2.1995 2.2129 4.9118 2.2129s4.9118-0.99094 4.9118-2.2129c0-1.2219-2.1995-2.212-4.9118-2.212s-4.9118 0.9901-4.9118 2.212" fill="#E73F46" fill-rule="evenodd"/>
<path d="m400.86 210.94c0 1.2219 2.1995 2.212 4.9118 2.212s4.9118-0.99009 4.9118-2.212c0-1.2219-2.1995-2.2129-4.9118-2.2129s-4.9118 0.99094-4.9118 2.2129" fill="#F9647C" fill-rule="evenodd"/>
<polygon points="409.37 208.75 426.68 219.05 426.68 197.53 409.37 187.25" fill="#FBEDEF" fill-rule="evenodd"/>
<polygon points="426.68 219.05 460.32 208.29 460.32 186.76 426.68 197.53" fill="#E7D8DB" fill-rule="evenodd"/>
<polygon points="426.68 197.53 460.32 186.76 443.01 176.49 409.37 187.25" fill="#fff" fill-rule="evenodd"/>
<polygon points="442.93 186.77 452.75 186.77 452.75 183.81 442.93 183.81" fill="#E7D8DB" fill-rule="evenodd"/>
<path d="m442.93 186.77c0 1.2219 2.1995 2.2129 4.9118 2.2129 2.7132 0 4.9118-0.99094 4.9118-2.2129 0-1.2219-2.1986-2.2129-4.9118-2.2129-2.7123 0-4.9118 0.99094-4.9118 2.2129" fill="#E7D8DB" fill-rule="evenodd"/>
<path d="m442.93 183.81c0 1.2219 2.1995 2.2129 4.9118 2.2129 2.7132 0 4.9118-0.99094 4.9118-2.2129 0-1.2219-2.1986-2.2129-4.9118-2.2129-2.7123 0-4.9118 0.99094-4.9118 2.2129" fill="#fff" fill-rule="evenodd"/>
<polygon points="434.09 181.23 443.92 181.23 443.92 178.26 434.09 178.26" fill="#E7D8DB" fill-rule="evenodd"/>
<path d="m434.09 181.23c0 1.2219 2.1995 2.2129 4.9118 2.2129 2.7132 0 4.9118-0.99094 4.9118-2.2129 0-1.2219-2.1986-2.2129-4.9118-2.2129-2.7123 0-4.9118 0.99094-4.9118 2.2129" fill="#E7D8DB" fill-rule="evenodd"/>
<path d="m434.09 178.26c0 1.2219 2.1995 2.2129 4.9118 2.2129 2.7132 0 4.9118-0.99094 4.9118-2.2129 0-1.2219-2.1986-2.2129-4.9118-2.2129-2.7123 0-4.9118 0.99094-4.9118 2.2129" fill="#fff" fill-rule="evenodd"/>
<polygon points="424.97 192.66 434.8 192.66 434.8 189.7 424.97 189.7" fill="#E7D8DB" fill-rule="evenodd"/>
<path d="m424.97 192.66c0 1.2219 2.1995 2.2129 4.9118 2.2129 2.7132 0 4.9118-0.99094 4.9118-2.2129 0-1.2219-2.1986-2.2129-4.9118-2.2129-2.7123 0-4.9118 0.99094-4.9118 2.2129" fill="#E7D8DB" fill-rule="evenodd"/>
<path d="m424.97 189.7c0 1.2219 2.1995 2.2129 4.9118 2.2129 2.7132 0 4.9118-0.99094 4.9118-2.2129 0-1.2219-2.1986-2.2129-4.9118-2.2129-2.7123 0-4.9118 0.99094-4.9118 2.2129" fill="#fff" fill-rule="evenodd"/>
<polygon points="416.46 187.5 426.28 187.5 426.28 184.54 416.46 184.54" fill="#E7D8DB" fill-rule="evenodd"/>
<path d="m416.46 187.5c0 1.2219 2.1995 2.2129 4.9118 2.2129 2.7131 0 4.9118-0.99094 4.9118-2.2129 0-1.2219-2.1986-2.2129-4.9118-2.2129-2.7123 0-4.9118 0.99094-4.9118 2.2129" fill="#E7D8DB" fill-rule="evenodd"/>
<path d="m416.46 184.54c0 1.2219 2.1995 2.2129 4.9118 2.2129 2.7131 0 4.9118-0.99094 4.9118-2.2129 0-1.2219-2.1986-2.2129-4.9118-2.2129-2.7123 0-4.9118 0.99094-4.9118 2.2129" fill="#fff" fill-rule="evenodd"/>
<polygon points="391.98 192.8 409.29 203.09 409.29 181.57 391.98 171.3" fill="#368800" fill-rule="evenodd"/>
<polygon points="409.29 203.09 442.93 192.33 442.93 170.81 409.29 181.57" fill="#00C697" fill-rule="evenodd"/>
<polygon points="409.29 181.57 442.93 170.81 425.62 160.53 391.98 171.3" fill="#1DDEB0" fill-rule="evenodd"/>
<polygon points="425.54 170.82 435.36 170.82 435.36 167.85 425.54 167.85" fill="#368800" fill-rule="evenodd"/>
<path d="m425.54 170.82c0 1.2219 2.1995 2.2129 4.9118 2.2129s4.9118-0.99094 4.9118-2.2129c0-1.2219-2.1995-2.2129-4.9118-2.2129s-4.9118 0.99094-4.9118 2.2129" fill="#368800" fill-rule="evenodd"/>
<path d="m425.54 167.85c0 1.2219 2.1995 2.2129 4.9118 2.2129s4.9118-0.99094 4.9118-2.2129c0-1.2219-2.1995-2.2129-4.9118-2.2129s-4.9118 0.99094-4.9118 2.2129" fill="#91DE5F" fill-rule="evenodd"/>
<polygon points="416.7 165.27 426.52 165.27 426.52 162.31 416.7 162.31" fill="#368800" fill-rule="evenodd"/>
<path d="m416.7 165.27c0 1.2219 2.1995 2.2129 4.9118 2.2129 2.7131 0 4.9118-0.99094 4.9118-2.2129 0-1.2219-2.1986-2.2129-4.9118-2.2129-2.7123 0-4.9118 0.99094-4.9118 2.2129" fill="#368800" fill-rule="evenodd"/>
<path d="m416.7 162.31c0 1.2219 2.1995 2.2129 4.9118 2.2129 2.7131 0 4.9118-0.99094 4.9118-2.2129 0-1.2219-2.1986-2.2129-4.9118-2.2129-2.7123 0-4.9118 0.99094-4.9118 2.2129" fill="#91DE5F" fill-rule="evenodd"/>
<polygon points="407.58 176.71 417.4 176.71 417.4 173.74 407.58 173.74" fill="#368800" fill-rule="evenodd"/>
<path d="m407.58 176.71c0 1.2219 2.1995 2.2129 4.9118 2.2129s4.9118-0.99094 4.9118-2.2129c0-1.2219-2.1995-2.2129-4.9118-2.2129s-4.9118 0.99094-4.9118 2.2129" fill="#368800" fill-rule="evenodd"/>
<path d="m407.58 173.74c0 1.2219 2.1995 2.2129 4.9118 2.2129s4.9118-0.99094 4.9118-2.2129c0-1.2219-2.1995-2.2129-4.9118-2.2129s-4.9118 0.99094-4.9118 2.2129" fill="#91DE5F" fill-rule="evenodd"/>
<polygon points="399.07 171.55 408.89 171.55 408.89 168.58 399.07 168.58" fill="#368800" fill-rule="evenodd"/>
<path d="m399.07 171.55c0 1.2219 2.1995 2.2129 4.9118 2.2129 2.7131 0 4.9118-0.99094 4.9118-2.2129 0-1.2219-2.1986-2.2129-4.9118-2.2129-2.7123 0-4.9118 0.99094-4.9118 2.2129" fill="#368800" fill-rule="evenodd"/>
<path d="m399.07 168.58c0 1.2219 2.1995 2.2129 4.9118 2.2129 2.7131 0 4.9118-0.99094 4.9118-2.2129 0-1.2219-2.1986-2.2129-4.9118-2.2129-2.7123 0-4.9118 0.99094-4.9118 2.2129" fill="#91DE5F" fill-rule="evenodd"/>
<polygon points="358.43 203.59 375.73 213.88 375.73 192.36 358.43 182.09" fill="#FFBC25" fill-rule="evenodd"/>
<polygon points="375.73 213.88 409.37 203.12 409.37 181.6 375.73 192.36" fill="#E19500" fill-rule="evenodd"/>
<polygon points="375.73 192.36 409.37 181.6 392.07 171.32 358.43 182.09" fill="#FFD56D" fill-rule="evenodd"/>
<polygon points="391.98 181.61 401.8 181.61 401.8 178.64 391.98 178.64" fill="#E19500" fill-rule="evenodd"/>
<path d="m391.98 181.61c0 1.2219 2.1995 2.2129 4.9118 2.2129 2.7131 0 4.9118-0.99094 4.9118-2.2129 0-1.2219-2.1986-2.212-4.9118-2.212-2.7123 0-4.9118 0.9901-4.9118 2.212" fill="#E19500" fill-rule="evenodd"/>
<path d="m391.98 178.64c0 1.2219 2.1995 2.2129 4.9118 2.2129 2.7131 0 4.9118-0.99094 4.9118-2.2129 0-1.2219-2.1986-2.2129-4.9118-2.2129-2.7123 0-4.9118 0.99094-4.9118 2.2129" fill="#FFD56D" fill-rule="evenodd"/>
<polygon points="383.14 176.06 392.97 176.06 392.97 173.1 383.14 173.1" fill="#E19500" fill-rule="evenodd"/>
<path d="m383.14 176.06c0 1.2219 2.1995 2.2129 4.9118 2.2129 2.7131 0 4.9118-0.99094 4.9118-2.2129 0-1.2219-2.1986-2.2129-4.9118-2.2129-2.7123 0-4.9118 0.99094-4.9118 2.2129" fill="#E19500" fill-rule="evenodd"/>
<path d="m383.14 173.1c0 1.2219 2.1995 2.2129 4.9118 2.2129 2.7131 0 4.9118-0.99094 4.9118-2.2129 0-1.2219-2.1986-2.2129-4.9118-2.2129-2.7123 0-4.9118 0.99094-4.9118 2.2129" fill="#FFD56D" fill-rule="evenodd"/>
<polygon points="374.03 187.5 383.85 187.5 383.85 184.53 374.03 184.53" fill="#E19500" fill-rule="evenodd"/>
<path d="m374.03 187.5c0 1.2219 2.1995 2.2129 4.9118 2.2129 2.7131 0 4.9118-0.99094 4.9118-2.2129 0-1.2219-2.1986-2.2129-4.9118-2.2129-2.7123 0-4.9118 0.99094-4.9118 2.2129" fill="#E19500" fill-rule="evenodd"/>
<path d="m374.03 184.53c0 1.2219 2.1995 2.2129 4.9118 2.2129 2.7131 0 4.9118-0.99094 4.9118-2.2129 0-1.2219-2.1986-2.2129-4.9118-2.2129-2.7123 0-4.9118 0.99094-4.9118 2.2129" fill="#FFD56D" fill-rule="evenodd"/>
<polygon points="365.51 182.34 375.34 182.34 375.34 179.37 365.51 179.37" fill="#E19500" fill-rule="evenodd"/>
<path d="m365.51 182.34c0 1.2219 2.1995 2.2129 4.9118 2.2129 2.7132 0 4.9118-0.99094 4.9118-2.2129 0-1.2219-2.1986-2.2129-4.9118-2.2129-2.7123 0-4.9118 0.99094-4.9118 2.2129" fill="#E19500" fill-rule="evenodd"/>
<path d="m365.51 179.37c0 1.2219 2.1995 2.212 4.9118 2.212 2.7132 0 4.9118-0.9901 4.9118-2.212 0-1.2219-2.1986-2.2129-4.9118-2.2129-2.7123 0-4.9118 0.99094-4.9118 2.2129" fill="#FFD56D" fill-rule="evenodd"/>
<polygon points="372.84 177.55 390.15 187.85 390.15 166.33 372.84 156.05" fill="#00A3D6" fill-rule="evenodd"/>
<polygon points="390.15 187.85 423.79 177.09 423.79 155.56 390.15 166.33" fill="#0087BA" fill-rule="evenodd"/>
<polygon points="390.15 166.33 423.79 155.56 406.48 145.29 372.84 156.05" fill="#32CDF6" fill-rule="evenodd"/>
<polygon points="406.39 155.57 416.22 155.57 416.22 152.61 406.39 152.61" fill="#0087BA" fill-rule="evenodd"/>
<path d="m406.39 155.57c0 1.2219 2.1995 2.2129 4.9118 2.2129 2.7132 0 4.9118-0.99094 4.9118-2.2129 0-1.2219-2.1986-2.2129-4.9118-2.2129-2.7123 0-4.9118 0.99094-4.9118 2.2129" fill="#0087BA" fill-rule="evenodd"/>
<path d="m406.39 152.61c0 1.2219 2.1995 2.2129 4.9118 2.2129 2.7132 0 4.9118-0.99094 4.9118-2.2129 0-1.2219-2.1986-2.2129-4.9118-2.2129-2.7123 0-4.9118 0.99094-4.9118 2.2129" fill="#32CDF6" fill-rule="evenodd"/>
<polygon points="397.56 150.03 407.38 150.03 407.38 147.06 397.56 147.06" fill="#0087BA" fill-rule="evenodd"/>
<path d="m397.56 150.03c0 1.2219 2.1995 2.2129 4.9118 2.2129 2.7132 0 4.9118-0.99094 4.9118-2.2129 0-1.2219-2.1986-2.212-4.9118-2.212-2.7123 0-4.9118 0.9901-4.9118 2.212" fill="#0087BA" fill-rule="evenodd"/>
<path d="m397.56 147.06c0 1.2219 2.1995 2.2129 4.9118 2.2129 2.7132 0 4.9118-0.99094 4.9118-2.2129 0-1.2219-2.1986-2.2129-4.9118-2.2129-2.7123 0-4.9118 0.99094-4.9118 2.2129" fill="#32CDF6" fill-rule="evenodd"/>
<polygon points="388.44 161.46 398.26 161.46 398.26 158.5 388.44 158.5" fill="#0087BA" fill-rule="evenodd"/>
<path d="m388.44 161.46c0 1.2219 2.1995 2.2129 4.9118 2.2129 2.7132 0 4.9118-0.99094 4.9118-2.2129 0-1.2219-2.1986-2.2129-4.9118-2.2129-2.7123 0-4.9118 0.99094-4.9118 2.2129" fill="#0087BA" fill-rule="evenodd"/>
<path d="m388.44 158.5c0 1.2219 2.1995 2.2129 4.9118 2.2129 2.7132 0 4.9118-0.99094 4.9118-2.2129 0-1.2219-2.1986-2.2129-4.9118-2.2129-2.7123 0-4.9118 0.99094-4.9118 2.2129" fill="#32CDF6" fill-rule="evenodd"/>
<polygon points="379.93 156.3 389.75 156.3 389.75 153.34 379.93 153.34" fill="#0087BA" fill-rule="evenodd"/>
<path d="m379.93 156.3c0 1.2219 2.1995 2.2129 4.9118 2.2129 2.7131 0 4.9118-0.99094 4.9118-2.2129 0-1.2219-2.1986-2.2129-4.9118-2.2129-2.7123 0-4.9118 0.99094-4.9118 2.2129" fill="#0087BA" fill-rule="evenodd"/>
<path d="m379.93 153.34c0 1.2219 2.1995 2.2129 4.9118 2.2129 2.7131 0 4.9118-0.99094 4.9118-2.2129 0-1.2219-2.1986-2.2129-4.9118-2.2129-2.7123 0-4.9118 0.99094-4.9118 2.2129" fill="#32CDF6" fill-rule="evenodd"/>
<polygon points="359.95 297.25 342.64 307.54 342.64 286.02 359.95 275.75" fill="#CC232A" fill-rule="evenodd"/>
<polygon points="309 296.78 342.64 307.54 342.64 286.02 309 275.26" fill="#E73F46" fill-rule="evenodd"/>
<mask fill="white">
<use xlink:href="#i"/>
</mask>
<polygon points="353.78 346.35 391.79 349.01 386.41 359.05 340.36 361.71" fill="#121212" fill-rule="evenodd" filter="url(#q)"/>
<mask fill="white">
<use xlink:href="#h"/>
</mask>
<polygon points="444.78 324.35 477.41 302.74 473.04 324.35 431.36 339.71" fill="#121212" fill-rule="evenodd" filter="url(#p)"/>
<polygon points="324 351.92 340.36 361.71 340.36 341.24 324 331.46" fill="#25E7B9" fill-rule="evenodd"/>
<polygon points="340.36 341.24 340.36 361.71 372.16 351.47 372.16 331" fill="#00C697" fill-rule="evenodd"/>
<polygon points="324 331.46 340.36 341.24 372.16 331 355.8 321.22" fill="#2FF7C8" fill-rule="evenodd"/>
<polygon points="355.72 331.01 365.01 331.01 365.01 328.19 355.72 328.19" fill="#00C697" fill-rule="evenodd"/>
<path d="m355.72 331.01c0 1.1615 2.0792 2.104 4.6432 2.104 2.5648 0 4.6432-0.94258 4.6432-2.104 0-1.1623-2.0784-2.1048-4.6432-2.1048-2.564 0-4.6432 0.94258-4.6432 2.1048" fill="#00C697" fill-rule="evenodd"/>
<path d="m355.72 328.19c0 1.1623 2.0792 2.1048 4.6432 2.1048 2.5648 0 4.6432-0.94258 4.6432-2.1048 0-1.1615-2.0784-2.104-4.6432-2.104-2.564 0-4.6432 0.94258-4.6432 2.104" fill="#2FF7C8" fill-rule="evenodd"/>
<polygon points="347.37 325.73 356.65 325.73 356.65 322.91 347.37 322.91" fill="#00C697" fill-rule="evenodd"/>
<path d="m347.37 325.73c0 1.1623 2.0792 2.1048 4.6432 2.1048 2.5648 0 4.6432-0.94258 4.6432-2.1048 0-1.1615-2.0784-2.104-4.6432-2.104-2.564 0-4.6432 0.94258-4.6432 2.104" fill="#00C697" fill-rule="evenodd"/>
<path d="m347.37 322.91c0 1.1623 2.0792 2.1048 4.6432 2.1048 2.5648 0 4.6432-0.94258 4.6432-2.1048 0-1.1623-2.0784-2.104-4.6432-2.104-2.564 0-4.6432 0.94177-4.6432 2.104" fill="#2FF7C8" fill-rule="evenodd"/>
<polygon points="338.75 336.61 348.03 336.61 348.03 333.79 338.75 333.79" fill="#00C697" fill-rule="evenodd"/>
<path d="m338.75 336.61c0 1.1623 2.0792 2.1048 4.6432 2.1048 2.5648 0 4.6432-0.94258 4.6432-2.1048 0-1.1623-2.0784-2.104-4.6432-2.104-2.564 0-4.6432 0.94177-4.6432 2.104" fill="#00C697" fill-rule="evenodd"/>
<path d="m338.75 333.79c0 1.1615 2.0792 2.104 4.6432 2.104 2.5648 0 4.6432-0.94258 4.6432-2.104 0-1.1623-2.0784-2.1048-4.6432-2.1048-2.564 0-4.6432 0.94258-4.6432 2.1048" fill="#2FF7C8" fill-rule="evenodd"/>
<polygon points="330.7 331.7 339.99 331.7 339.99 328.88 330.7 328.88" fill="#00C697" fill-rule="evenodd"/>
<path d="m330.7 331.7c0 1.1623 2.0792 2.104 4.6432 2.104 2.5648 0 4.6432-0.94177 4.6432-2.104s-2.0784-2.1048-4.6432-2.1048c-2.564 0-4.6432 0.94258-4.6432 2.1048" fill="#00C697" fill-rule="evenodd"/>
<path d="m330.7 328.88c0 1.1623 2.0792 2.104 4.6432 2.104 2.5648 0 4.6432-0.94177 4.6432-2.104 0-1.1623-2.0784-2.1048-4.6432-2.1048-2.564 0-4.6432 0.94258-4.6432 2.1048" fill="#2FF7C8" fill-rule="evenodd"/>
<polygon points="431.71 283.22 431.71 289.22 431.71 340.47 477.75 303.83 477.75 253.27" fill="#2A2A46" fill-rule="evenodd"/>
<polygon points="477.22 289.74 477.75 255.48 477.19 253.64 431.71 283.22 431.71 284.81 446.12 312.46" fill="#07070D" fill-rule="evenodd"/>
<polygon points="367.41 262.61 367.41 317.23 431.71 340.47 431.71 289.22 431.71 283.22" fill="#464769" fill-rule="evenodd"/>
<polygon points="431.71 284.81 431.71 283.22 409.11 275.98 369.78 268.69 367.41 272.38 367.41 296.22 418.85 315.9" fill="#2A2A46" fill-rule="evenodd"/>
<polygon points="431.71 283.22 453.68 307.88 499.36 271.25 477.75 253.27" fill="#464769" fill-rule="evenodd"/>
<polygon points="367.41 262.61 351.77 286.92 416.48 310.35 431.71 283.22" fill="#464769" fill-rule="evenodd"/>
<mask fill="white">
<use xlink:href="#c"/>
</mask>
<use fill="#F2F2FE" fill-rule="nonzero" xlink:href="#c"/>
<polygon points="381.11 236.26 428.75 221.04 404.24 206.52 356.61 221.74" fill="#FFD56D" fill-rule="evenodd"/>
<polygon points="404.12 221.05 418.03 221.05 418.03 216.87 404.12 216.87" fill="#E19500" fill-rule="evenodd"/>
<path d="m404.12 221.05c0 1.7268 3.1145 3.1272 6.9552 3.1272 3.8419 0 6.9552-1.4004 6.9552-3.1272 0-1.7256-3.1133-3.126-6.9552-3.126-3.8407 0-6.9552 1.4004-6.9552 3.126" fill="#E19500" fill-rule="evenodd"/>
<path d="m404.12 216.87c0 1.7268 3.1145 3.1272 6.9552 3.1272 3.8419 0 6.9552-1.4004 6.9552-3.1272s-3.1133-3.126-6.9552-3.126c-3.8407 0-6.9552 1.3992-6.9552 3.126" fill="#FFD56D" fill-rule="evenodd"/>
<polygon points="391.61 213.22 405.52 213.22 405.52 209.03 391.61 209.03" fill="#E19500" fill-rule="evenodd"/>
<path d="m391.61 213.22c0 1.7268 3.1145 3.1272 6.9552 3.1272 3.8419 0 6.9552-1.4004 6.9552-3.1272s-3.1133-3.126-6.9552-3.126c-3.8407 0-6.9552 1.3992-6.9552 3.126" fill="#E19500" fill-rule="evenodd"/>
<path d="m391.61 209.03c0 1.7268 3.1145 3.126 6.9552 3.126 3.8419 0 6.9552-1.3992 6.9552-3.126s-3.1133-3.1272-6.9552-3.1272c-3.8407 0-6.9552 1.4004-6.9552 3.1272" fill="#FFD56D" fill-rule="evenodd"/>
<polygon points="378.7 229.38 392.61 229.38 392.61 225.19 378.7 225.19" fill="#E19500" fill-rule="evenodd"/>
<path d="m378.7 229.38c0 1.7268 3.1145 3.126 6.9552 3.126 3.8419 0 6.9552-1.3992 6.9552-3.126s-3.1133-3.1272-6.9552-3.1272c-3.8407 0-6.9552 1.4004-6.9552 3.1272" fill="#E19500" fill-rule="evenodd"/>
<path d="m378.7 225.19c0 1.7256 3.1145 3.126 6.9552 3.126 3.8419 0 6.9552-1.4004 6.9552-3.126 0-1.7268-3.1133-3.1272-6.9552-3.1272-3.8407 0-6.9552 1.4004-6.9552 3.1272" fill="#FFD56D" fill-rule="evenodd"/>
<polygon points="366.64 222.09 380.55 222.09 380.55 217.9 366.64 217.9" fill="#E19500" fill-rule="evenodd"/>
<path d="m366.64 222.09c0 1.7268 3.1145 3.126 6.9552 3.126 3.8419 0 6.9552-1.3992 6.9552-3.126s-3.1133-3.1272-6.9552-3.1272c-3.8407 0-6.9552 1.4004-6.9552 3.1272" fill="#E19500" fill-rule="evenodd"/>
<path d="m366.64 217.9c0 1.7256 3.1145 3.126 6.9552 3.126 3.8419 0 6.9552-1.4004 6.9552-3.126 0-1.7268-3.1133-3.1272-6.9552-3.1272-3.8407 0-6.9552 1.4004-6.9552 3.1272" fill="#FFD56D" fill-rule="evenodd"/>
<polygon points="356.54 221.82 381.04 236.37 381.04 205.95 356.54 191.43" fill="#F5535A" fill-rule="evenodd"/>
<polygon points="381.04 236.37 428.68 221.16 428.68 190.74 381.04 205.95" fill="#E73F46" fill-rule="evenodd"/>
<polygon points="381.04 205.95 428.68 190.74 404.17 176.22 356.54 191.43" fill="#F9647C" fill-rule="evenodd"/>
<polygon points="404.05 190.75 417.96 190.75 417.96 186.56 404.05 186.56" fill="#B6142E" fill-rule="evenodd"/>
<path d="m404.05 190.75c0 1.7268 3.1145 3.126 6.9552 3.126 3.8419 0 6.9552-1.3992 6.9552-3.126s-3.1133-3.1272-6.9552-3.1272c-3.8407 0-6.9552 1.4004-6.9552 3.1272" fill="#B6142E" fill-rule="evenodd"/>
<path d="m404.05 186.56c0 1.7256 3.1145 3.126 6.9552 3.126 3.8419 0 6.9552-1.4004 6.9552-3.126 0-1.7268-3.1133-3.1272-6.9552-3.1272-3.8407 0-6.9552 1.4004-6.9552 3.1272" fill="#FF4B67" fill-rule="evenodd"/>
<polygon points="391.54 182.91 405.45 182.91 405.45 178.73 391.54 178.73" fill="#B6142E" fill-rule="evenodd"/>
<path d="m391.54 182.92c0 1.7256 3.1145 3.126 6.9552 3.126 3.8419 0 6.9552-1.4004 6.9552-3.126 0-1.7268-3.1133-3.1272-6.9552-3.1272-3.8407 0-6.9552 1.4004-6.9552 3.1272" fill="#B6142E" fill-rule="evenodd"/>
<path d="m391.54 178.73c0 1.7268 3.1145 3.1272 6.9552 3.1272 3.8419 0 6.9552-1.4004 6.9552-3.1272s-3.1133-3.126-6.9552-3.126c-3.8407 0-6.9552 1.3992-6.9552 3.126" fill="#FF4B67" fill-rule="evenodd"/>
<polygon points="378.63 199.08 392.54 199.08 392.54 194.89 378.63 194.89" fill="#E73F46" fill-rule="evenodd"/>
<path d="m378.63 199.08c0 1.7268 3.1145 3.1272 6.9552 3.1272 3.8419 0 6.9552-1.4004 6.9552-3.1272 0-1.7256-3.1133-3.126-6.9552-3.126-3.8407 0-6.9552 1.4004-6.9552 3.126" fill="#E73F46" fill-rule="evenodd"/>
<path d="m378.63 194.89c0 1.7268 3.1145 3.126 6.9552 3.126 3.8419 0 6.9552-1.3992 6.9552-3.126s-3.1133-3.1272-6.9552-3.1272c-3.8407 0-6.9552 1.4004-6.9552 3.1272" fill="#F9647C" fill-rule="evenodd"/>
<polygon points="366.57 191.78 380.48 191.78 380.48 187.59 366.57 187.59" fill="#E73F46" fill-rule="evenodd"/>
<path d="m366.57 191.78c0 1.7268 3.1145 3.1272 6.9552 3.1272 3.8407 0 6.9552-1.4004 6.9552-3.1272s-3.1145-3.126-6.9552-3.126c-3.8407 0-6.9552 1.3992-6.9552 3.126" fill="#E73F46" fill-rule="evenodd"/>
<path d="m366.57 187.59c0 1.7268 3.1145 3.126 6.9552 3.126 3.8407 0 6.9552-1.3992 6.9552-3.126s-3.1145-3.1272-6.9552-3.1272c-3.8407 0-6.9552 1.4004-6.9552 3.1272" fill="#F9647C" fill-rule="evenodd"/>
<polygon points="378.63 184.51 403.14 199.06 403.14 168.65 378.63 154.13" fill="#FBEDEF" fill-rule="evenodd"/>
<polygon points="403.13 199.06 450.77 183.85 450.77 153.43 403.13 168.65" fill="#E7D8DB" fill-rule="evenodd"/>
<polygon points="403.13 168.65 450.77 153.43 426.26 138.91 378.63 154.13" fill="#fff" fill-rule="evenodd"/>
<polygon points="426.14 153.44 440.05 153.44 440.05 149.25 426.14 149.25" fill="#E7D8DB" fill-rule="evenodd"/>
<path d="m426.14 153.44c0 1.7268 3.1145 3.1272 6.9552 3.1272 3.8419 0 6.9552-1.4004 6.9552-3.1272s-3.1133-3.1272-6.9552-3.1272c-3.8407 0-6.9552 1.4004-6.9552 3.1272" fill="#E7D8DB" fill-rule="evenodd"/>
<path d="m426.14 149.26c0 1.7268 3.1145 3.1272 6.9552 3.1272 3.8419 0 6.9552-1.4004 6.9552-3.1272s-3.1133-3.1272-6.9552-3.1272c-3.8407 0-6.9552 1.4004-6.9552 3.1272" fill="#fff" fill-rule="evenodd"/>
<polygon points="413.63 145.61 427.54 145.61 427.54 141.42 413.63 141.42" fill="#E7D8DB" fill-rule="evenodd"/>
<path d="m413.63 145.61c0 1.7268 3.1145 3.1272 6.9552 3.1272 3.8419 0 6.9552-1.4004 6.9552-3.1272s-3.1133-3.1272-6.9552-3.1272c-3.8407 0-6.9552 1.4004-6.9552 3.1272" fill="#E7D8DB" fill-rule="evenodd"/>
<path d="m413.63 141.42c0 1.7268 3.1145 3.1272 6.9552 3.1272 3.8419 0 6.9552-1.4004 6.9552-3.1272s-3.1133-3.1272-6.9552-3.1272c-3.8407 0-6.9552 1.4004-6.9552 3.1272" fill="#fff" fill-rule="evenodd"/>
<polygon points="400.72 161.77 414.63 161.77 414.63 157.58 400.72 157.58" fill="#E7D8DB" fill-rule="evenodd"/>
<path d="m400.72 161.77c0 1.7268 3.1145 3.1272 6.9552 3.1272 3.8419 0 6.9552-1.4004 6.9552-3.1272s-3.1133-3.1272-6.9552-3.1272c-3.8407 0-6.9552 1.4004-6.9552 3.1272" fill="#E7D8DB" fill-rule="evenodd"/>
<path d="m400.72 157.58c0 1.7268 3.1145 3.1272 6.9552 3.1272 3.8419 0 6.9552-1.4004 6.9552-3.1272s-3.1133-3.1272-6.9552-3.1272c-3.8407 0-6.9552 1.4004-6.9552 3.1272" fill="#fff" fill-rule="evenodd"/>
<polygon points="388.66 154.48 402.57 154.48 402.57 150.29 388.66 150.29" fill="#E7D8DB" fill-rule="evenodd"/>
<path d="m388.66 154.48c0 1.7268 3.1145 3.1272 6.9552 3.1272 3.8419 0 6.9552-1.4004 6.9552-3.1272s-3.1133-3.1272-6.9552-3.1272c-3.8407 0-6.9552 1.4004-6.9552 3.1272" fill="#E7D8DB" fill-rule="evenodd"/>
<path d="m388.66 150.29c0 1.7268 3.1145 3.1272 6.9552 3.1272 3.8419 0 6.9552-1.4004 6.9552-3.1272s-3.1133-3.1272-6.9552-3.1272c-3.8407 0-6.9552 1.4004-6.9552 3.1272" fill="#fff" fill-rule="evenodd"/>
<polygon points="354 161.96 378.51 176.51 378.51 146.1 354 131.58" fill="#368800" fill-rule="evenodd"/>
<polygon points="378.51 176.51 426.14 161.3 426.14 130.89 378.51 146.1" fill="#00C697" fill-rule="evenodd"/>
<polygon points="378.51 146.1 426.14 130.88 401.63 116.36 354 131.58" fill="#1DDEB0" fill-rule="evenodd"/>
<polygon points="401.51 130.9 415.42 130.9 415.42 126.71 401.51 126.71" fill="#00C697" fill-rule="evenodd"/>
<path d="m401.51 130.9c0 1.7268 3.1145 3.1272 6.9552 3.1272 3.8407 0 6.9552-1.4004 6.9552-3.1272s-3.1145-3.1272-6.9552-3.1272c-3.8407 0-6.9552 1.4004-6.9552 3.1272" fill="#00C697" fill-rule="evenodd"/>
<path d="m401.51 126.71c0 1.7268 3.1145 3.1272 6.9552 3.1272 3.8407 0 6.9552-1.4004 6.9552-3.1272s-3.1145-3.1272-6.9552-3.1272c-3.8407 0-6.9552 1.4004-6.9552 3.1272" fill="#1DDEB0" fill-rule="evenodd"/>
<polygon points="389 123.06 402.91 123.06 402.91 118.87 389 118.87" fill="#00C697" fill-rule="evenodd"/>
<path d="m389 123.06c0 1.7268 3.1145 3.1272 6.9552 3.1272 3.8419 0 6.9552-1.4004 6.9552-3.1272s-3.1133-3.1272-6.9552-3.1272c-3.8407 0-6.9552 1.4004-6.9552 3.1272" fill="#00C697" fill-rule="evenodd"/>
<path d="m389 118.87c0 1.7268 3.1145 3.1272 6.9552 3.1272 3.8419 0 6.9552-1.4004 6.9552-3.1272s-3.1133-3.1272-6.9552-3.1272c-3.8407 0-6.9552 1.4004-6.9552 3.1272" fill="#1DDEB0" fill-rule="evenodd"/>
<polygon points="376.09 139.22 390 139.22 390 135.03 376.09 135.03" fill="#368800" fill-rule="evenodd"/>
<path d="m376.09 139.22c0 1.7268 3.1145 3.1272 6.9552 3.1272 3.8407 0 6.9552-1.4004 6.9552-3.1272s-3.1145-3.1272-6.9552-3.1272c-3.8407 0-6.9552 1.4004-6.9552 3.1272" fill="#368800" fill-rule="evenodd"/>
<path d="m376.09 135.03c0 1.7268 3.1145 3.1272 6.9552 3.1272 3.8407 0 6.9552-1.4004 6.9552-3.1272s-3.1145-3.1272-6.9552-3.1272c-3.8407 0-6.9552 1.4004-6.9552 3.1272" fill="#91DE5F" fill-rule="evenodd"/>
<polygon points="364.04 131.93 377.95 131.93 377.95 127.74 364.04 127.74" fill="#368800" fill-rule="evenodd"/>
<path d="m364.04 131.93c0 1.7268 3.1145 3.1272 6.9552 3.1272 3.8419 0 6.9552-1.4004 6.9552-3.1272s-3.1133-3.1272-6.9552-3.1272c-3.8407 0-6.9552 1.4004-6.9552 3.1272" fill="#368800" fill-rule="evenodd"/>
<path d="m364.04 127.74c0 1.7268 3.1145 3.1272 6.9552 3.1272 3.8419 0 6.9552-1.4004 6.9552-3.1272s-3.1133-3.1272-6.9552-3.1272c-3.8407 0-6.9552 1.4004-6.9552 3.1272" fill="#91DE5F" fill-rule="evenodd"/>
<polygon points="306.48 177.21 330.99 191.76 330.99 161.35 306.48 146.83" fill="#FBC337" fill-rule="evenodd"/>
<polygon points="330.99 191.76 378.63 176.55 378.63 146.13 330.99 161.35" fill="#FFA94D" fill-rule="evenodd"/>
<polygon points="330.99 161.35 378.63 146.13 354.12 131.61 306.48 146.83" fill="#FFD56D" fill-rule="evenodd"/>
<polygon points="354 146.14 367.91 146.14 367.91 141.96 354 141.96" fill="#E19500" fill-rule="evenodd"/>
<path d="m354 146.14c0 1.7268 3.1145 3.1272 6.9552 3.1272 3.8419 0 6.9552-1.4004 6.9552-3.1272s-3.1133-3.126-6.9552-3.126c-3.8407 0-6.9552 1.3992-6.9552 3.126" fill="#E19500" fill-rule="evenodd"/>
<path d="m354 141.96c0 1.7268 3.1145 3.1272 6.9552 3.1272 3.8419 0 6.9552-1.4004 6.9552-3.1272s-3.1133-3.1272-6.9552-3.1272c-3.8407 0-6.9552 1.4004-6.9552 3.1272" fill="#FFD56D" fill-rule="evenodd"/>
<polygon points="341.49 138.31 355.4 138.31 355.4 134.12 341.49 134.12" fill="#E19500" fill-rule="evenodd"/>
<path d="m341.49 138.31c0 1.7268 3.1145 3.1272 6.9552 3.1272 3.8419 0 6.9552-1.4004 6.9552-3.1272s-3.1133-3.1272-6.9552-3.1272c-3.8407 0-6.9552 1.4004-6.9552 3.1272" fill="#E19500" fill-rule="evenodd"/>
<path d="m341.49 134.12c0 1.7268 3.1145 3.1272 6.9552 3.1272 3.8419 0 6.9552-1.4004 6.9552-3.1272s-3.1133-3.1272-6.9552-3.1272c-3.8407 0-6.9552 1.4004-6.9552 3.1272" fill="#FFD56D" fill-rule="evenodd"/>
<polygon points="328.58 154.47 342.49 154.47 342.49 150.28 328.58 150.28" fill="#FFA94D" fill-rule="evenodd"/>
<path d="m328.58 154.47c0 1.7268 3.1145 3.1272 6.9552 3.1272 3.8419 0 6.9552-1.4004 6.9552-3.1272s-3.1133-3.1272-6.9552-3.1272c-3.8407 0-6.9552 1.4004-6.9552 3.1272" fill="#FFA94D" fill-rule="evenodd"/>
<path d="m328.58 150.28c0 1.7268 3.1145 3.1272 6.9552 3.1272 3.8419 0 6.9552-1.4004 6.9552-3.1272s-3.1133-3.1272-6.9552-3.1272c-3.8407 0-6.9552 1.4004-6.9552 3.1272" fill="#FFD56D" fill-rule="evenodd"/>
<polygon points="316.52 147.18 330.43 147.18 330.43 142.99 316.52 142.99" fill="#FFA94D" fill-rule="evenodd"/>
<path d="m316.52 147.18c0 1.7268 3.1145 3.1272 6.9552 3.1272 3.8419 0 6.9552-1.4004 6.9552-3.1272s-3.1133-3.1272-6.9552-3.1272c-3.8407 0-6.9552 1.4004-6.9552 3.1272" fill="#FFA94D" fill-rule="evenodd"/>
<path d="m316.52 142.99c0 1.7268 3.1145 3.126 6.9552 3.126 3.8419 0 6.9552-1.3992 6.9552-3.126s-3.1133-3.1272-6.9552-3.1272c-3.8407 0-6.9552 1.4004-6.9552 3.1272" fill="#FFD56D" fill-rule="evenodd"/>
<polygon points="326.89 140.42 351.4 154.97 351.4 124.56 326.89 110.03" fill="#8471F4" fill-rule="evenodd"/>
<polygon points="351.4 154.97 399.04 139.76 399.04 109.34 351.4 124.56" fill="#5C0CFA" fill-rule="evenodd"/>
<polygon points="351.4 124.56 399.04 109.34 374.53 94.819 326.89 110.03" fill="#9E8DFF" fill-rule="evenodd"/>
<polygon points="374.41 109.35 388.32 109.35 388.32 105.16 374.41 105.16" fill="#5C0CFA" fill-rule="evenodd"/>
<path d="m374.41 109.35c0 1.7268 3.1145 3.1272 6.9552 3.1272 3.8419 0 6.9552-1.4004 6.9552-3.1272s-3.1133-3.1272-6.9552-3.1272c-3.8407 0-6.9552 1.4004-6.9552 3.1272" fill="#5C0CFA" fill-rule="evenodd"/>
<path d="m374.41 105.16c0 1.7268 3.1145 3.1272 6.9552 3.1272 3.8419 0 6.9552-1.4004 6.9552-3.1272s-3.1133-3.1272-6.9552-3.1272c-3.8407 0-6.9552 1.4004-6.9552 3.1272" fill="#9E8DFF" fill-rule="evenodd"/>
<polygon points="361.9 101.52 375.81 101.52 375.81 97.327 361.9 97.327" fill="#5C0CFA" fill-rule="evenodd"/>
<path d="m361.89 101.52c0 1.7268 3.1145 3.1272 6.9552 3.1272 3.8419 0 6.9552-1.4004 6.9552-3.1272s-3.1133-3.126-6.9552-3.126c-3.8407 0-6.9552 1.3992-6.9552 3.126" fill="#5C0CFA" fill-rule="evenodd"/>
<path d="m361.89 97.327c0 1.7268 3.1145 3.1272 6.9552 3.1272 3.8419 0 6.9552-1.4004 6.9552-3.1272s-3.1133-3.1272-6.9552-3.1272c-3.8407 0-6.9552 1.4004-6.9552 3.1272" fill="#9E8DFF" fill-rule="evenodd"/>
<polygon points="348.98 117.68 362.9 117.68 362.9 113.49 348.98 113.49" fill="#5C0CFA" fill-rule="evenodd"/>
<path d="m348.98 117.68c0 1.7268 3.1145 3.1272 6.9552 3.1272 3.8419 0 6.9552-1.4004 6.9552-3.1272s-3.1133-3.1272-6.9552-3.1272c-3.8407 0-6.9552 1.4004-6.9552 3.1272" fill="#5C0CFA" fill-rule="evenodd"/>
<path d="m348.98 113.49c0 1.7268 3.1145 3.1272 6.9552 3.1272 3.8419 0 6.9552-1.4004 6.9552-3.1272s-3.1133-3.1272-6.9552-3.1272c-3.8407 0-6.9552 1.4004-6.9552 3.1272" fill="#9E8DFF" fill-rule="evenodd"/>
<polygon points="336.93 110.38 350.84 110.38 350.84 106.2 336.93 106.2" fill="#5C0CFA" fill-rule="evenodd"/>
<path d="m336.93 110.38c0 1.7268 3.1145 3.1272 6.9552 3.1272 3.8419 0 6.9552-1.4004 6.9552-3.1272s-3.1133-3.1272-6.9552-3.1272c-3.8407 0-6.9552 1.4004-6.9552 3.1272" fill="#5C0CFA" fill-rule="evenodd"/>
<path d="m336.93 106.2c0 1.7268 3.1145 3.1272 6.9552 3.1272 3.8419 0 6.9552-1.4004 6.9552-3.1272s-3.1133-3.1272-6.9552-3.1272c-3.8407 0-6.9552 1.4004-6.9552 3.1272" fill="#9E8DFF" fill-rule="evenodd"/>
<mask fill="white">
<use xlink:href="#a"/>
</mask>
<g transform="translate(328.19 162.55) scale(-1 1) rotate(23) translate(-328.19 -162.55)">
<use fill="black" filter="url(#o)" xlink:href="#a"/>
<use fill="url(#n)" fill-rule="evenodd" xlink:href="#a"/>
</g>
<path transform="translate(261.41 264.82) scale(-1 1) rotate(23) translate(-261.41 -264.82)" d="m230.53 228.62c-0.20823-0.006324-0.40339 0.009092-0.58233 0.048224-4.4543 0.97711-5.9448 10.877-7.6953 14.281-3.0989 6.0232-6.2753 12.006-9.4882 17.969-1.5506 2.878 0.032065 3.063 2.2988 4.1654 1.728 0.84074 3.4548 1.6831 5.1823 2.5242 5.0224 2.4459 10.045 4.8923 15.067 7.3382 11.473 5.588 22.945 11.176 34.418 16.763 5.7936 2.8218 11.794 6.6864 17.902 8.7197 4.5521 1.5155 10.152-0.083007 14.283-2.6673 7.9471-4.9705 11.89-18.59 5.7761-26.391-2.1333-2.7218-5.1594-4.5765-8.13-6.35-15.511-9.2616-31.374-17.935-47.544-25.997-3.933-1.9609-7.8842-3.8855-11.853-5.7733-2.0799-0.98976-6.9649-4.5531-9.6347-4.6314" fill="#5032B6" fill-rule="evenodd"/>
<path transform="translate(367.46 138.75) scale(-1 1) rotate(23) translate(-367.46 -138.75)" d="m400.58 74.34c-35.627-18.264-79.338-4.2326-97.63 31.34-18.292 35.573-4.2394 79.217 31.388 97.482 35.627 18.264 79.338 4.2326 97.63-31.34 18.292-35.573 4.2394-79.217-31.388-97.482" fill="#C6C7DC" fill-opacity=".29362" fill-rule="evenodd" opacity=".14116"/>
<path transform="translate(401.64 151.49) rotate(-23) translate(-401.64 -151.49)" d="m433.68 116.99c-0.54591 42.095-21.906 65.095-64.081 69" fill="none" fill-rule="nonzero" opacity=".51346" stroke="#fff" stroke-linecap="round" stroke-width="2"/>
<mask fill="white">
<use xlink:href="#g"/>
</mask>
<path transform="translate(410.06 45.237) scale(-1 1) rotate(23) translate(-410.06 -45.237)" d="m410.29 45.432c-0.29938-0.36502-0.47758-0.4366-0.46213-0.37135 0.17622 0.11469 0.33937 0.2357 0.45421 0.36621 0.002772 0.0019774 0.005544 0.0035593 0.00792 0.0051411" fill="#326186" fill-rule="evenodd"/>
<path transform="translate(258.03 238.62) scale(-1 1) rotate(10) translate(-258.03 -238.62)" d="m272.56 231.68l-20.003 0.75531c-4.4018 0-10.602 6.3529-10.602 11.321 0.50717 1.3254 1.433 1.9169 2.7776 1.7746 5.7964-0.61362 15.582-2.3391 29.357-5.1764l-1.5296-8.675z" fill="#F1BD9A" fill-rule="evenodd"/>
</g>
</g>
</g>
</g>
</g>
</svg>
