<svg xmlns="http://www.w3.org/2000/svg" xmlns:xlink="http://www.w3.org/1999/xlink" width="548" height="497" viewBox="0 0 548 497">
    <defs>
        <path id="a" d="M74.05 29.205C-54.3 121.669-1.076 311.639 121.922 357.582c122.995 45.944 281.243 19.989 325.775-65.357 76.094-145.842-67.135-116.603-122.909-150.39C260.114 102.659 222.001.325 147.844.325c-21.173 0-45.285 8.342-73.794 28.88"/>
        <linearGradient id="c" x1="0%" x2="85.346%" y1="19.03%" y2="84.959%">
            <stop offset="0%" stop-color="#935DFF"/>
            <stop offset="100%" stop-color="#4B545F"/>
        </linearGradient>
        <linearGradient id="d" x1="84.483%" x2="39.366%" y1="6.372%" y2="57.104%">
            <stop offset="0%" stop-color="#F5F5F9"/>
            <stop offset="30.912%" stop-color="#EFF1F8"/>
            <stop offset="100%" stop-color="#C6CBF0"/>
        </linearGradient>
        <linearGradient id="e" x1="10.677%" x2="50%" y1="70.469%" y2="100%">
            <stop offset="0%" stop-color="#5F64AA"/>
            <stop offset="100%" stop-color="#313471"/>
        </linearGradient>
        <path id="f" d="M0 .141h51.428L43.49 12.787 0 15.497z"/>
        <filter id="g" width="193.3%" height="412.6%" x="-46.7%" y="-156.3%" filterUnits="objectBoundingBox">
            <feGaussianBlur in="SourceGraphic" stdDeviation="8"/>
        </filter>
        <path id="i" d="M.36.798h51.428L43.85 13.445.36 16.154z"/>
        <filter id="j" width="193.3%" height="412.6%" x="-46.7%" y="-156.3%" filterUnits="objectBoundingBox">
            <feGaussianBlur in="SourceGraphic" stdDeviation="8"/>
        </filter>
        <path id="l" d="M91.36-21.202l64.353-30.353c-3.113 9.953-6.037 17.75-8.773 23.387-2.735 5.637-6.765 12.175-12.09 19.613L91.36-5.846v-15.356z"/>
        <filter id="m" width="204.2%" height="229.8%" x="-52.1%" y="-64.9%" filterUnits="objectBoundingBox">
            <feGaussianBlur in="SourceGraphic" stdDeviation="8"/>
        </filter>
        <filter id="o" width="132.4%" height="154.5%" x="-16.2%" y="-27.3%" filterUnits="objectBoundingBox">
            <feGaussianBlur in="SourceGraphic" stdDeviation="8"/>
        </filter>
        <circle id="p" cx="74" cy="74" r="74"/>
        <linearGradient id="t" x1="-5.351%" x2="76.681%" y1="49.466%" y2="53.088%">
            <stop offset="0%" stop-color="#F5F5F9"/>
            <stop offset="100%" stop-color="#888DB2"/>
        </linearGradient>
        <path id="r" d="M152.522 120.215c-18.292 35.573-62.002 49.605-97.63 31.34-35.627-18.264-49.68-61.908-31.387-97.482C41.797 18.5 85.507 4.47 121.135 22.733c35.626 18.264 49.68 61.909 31.387 97.482m98.914 30.514c-5.867-4.122-12.353-7.136-18.727-10.366-5.553-2.815-10.56-6.22-16.314-8.925-13.097-6.158-26.268-12.852-38.979-19.369a12.706 12.706 0 0 0-2.63-.995c1.77.455 3.07-26.163 2.92-28.55a88.57 88.57 0 0 0-6.245-27.519 88.253 88.253 0 0 0-15.072-24.699c-3.167-3.66-6.75-6.63-10.29-9.839-3.836-3.477-6.847-7.484-11.813-9.514C117.314 4.014 100.933-1.282 82.293.273c-17.9 1.494-35.252 8.4-49.092 19.864C20.626 30.552 13.47 42.984 7.185 57.729l-1.746 4.093c-6.835 16.028-5.063 37.317.305 53.637 5.686 17.288 16.747 32.619 31.427 43.412 7.932 5.833 16.715 12.704 26.87 13.818 9.675 1.061 18.592 3.705 28.511 3.365 19.127-.658 37.848-7.635 52.71-19.678a87.657 87.657 0 0 0 12.795-12.768c.708.591 1.49 1.116 2.343 1.553 2.698 0 8.489 4.14 10.964 5.448 4.186 2.211 8.14 4.95 12.264 7.288 10.254 5.813 21.151 10.016 31.51 15.326l14.258 7.31c1.343.689 2.748 1.317 4.054 2.075 4.916 2.857 10.188 3.28 15.918 3.353 1.872.024 3.81-.045 5.5-.85 1.555-.741 2.761-2.04 3.907-3.327 2.684-3.014 5.357-6.328 6.028-10.306.727-4.313-1.084-8.744-3.865-12.123-2.762-3.356-5.996-6.161-9.502-8.626"/>
        <filter id="s" width="122%" height="131.2%" x="-11%" y="-11.8%" filterUnits="objectBoundingBox">
            <feOffset dy="7" in="SourceAlpha" result="shadowOffsetOuter1"/>
            <feGaussianBlur in="shadowOffsetOuter1" result="shadowBlurOuter1" stdDeviation="8.5"/>
            <feColorMatrix in="shadowBlurOuter1" values="0 0 0 0 0 0 0 0 0 0 0 0 0 0 0 0 0 0 0.179036458 0"/>
        </filter>
        <path id="v" d="M6.078 8.425h98.533v72.4H6.078z"/>
    </defs>
    <g fill="none" fill-rule="evenodd">
        <path fill="#FFF" fill-rule="nonzero" d="M0 0h548v497H0z"/>
        <g transform="translate(27 55)">
            <mask id="b" fill="#fff">
                <use xlink:href="#a"/>
            </mask>
            <use fill="#F2F2FE" transform="matrix(-1 0 0 1 469.516 0)" xlink:href="#a"/>
            <path fill="#E4E5F8" d="M-9 328.822s70.903-71.264 189.323-37.45C298.743 325.187 368.465 296.196 353.76 117c0 0 166.444 23.28 145.104 141.831C472.966 402.704 138.686 457.607-9 328.822" mask="url(#b)" transform="matrix(-1 0 0 1 491.754 0)"/>
        </g>
        <g transform="matrix(-1 0 0 1 444 94)">
            <path fill="#FFF" d="M152.084 42.737l-1.122-3.218-1.122 3.218c-.944 2.714-3.192 5.006-6.233 6.36 3.04 1.353 5.29 3.643 6.233 6.36l1.122 3.218 1.122-3.218c.946-2.717 3.192-5.007 6.233-6.36-3.041-1.354-5.287-3.646-6.233-6.36"/>
            <path fill="#C7CCEA" d="M8.918 321.239l-.61-1.728-.61 1.728c-.512 1.457-1.734 2.688-3.386 3.415 1.652.726 2.874 1.956 3.387 3.414l.61 1.728.609-1.728c.514-1.458 1.734-2.688 3.386-3.414-1.652-.727-2.872-1.958-3.386-3.415M343.398 13.215l-.353-2.012-1.02 1.77c-.858 1.493-2.47 2.597-4.47 3.065 1.72 1.123 2.857 2.71 3.153 4.408l.353 2.012 1.02-1.77c.86-1.494 2.47-2.597 4.47-3.064-1.72-1.123-2.856-2.712-3.153-4.409M428.603 198.006l-.697-1.92-.696 1.92c-.586 1.62-1.983 2.986-3.87 3.794 1.887.807 3.284 2.173 3.87 3.794l.696 1.92.697-1.92c.587-1.62 1.982-2.987 3.87-3.794-1.888-.808-3.283-2.175-3.87-3.794"/>
            <path fill="#FFF" d="M354.331 216.108l-.361-2.22-1.097 1.963c-.925 1.655-2.645 2.887-4.778 3.418 1.823 1.227 3.018 2.974 3.32 4.848l.36 2.22 1.099-1.963c.925-1.657 2.646-2.89 4.778-3.42-1.822-1.228-3.018-2.975-3.32-4.846M6.48 89.64l-.742-2.123-.74 2.124c-.623 1.79-2.106 3.302-4.111 4.195 2.005.893 3.488 2.405 4.112 4.196l.739 2.125.741-2.125c.624-1.79 2.107-3.303 4.112-4.196-2.005-.893-3.488-2.405-4.112-4.195"/>
            <path fill="#E7AE88" d="M231.008 149.616l-.57.911c-1.525 2.44-4.349 3.58-7.011 3.098l-50.758-9.327a3.783 3.783 0 0 1-3.034-4.409 3.787 3.787 0 0 1 3.83-3.102l45.765 2.055-.019.106 18.404-40.616c2.497-5.45 8.93-7.843 14.367-5.348 5.436 2.497 7.822 8.942 5.326 14.394-.19.41-.435.859-.668 1.234l-25.632 41.004z"/>
            <path fill="#E7AE88" d="M193.514 137.581l-17.622-.364c-4.358 0-7.892 3.94-7.892 8.804h25.738l-.224-8.44z"/>
            <path fill="#826EF6" d="M227.314 108.657l26.593 11.7 8.935-24.016c2.4-6.456-1.114-13.614-7.757-15.802-5.589-1.84-11.7.443-14.613 5.461l-13.158 22.657z"/>
            <path fill="#5805FC" d="M275.4 75.866l-19.65.526c-7.91 1.974-15.839 6.303-17.161 14.36-2.665 16.233-2.166 62.954 2.369 85.511l54.323 1.926c5.76-32.663 7.994-64.784 7.994-64.784-.018-12.9-4.125-28.037-14.547-31.198L275.4 75.866z"/>
            <path fill="#ECB38C" d="M255.762 81.798l4.014-32.314 16.158.946-1.278 26.924c-.214 4.511-4.067 7.98-8.562 7.716-4.426-.26-10.543 1.167-10.332-3.272z"/>
            <path fill="#F1BD9A" d="M255.755 68.64l-.647-.028c-10.796-.483-19.15-9.643-18.662-20.462l1.067-23.631 39.744 1.775-1.068 23.631c-.49 10.818-9.637 19.196-20.434 18.715"/>
            <path fill="#F1BD9A" d="M271.709 47.838a6.529 6.529 0 0 0 6.16 6.88c3.598.194 6.675-2.57 6.87-6.177a6.529 6.529 0 0 0-6.16-6.88c-3.598-.193-6.674 2.571-6.87 6.177"/>
            <path fill="#FFF" d="M242.56 55.067l11.314-.404s-.313 4.84-6.434 4.645c-4.832-.154-4.88-4.241-4.88-4.241"/>
            <path fill="#F1BD9A" d="M263.76 155.183l-.568.924c-1.53 2.481-4.391 3.648-7.092 3.16l-47.043-10.386c-2.072-.38-2.75-3.238-2.37-5.315a3.823 3.823 0 0 1 3.86-3.134l40.58 4.034-.003.02 19.193-41.419c2.493-5.513 8.972-7.96 14.473-5.469 5.5 2.497 7.94 8.988 5.447 14.499-.188.415-.431.865-.662 1.243l-25.815 41.843z"/>
            <path fill="#826EF6" d="M260.015 113.88l26.568 11.828 9.017-24.481c2.424-6.577-1.07-13.854-7.709-16.061-5.586-1.857-11.707.488-14.639 5.606l-13.237 23.108z"/>
            <ellipse cx="401.709" cy="152.714" fill="url(#c)" fill-rule="nonzero" rx="5.709" ry="5.714"/>
            <circle cx="81" cy="311" r="13" fill="url(#c)" fill-rule="nonzero"/>
            <g>
                <path fill="url(#d)" d="M40.923 6.04c-7.701 0-14.787 2.74-20.466 7.372-5.692 4.632-9.966 11.143-12.027 18.658 0 0 16.004-11.516 44.052 0 0 0 4.82 7.113 7.004 19.074 1.098 5.966 1.541 13.137.403 21.197 6.668-4.834 11.638-12.148 13.767-20.71a38.709 38.709 0 0 0 1.125-9.321c0-20.035-15.147-36.27-33.858-36.27" transform="rotate(10 150.758 1302.208)"/>
                <path fill="#B6B8E2" d="M292.388 35.251c3.611.594 5.702 6.43 4.67 13.046a21.708 21.708 0 0 1-1.027 4.006c-1.636 4.466-4.572 7.374-7.4 6.914-2.831-.451-4.724-4.12-4.922-8.859-.056-1.322.02-2.731.25-4.177 1.042-6.625 4.81-11.516 8.43-10.93"/>
                <path fill="url(#e)" d="M57.654 70.786a33.67 33.67 0 0 1-5.398 3.197 31.941 31.941 0 0 1-16.549 2.881 31.009 31.009 0 0 1-5.37-.97c-4.781-1.294-9.151-3.68-12.878-6.888C9.755 62.351 4.82 52.163 4.82 40.743c0-3.561.479-6.992 1.367-10.234h.01s16-11.522 44.05 0c0 0 4.814 7.12 6.998 19.08 1.107 5.965 1.542 13.124.41 21.197" transform="rotate(10 140.72 1314.213)"/>
            </g>
            <g>
                <path fill="#393F5C" d="M240.86 172.456l-1.968 15.972 58.733 4.94-.978-25.923z"/>
                <path fill="#393F5C" d="M268.871 184.669l-23.163 70.315-3.77 82.378-12.585-.22-5.206-88.961 17.035-75.72z"/>
                <path fill="#393F5C" d="M297.38 189.45l2.39 70.67 11.904 79.559-13.321 1.655-26.513-81.202-7.526-71.26z"/>
                <path fill="#202E3B" d="M229.69 334.589l11.98.13.01 17.365-34.067-.366c.292-2.722 2.142-4.84 4.783-5.447l16.941-3.875.353-7.807z"/>
                <path fill="#C7CCEA" d="M241.66 352.312l-34.051-.336a3.036 3.036 0 0 0 3.005 3.07l27.966.279a3.05 3.05 0 0 0 3.08-3.013z"/>
                <path fill="#202E3B" d="M298.889 339.527l12.007-1.4 2.168 17.446-34.139 3.987c-.046-2.772 1.543-5.137 4.111-6.08l16.47-6.062-.617-7.891z"/>
                <path fill="#C7CCEA" d="M312.714 355.751l-33.789 3.568a2.51 2.51 0 0 0 2.755 2.187l28.886-3.048a2.421 2.421 0 0 0 2.148-2.707z"/>
            </g>
            <path fill="#A7A9CE" fill-rule="nonzero" d="M291.866 83.56c13.861-3.525 24.427 2.368 31.696 17.676 10.904 22.962 8.479 64.848-7.614 67.769-10.73 1.947-17.247 2.313-19.553 1.098 4.758-31.676 6.84-52.237 6.25-61.683-.592-9.446-4.185-17.733-10.78-24.86z"/>
            <ellipse cx="313.166" cy="152.599" fill="#E7E9F7" fill-rule="nonzero" rx="4.396" ry="6.047" transform="rotate(10 313.166 152.599)"/>
            <g fill-rule="nonzero" transform="rotate(-7 1026.703 -2470.45)">
                <ellipse cx="6.022" cy="7.395" fill="#E7E9F7" rx="4.396" ry="6.047"/>
                <ellipse cx="6.022" cy="7.395" fill="#826EF6" rx="2.198" ry="3.848"/>
            </g>
            <ellipse cx="313.166" cy="152.599" fill="#826EF6" fill-rule="nonzero" rx="2.198" ry="3.848" transform="rotate(10 313.166 152.599)"/>
            <path fill="#464769" fill-rule="nonzero" d="M299.756 82.764c.376 4.37 3.332 8.192 8.87 11.465 5.536 3.272 9.662 4.432 12.375 3.48-1.961-6.313-4.363-10.47-7.206-12.47s-7.522-2.825-14.039-2.475z"/>
            <path fill="#826EF6" fill-rule="nonzero" d="M304.887 82.973c1.627 2.635 2.964 4.365 4.012 5.191 6.258 4.932 10.864 5.607 10 3.442-1.241-3.11-1.05-4.19-7.762-8.151-1.091-.644-3.175-.805-6.25-.482z"/>
            <path fill-rule="nonzero" stroke="#B6B8E2" stroke-dasharray="2.2" stroke-width="7.7" d="M314.384 85.764c3.47-4.884 4.333-9.782 2.59-14.694-1.742-4.91-6.736-6.42-14.984-4.526-3.299 1.253-6.239 1.193-8.821-.18-2.582-1.372-4.125-2.33-4.628-2.871"/>
        </g>
        <path fill="#131321" d="M357.44 262.393l43.92 14.417v-42.515z"/>
        <path fill="#464769" d="M357.44 262.393l-16.696 4.402 45.862-27.657 14.753-4.843z"/>
        <path fill="#2A2A46" d="M467.781 253.06l-66.422-18.765v42.515l20.385 6.196z"/>
        <path fill="#464769" d="M467.781 253.06l-66.422-18.765 16.696-4.666 67.652 17.62z"/>
        <path fill="#F9647C" d="M299 274.257l33.64 10.766 17.307-10.274-33.639-10.767z"/>
        <path fill="#E73F46" d="M306.57 274.265h9.823V271.3h-9.824z"/>
        <g transform="translate(333 291.414)">
            <mask id="h" fill="#fff">
                <use xlink:href="#f"/>
            </mask>
            <path fill="#121212" d="M13.418.141l38.01 2.655-5.382 10.046L0 15.497z" filter="url(#g)" mask="url(#h)"/>
        </g>
        <path fill="#E73F46" d="M316.393 274.265c0 1.221-2.2 2.212-4.912 2.212-2.713 0-4.912-.99-4.912-2.212 0-1.222 2.199-2.212 4.912-2.212 2.712 0 4.912.99 4.912 2.212"/>
        <path fill="#F9647C" d="M316.393 271.3c0 1.223-2.2 2.213-4.912 2.213-2.713 0-4.912-.99-4.912-2.212 0-1.222 2.199-2.213 4.912-2.213 2.712 0 4.912.991 4.912 2.213"/>
        <path fill="#E73F46" d="M315.406 268.72h9.823v-2.964h-9.823z"/>
        <path fill="#E73F46" d="M325.23 268.72c0 1.221-2.2 2.212-4.912 2.212-2.713 0-4.912-.99-4.912-2.212 0-1.222 2.199-2.213 4.912-2.213 2.712 0 4.912.991 4.912 2.213"/>
        <path fill="#F9647C" d="M325.23 265.756c0 1.222-2.2 2.213-4.912 2.213-2.713 0-4.912-.991-4.912-2.213 0-1.221 2.199-2.212 4.912-2.212 2.712 0 4.912.99 4.912 2.212"/>
        <path fill="#E73F46" d="M324.523 280.156h9.823v-2.963h-9.823z"/>
        <path fill="#E73F46" d="M334.347 280.156c0 1.222-2.2 2.213-4.912 2.213-2.713 0-4.912-.99-4.912-2.213 0-1.22 2.199-2.212 4.912-2.212 2.712 0 4.912.991 4.912 2.212"/>
        <path fill="#F9647C" d="M334.347 277.193c0 1.222-2.2 2.213-4.912 2.213-2.713 0-4.912-.991-4.912-2.213s2.199-2.212 4.912-2.212c2.712 0 4.912.99 4.912 2.212"/>
        <path fill="#E73F46" d="M333.036 274.995h9.824v-2.963h-9.824z"/>
        <path fill="#E73F46" d="M342.86 274.995c0 1.222-2.199 2.213-4.911 2.213-2.713 0-4.912-.99-4.912-2.213 0-1.22 2.199-2.212 4.912-2.212 2.712 0 4.911.991 4.911 2.212"/>
        <path fill="#F9647C" d="M342.86 272.031c0 1.222-2.199 2.213-4.911 2.213-2.713 0-4.912-.99-4.912-2.213 0-1.221 2.199-2.212 4.912-2.212 2.712 0 4.911.99 4.911 2.212"/>
        <path fill="#32CDF6" d="M380.782 318.045l33.64-10.767-17.307-10.275-33.64 10.766z"/>
        <path fill="#0087BA" d="M397.03 307.286h9.824v-2.964h-9.823z"/>
        <path fill="#0087BA" d="M397.03 307.286c0 1.222 2.2 2.212 4.912 2.212 2.713 0 4.912-.99 4.912-2.212 0-1.221-2.199-2.212-4.912-2.212-2.712 0-4.912.99-4.912 2.212"/>
        <path fill="#32CDF6" d="M397.03 304.322c0 1.222 2.2 2.213 4.912 2.213 2.713 0 4.912-.991 4.912-2.213 0-1.221-2.199-2.212-4.912-2.212-2.712 0-4.912.99-4.912 2.212"/>
        <path fill="#0087BA" d="M388.194 301.741h9.823v-2.963h-9.823z"/>
        <path fill="#0087BA" d="M388.193 301.741c0 1.222 2.2 2.213 4.912 2.213 2.713 0 4.912-.99 4.912-2.213 0-1.22-2.199-2.212-4.912-2.212-2.712 0-4.912.991-4.912 2.212"/>
        <path fill="#32CDF6" d="M388.193 298.778c0 1.222 2.2 2.213 4.912 2.213 2.713 0 4.912-.991 4.912-2.213s-2.199-2.212-4.912-2.212c-2.712 0-4.912.99-4.912 2.212"/>
        <path fill="#0087BA" d="M379.076 313.178h9.824v-2.963h-9.824z"/>
        <path fill="#0087BA" d="M379.076 313.178c0 1.222 2.2 2.213 4.912 2.213 2.713 0 4.911-.99 4.911-2.213 0-1.222-2.198-2.212-4.911-2.212-2.713 0-4.912.99-4.912 2.212"/>
        <path fill="#32CDF6" d="M379.076 310.214c0 1.222 2.2 2.212 4.912 2.212 2.713 0 4.911-.99 4.911-2.212 0-1.221-2.198-2.212-4.911-2.212-2.713 0-4.912.99-4.912 2.212"/>
        <path fill="#0087BA" d="M370.562 308.017h9.824v-2.963h-9.824z"/>
        <path fill="#0087BA" d="M370.562 308.017c0 1.222 2.2 2.212 4.912 2.212 2.713 0 4.912-.99 4.912-2.212 0-1.222-2.199-2.213-4.912-2.213-2.712 0-4.912.991-4.912 2.213"/>
        <path fill="#32CDF6" d="M370.562 305.053c0 1.222 2.2 2.212 4.912 2.212 2.713 0 4.912-.99 4.912-2.212 0-1.222-2.199-2.213-4.912-2.213-2.712 0-4.912.991-4.912 2.213"/>
        <path fill="#E7D8DB" d="M399.473 282.222h9.823v-2.963h-9.823z"/>
        <path fill="#E7D8DB" d="M399.472 282.222c0 1.222 2.2 2.212 4.912 2.212 2.713 0 4.912-.99 4.912-2.212 0-1.222-2.199-2.213-4.912-2.213-2.712 0-4.912.991-4.912 2.213"/>
        <path fill="#FFF" d="M399.472 279.258c0 1.221 2.2 2.212 4.912 2.212 2.713 0 4.912-.99 4.912-2.212 0-1.222-2.199-2.213-4.912-2.213-2.712 0-4.912.991-4.912 2.213"/>
        <path fill="#E7D8DB" d="M390.636 276.678h9.824v-2.964h-9.824z"/>
        <path fill="#E7D8DB" d="M390.636 276.678c0 1.22 2.199 2.212 4.911 2.212 2.713 0 4.912-.991 4.912-2.212 0-1.222-2.199-2.213-4.912-2.213-2.712 0-4.911.99-4.911 2.213"/>
        <path fill="#FFF" d="M390.636 273.713c0 1.222 2.199 2.213 4.911 2.213 2.713 0 4.912-.99 4.912-2.213 0-1.22-2.199-2.212-4.912-2.212-2.712 0-4.911.991-4.911 2.212"/>
        <path fill="#25E7B9" d="M383.915 277.097l17.307 10.295v-21.52l-17.307-10.275z"/>
        <path fill="#00C697" d="M401.222 287.392c9.132-.917 15.962-2.1 20.49-3.548 4.528-1.449 8.911-3.853 13.15-7.214v-21.524l-33.64 10.766v21.52z"/>
        <path fill="#91DE5F" d="M401.222 265.872l33.64-10.766-17.307-10.275-33.64 10.765z"/>
        <path fill="#368800" d="M417.47 255.113h9.823v-2.963h-9.823z"/>
        <path fill="#368800" d="M417.47 255.113c0 1.222 2.2 2.213 4.912 2.213 2.713 0 4.912-.99 4.912-2.213 0-1.222-2.2-2.212-4.912-2.212-2.713 0-4.912.99-4.912 2.212"/>
        <path fill="#91DE5F" d="M417.47 252.15c0 1.222 2.2 2.212 4.912 2.212 2.713 0 4.912-.99 4.912-2.212 0-1.222-2.2-2.213-4.912-2.213-2.713 0-4.912.99-4.912 2.213"/>
        <path fill="#368800" d="M408.633 249.57h9.823v-2.964h-9.823z"/>
        <path fill="#368800" d="M408.633 249.57c0 1.221 2.2 2.211 4.912 2.211 2.713 0 4.911-.99 4.911-2.212 0-1.222-2.198-2.213-4.911-2.213-2.713 0-4.912.991-4.912 2.213"/>
        <path fill="#91DE5F" d="M408.633 246.605c0 1.222 2.2 2.212 4.912 2.212 2.713 0 4.911-.99 4.911-2.212 0-1.221-2.198-2.212-4.911-2.212-2.713 0-4.912.99-4.912 2.212"/>
        <path fill="#368800" d="M399.516 261.006h9.824v-2.965h-9.824z"/>
        <path fill="#368800" d="M399.516 261.006c0 1.221 2.2 2.212 4.911 2.212 2.714 0 4.912-.991 4.912-2.212 0-1.222-2.198-2.213-4.912-2.213-2.712 0-4.911.991-4.911 2.213"/>
        <path fill="#91DE5F" d="M399.516 258.041c0 1.222 2.2 2.213 4.911 2.213 2.714 0 4.912-.99 4.912-2.213 0-1.221-2.198-2.212-4.912-2.212-2.712 0-4.911.99-4.911 2.212"/>
        <path fill="#368800" d="M391.003 255.844h9.823v-2.964h-9.823z"/>
        <path fill="#368800" d="M391.002 255.845c0 1.22 2.2 2.212 4.912 2.212 2.713 0 4.912-.991 4.912-2.212 0-1.222-2.199-2.213-4.912-2.213-2.712 0-4.912.99-4.912 2.213"/>
        <path fill="#91DE5F" d="M391.002 252.88c0 1.222 2.2 2.213 4.912 2.213 2.713 0 4.912-.99 4.912-2.213 0-1.22-2.199-2.212-4.912-2.212-2.712 0-4.912.991-4.912 2.212"/>
        <path fill="#FBC337" d="M383.822 255.597l17.308 10.296v-21.52l-17.308-10.276z"/>
        <path fill="#FFA94D" d="M401.13 265.893l33.64-10.763v-21.524l-33.64 10.766z"/>
        <path fill="#FFD56D" d="M401.13 244.372l33.64-10.767-17.308-10.274-33.64 10.765z"/>
        <path fill="#E19500" d="M417.377 233.613h9.824v-2.963h-9.824z"/>
        <path fill="#E19500" d="M417.377 233.613c0 1.222 2.2 2.213 4.912 2.213 2.713 0 4.912-.991 4.912-2.213 0-1.221-2.199-2.212-4.912-2.212-2.712 0-4.912.99-4.912 2.212"/>
        <path fill="#FFD56D" d="M417.377 230.65c0 1.221 2.2 2.212 4.912 2.212 2.713 0 4.912-.99 4.912-2.213 0-1.222-2.199-2.212-4.912-2.212-2.712 0-4.912.99-4.912 2.212"/>
        <path fill="#E19500" d="M408.54 228.068h9.824v-2.963h-9.823z"/>
        <path fill="#E19500" d="M408.54 228.069c0 1.222 2.2 2.213 4.912 2.213 2.713 0 4.912-.991 4.912-2.213s-2.199-2.212-4.912-2.212c-2.712 0-4.912.99-4.912 2.212"/>
        <path fill="#FFD56D" d="M408.54 225.105c0 1.222 2.2 2.212 4.912 2.212 2.713 0 4.912-.99 4.912-2.212 0-1.222-2.199-2.213-4.912-2.213-2.712 0-4.912.991-4.912 2.213"/>
        <path fill="#E19500" d="M399.424 239.505h9.823v-2.963h-9.823z"/>
        <path fill="#E19500" d="M399.423 239.506c0 1.221 2.2 2.212 4.912 2.212 2.713 0 4.912-.99 4.912-2.212 0-1.222-2.199-2.213-4.912-2.213-2.712 0-4.912.99-4.912 2.213"/>
        <path fill="#FFD56D" d="M399.423 236.542c0 1.22 2.2 2.212 4.912 2.212 2.713 0 4.912-.991 4.912-2.212 0-1.222-2.199-2.213-4.912-2.213-2.712 0-4.912.99-4.912 2.213"/>
        <path fill="#E19500" d="M390.91 234.344h9.824v-2.963h-9.824z"/>
        <path fill="#E19500" d="M390.91 234.344c0 1.222 2.199 2.212 4.911 2.212 2.713 0 4.912-.99 4.912-2.212 0-1.222-2.199-2.213-4.912-2.213-2.712 0-4.911.991-4.911 2.213"/>
        <path fill="#FFD56D" d="M390.91 231.38c0 1.222 2.199 2.213 4.911 2.213 2.713 0 4.912-.991 4.912-2.212 0-1.222-2.199-2.213-4.912-2.213-2.712 0-4.911.99-4.911 2.213"/>
        <path fill="#F5535A" d="M383.773 234.153l17.306 10.296v-21.52l-17.306-10.275z"/>
        <path fill="#E73F46" d="M401.08 244.449l33.64-10.762v-21.525l-33.64 10.766z"/>
        <path fill="#F9647C" d="M401.08 222.928l33.64-10.767-17.307-10.274-33.64 10.766z"/>
        <path fill="#B6142E" d="M417.328 212.17h9.824v-2.964h-9.824z"/>
        <path fill="#B6142E" d="M417.328 212.17c0 1.222 2.2 2.212 4.912 2.212 2.713 0 4.911-.99 4.911-2.212 0-1.222-2.198-2.213-4.911-2.213-2.713 0-4.912.99-4.912 2.213"/>
        <path fill="#FF4B67" d="M417.328 209.206c0 1.221 2.2 2.212 4.912 2.212 2.713 0 4.911-.99 4.911-2.212 0-1.222-2.198-2.213-4.911-2.213-2.713 0-4.912.991-4.912 2.213"/>
        <path fill="#B6142E" d="M408.492 206.625h9.823v-2.964h-9.823z"/>
        <path fill="#B6142E" d="M408.491 206.625c0 1.222 2.2 2.212 4.912 2.212 2.713 0 4.912-.99 4.912-2.212 0-1.221-2.199-2.212-4.912-2.212-2.712 0-4.912.99-4.912 2.212"/>
        <path fill="#FF4B67" d="M408.491 203.661c0 1.222 2.2 2.213 4.912 2.213 2.713 0 4.912-.991 4.912-2.213s-2.199-2.212-4.912-2.212c-2.712 0-4.912.99-4.912 2.212"/>
        <path fill="#E73F46" d="M399.374 218.061h9.823v-2.963h-9.823z"/>
        <path fill="#E73F46" d="M399.373 218.062c0 1.221 2.2 2.212 4.912 2.212 2.713 0 4.912-.99 4.912-2.212 0-1.222-2.199-2.213-4.912-2.213-2.712 0-4.912.991-4.912 2.213"/>
        <path fill="#F9647C" d="M399.373 215.098c0 1.222 2.2 2.212 4.912 2.212 2.713 0 4.912-.99 4.912-2.212 0-1.222-2.199-2.213-4.912-2.213-2.712 0-4.912.99-4.912 2.213"/>
        <path fill="#E73F46" d="M390.86 212.9h9.824v-2.963h-9.824z"/>
        <path fill="#E73F46" d="M390.86 212.9c0 1.222 2.2 2.213 4.912 2.213 2.712 0 4.912-.99 4.912-2.213 0-1.222-2.2-2.212-4.912-2.212-2.712 0-4.912.99-4.912 2.212"/>
        <path fill="#F9647C" d="M390.86 209.937c0 1.222 2.2 2.212 4.912 2.212 2.712 0 4.912-.99 4.912-2.212 0-1.222-2.2-2.213-4.912-2.213-2.712 0-4.912.99-4.912 2.213"/>
        <path fill="#FBEDEF" d="M399.373 207.755l17.308 10.296v-21.52l-17.308-10.276z"/>
        <path fill="#E7D8DB" d="M416.68 218.05l33.64-10.762v-21.524l-33.64 10.766z"/>
        <path fill="#FFF" d="M416.68 196.53l33.64-10.767-17.307-10.274-33.64 10.766z"/>
        <path fill="#E7D8DB" d="M432.929 185.771h9.823v-2.964h-9.823z"/>
        <path fill="#E7D8DB" d="M432.929 185.771c0 1.222 2.199 2.213 4.911 2.213 2.713 0 4.912-.99 4.912-2.213 0-1.221-2.199-2.212-4.912-2.212-2.712 0-4.911.99-4.911 2.212"/>
        <path fill="#FFF" d="M432.929 182.807c0 1.222 2.199 2.213 4.911 2.213 2.713 0 4.912-.99 4.912-2.213 0-1.222-2.199-2.213-4.912-2.213-2.712 0-4.911.991-4.911 2.213"/>
        <path fill="#E7D8DB" d="M424.092 180.227h9.823v-2.963h-9.823z"/>
        <path fill="#E7D8DB" d="M424.091 180.227c0 1.222 2.2 2.213 4.912 2.213 2.713 0 4.912-.991 4.912-2.213s-2.199-2.213-4.912-2.213c-2.712 0-4.912.99-4.912 2.213"/>
        <path fill="#FFF" d="M424.091 177.263c0 1.222 2.2 2.213 4.912 2.213 2.713 0 4.912-.991 4.912-2.213s-2.199-2.213-4.912-2.213c-2.712 0-4.912.991-4.912 2.213"/>
        <path fill="#E7D8DB" d="M414.975 191.663h9.823V188.7h-9.823z"/>
        <path fill="#E7D8DB" d="M414.974 191.664c0 1.221 2.2 2.212 4.912 2.212 2.713 0 4.912-.99 4.912-2.212 0-1.222-2.199-2.213-4.912-2.213-2.712 0-4.912.99-4.912 2.213"/>
        <path fill="#FFF" d="M414.974 188.7c0 1.221 2.2 2.212 4.912 2.212 2.713 0 4.912-.99 4.912-2.213 0-1.221-2.199-2.212-4.912-2.212-2.712 0-4.912.99-4.912 2.212"/>
        <path fill="#E7D8DB" d="M406.461 186.502h9.824v-2.964h-9.824z"/>
        <path fill="#E7D8DB" d="M406.46 186.502c0 1.222 2.2 2.213 4.912 2.213 2.714 0 4.912-.99 4.912-2.213 0-1.222-2.198-2.212-4.912-2.212-2.712 0-4.911.99-4.911 2.212"/>
        <path fill="#FFF" d="M406.46 183.538c0 1.222 2.2 2.213 4.912 2.213 2.714 0 4.912-.99 4.912-2.213 0-1.222-2.198-2.213-4.912-2.213-2.712 0-4.911.991-4.911 2.213"/>
        <path fill="#368800" d="M381.981 191.8l17.307 10.295v-21.52l-17.307-10.276z"/>
        <path fill="#00C697" d="M399.288 202.094l33.64-10.761v-21.524l-33.64 10.765z"/>
        <path fill="#1DDEB0" d="M399.288 180.574l33.64-10.766-17.307-10.275-33.64 10.766z"/>
        <path fill="#368800" d="M415.536 169.816h9.823v-2.964h-9.823z"/>
        <path fill="#368800" d="M415.536 169.816c0 1.222 2.2 2.213 4.912 2.213 2.712 0 4.912-.991 4.912-2.213s-2.2-2.213-4.912-2.213c-2.712 0-4.912.99-4.912 2.213"/>
        <path fill="#91DE5F" d="M415.536 166.852c0 1.222 2.2 2.213 4.912 2.213 2.712 0 4.912-.991 4.912-2.213s-2.2-2.213-4.912-2.213c-2.712 0-4.912.991-4.912 2.213"/>
        <path fill="#368800" d="M406.7 164.272h9.823v-2.965h-9.824z"/>
        <path fill="#368800" d="M406.7 164.271c0 1.222 2.199 2.213 4.91 2.213 2.714 0 4.913-.99 4.913-2.213 0-1.221-2.199-2.212-4.912-2.212-2.712 0-4.912.99-4.912 2.212"/>
        <path fill="#91DE5F" d="M406.7 161.307c0 1.222 2.199 2.213 4.91 2.213 2.714 0 4.913-.99 4.913-2.213 0-1.222-2.199-2.213-4.912-2.213-2.712 0-4.912.991-4.912 2.213"/>
        <path fill="#368800" d="M397.581 175.708h9.824v-2.964h-9.824z"/>
        <path fill="#368800" d="M397.582 175.708c0 1.222 2.2 2.213 4.912 2.213 2.712 0 4.911-.991 4.911-2.213s-2.2-2.213-4.911-2.213c-2.713 0-4.912.99-4.912 2.213"/>
        <path fill="#91DE5F" d="M397.582 172.744c0 1.222 2.2 2.213 4.912 2.213 2.712 0 4.911-.991 4.911-2.213s-2.2-2.213-4.911-2.213c-2.713 0-4.912.99-4.912 2.213"/>
        <path fill="#368800" d="M389.069 170.547h9.823v-2.964h-9.823z"/>
        <path fill="#368800" d="M389.068 170.547c0 1.222 2.2 2.212 4.912 2.212 2.713 0 4.912-.99 4.912-2.212 0-1.222-2.199-2.213-4.912-2.213-2.712 0-4.912.99-4.912 2.213"/>
        <path fill="#91DE5F" d="M389.068 167.583c0 1.221 2.2 2.212 4.912 2.212 2.713 0 4.912-.99 4.912-2.212 0-1.222-2.199-2.213-4.912-2.213-2.712 0-4.912.99-4.912 2.213"/>
        <path fill="#FFBC25" d="M348.426 202.59l17.307 10.295v-21.52l-17.307-10.276z"/>
        <path fill="#E19500" d="M365.733 212.885l33.64-10.762v-21.524l-33.64 10.766z"/>
        <path fill="#FFD56D" d="M365.733 191.365l33.64-10.767-17.307-10.275-33.64 10.766z"/>
        <path fill="#E19500" d="M381.981 180.606h9.824v-2.964h-9.824z"/>
        <path fill="#E19500" d="M381.981 180.606c0 1.222 2.2 2.213 4.912 2.213 2.713 0 4.912-.991 4.912-2.213s-2.199-2.212-4.912-2.212c-2.712 0-4.912.99-4.912 2.212"/>
        <path fill="#FFD56D" d="M381.981 177.642c0 1.222 2.2 2.213 4.912 2.213 2.713 0 4.912-.991 4.912-2.213s-2.199-2.213-4.912-2.213c-2.712 0-4.912.991-4.912 2.213"/>
        <path fill="#E19500" d="M373.144 175.062h9.824v-2.965h-9.824z"/>
        <path fill="#E19500" d="M373.144 175.061c0 1.222 2.2 2.213 4.912 2.213 2.713 0 4.912-.99 4.912-2.213 0-1.221-2.199-2.212-4.912-2.212-2.712 0-4.912.99-4.912 2.212"/>
        <path fill="#FFD56D" d="M373.144 172.097c0 1.222 2.2 2.213 4.912 2.213 2.713 0 4.912-.99 4.912-2.213 0-1.222-2.199-2.213-4.912-2.213-2.712 0-4.912.991-4.912 2.213"/>
        <path fill="#E19500" d="M364.027 186.498h9.823v-2.964h-9.823z"/>
        <path fill="#E19500" d="M364.027 186.498c0 1.222 2.2 2.213 4.912 2.213 2.713 0 4.911-.991 4.911-2.213s-2.198-2.213-4.911-2.213c-2.713 0-4.912.99-4.912 2.213"/>
        <path fill="#FFD56D" d="M364.027 183.534c0 1.222 2.2 2.213 4.912 2.213 2.713 0 4.911-.991 4.911-2.213s-2.198-2.213-4.911-2.213c-2.713 0-4.912.991-4.912 2.213"/>
        <path fill="#E19500" d="M355.513 181.337h9.824v-2.964h-9.824z"/>
        <path fill="#E19500" d="M355.513 181.337c0 1.222 2.2 2.212 4.912 2.212 2.713 0 4.912-.99 4.912-2.212 0-1.222-2.199-2.213-4.912-2.213-2.712 0-4.912.99-4.912 2.213"/>
        <path fill="#FFD56D" d="M355.513 178.373c0 1.222 2.2 2.212 4.912 2.212 2.713 0 4.912-.99 4.912-2.212 0-1.222-2.199-2.213-4.912-2.213-2.712 0-4.912.991-4.912 2.213"/>
        <path fill="#00A3D6" d="M362.839 176.554l17.307 10.296v-21.52l-17.307-10.276z"/>
        <path fill="#0087BA" d="M380.146 186.85l33.64-10.762v-21.525l-33.64 10.766z"/>
        <path fill="#32CDF6" d="M380.146 165.33l33.64-10.767-17.307-10.276-33.64 10.767z"/>
        <path fill="#0087BA" d="M396.394 154.57h9.824v-2.963h-9.824z"/>
        <path fill="#0087BA" d="M396.394 154.57c0 1.223 2.2 2.213 4.912 2.213 2.713 0 4.911-.99 4.911-2.212 0-1.222-2.198-2.213-4.911-2.213-2.713 0-4.912.99-4.912 2.213"/>
        <path fill="#32CDF6" d="M396.394 151.607c0 1.222 2.2 2.213 4.912 2.213 2.713 0 4.911-.991 4.911-2.213s-2.198-2.213-4.911-2.213c-2.713 0-4.912.991-4.912 2.213"/>
        <path fill="#0087BA" d="M387.557 149.025h9.824v-2.963h-9.824z"/>
        <path fill="#0087BA" d="M387.557 149.026c0 1.222 2.2 2.213 4.911 2.213 2.714 0 4.912-.991 4.912-2.213s-2.198-2.212-4.912-2.212c-2.712 0-4.911.99-4.911 2.212"/>
        <path fill="#32CDF6" d="M387.557 146.062c0 1.222 2.2 2.213 4.911 2.213 2.714 0 4.912-.99 4.912-2.213 0-1.222-2.198-2.213-4.912-2.213-2.712 0-4.911.991-4.911 2.213"/>
        <path fill="#0087BA" d="M378.44 160.463h9.823v-2.965h-9.823z"/>
        <path fill="#0087BA" d="M378.44 160.463c0 1.222 2.199 2.213 4.911 2.213 2.713 0 4.912-.991 4.912-2.213s-2.199-2.213-4.912-2.213c-2.712 0-4.912.99-4.912 2.213"/>
        <path fill="#32CDF6" d="M378.44 157.499c0 1.222 2.199 2.212 4.911 2.212 2.713 0 4.912-.99 4.912-2.212 0-1.222-2.199-2.213-4.912-2.213-2.712 0-4.912.99-4.912 2.213"/>
        <path fill="#0087BA" d="M369.926 155.301h9.824v-2.964h-9.824z"/>
        <path fill="#0087BA" d="M369.926 155.302c0 1.221 2.2 2.212 4.912 2.212 2.713 0 4.911-.99 4.911-2.212 0-1.222-2.198-2.213-4.911-2.213-2.713 0-4.912.99-4.912 2.213"/>
        <path fill="#32CDF6" d="M369.926 152.337c0 1.222 2.2 2.213 4.912 2.213 2.713 0 4.911-.99 4.911-2.213 0-1.221-2.198-2.212-4.911-2.212-2.713 0-4.912.99-4.912 2.212"/>
        <path fill="#CC232A" d="M349.948 296.248l-17.308 10.295v-21.52l17.308-10.275z"/>
        <path fill="#E73F46" d="M299 295.781l33.64 10.762v-21.52L299 274.258z"/>
        <g>
            <g transform="translate(330 344.555)">
                <mask id="k" fill="#fff">
                    <use xlink:href="#i"/>
                </mask>
                <path fill="#121212" d="M13.779.798l38.01 2.655L46.406 13.5.36 16.154z" filter="url(#j)" mask="url(#k)"/>
                <mask id="n" fill="#fff">
                    <use xlink:href="#l"/>
                </mask>
                <path fill="#121212" d="M104.779-21.202l32.628-21.612-4.362 21.612L91.36-5.846z" filter="url(#m)" mask="url(#n)"/>
            </g>
            <path fill="#25E7B9" d="M314 350.916l16.36 9.793v-20.47L314 330.465z"/>
            <path fill="#00C697" d="M330.36 340.24v20.47l31.801-10.238v-20.474z"/>
            <path fill="#2FF7C8" d="M314 330.465l16.36 9.774 31.802-10.241-16.362-9.773z"/>
            <path fill="#00C697" d="M345.72 330.006h9.287v-2.82h-9.286z"/>
            <path fill="#00C697" d="M345.72 330.006c0 1.161 2.08 2.104 4.643 2.104 2.565 0 4.644-.943 4.644-2.104 0-1.162-2.079-2.105-4.644-2.105-2.564 0-4.643.943-4.643 2.105"/>
            <path fill="#2FF7C8" d="M345.72 327.186c0 1.162 2.08 2.105 4.643 2.105 2.565 0 4.644-.943 4.644-2.105 0-1.161-2.079-2.104-4.644-2.104-2.564 0-4.643.943-4.643 2.104"/>
            <path fill="#00C697" d="M337.366 324.731h9.287v-2.818h-9.287z"/>
            <path fill="#00C697" d="M337.366 324.731c0 1.163 2.08 2.105 4.644 2.105s4.643-.942 4.643-2.105c0-1.161-2.079-2.104-4.643-2.104-2.564 0-4.644.943-4.644 2.104"/>
            <path fill="#2FF7C8" d="M337.366 321.912c0 1.163 2.08 2.105 4.644 2.105s4.643-.942 4.643-2.105c0-1.162-2.079-2.104-4.643-2.104-2.564 0-4.644.942-4.644 2.104"/>
            <path fill="#00C697" d="M328.748 335.61h9.286v-2.819h-9.286z"/>
            <path fill="#00C697" d="M328.748 335.61c0 1.162 2.079 2.105 4.643 2.105 2.565 0 4.643-.943 4.643-2.105s-2.078-2.104-4.643-2.104c-2.564 0-4.643.942-4.643 2.104"/>
            <path fill="#2FF7C8" d="M328.748 332.791c0 1.161 2.079 2.104 4.643 2.104 2.565 0 4.643-.943 4.643-2.104 0-1.162-2.078-2.105-4.643-2.105-2.564 0-4.643.943-4.643 2.105"/>
            <path fill="#00C697" d="M320.7 330.701h9.286v-2.819H320.7z"/>
            <path fill="#00C697" d="M320.7 330.7c0 1.163 2.079 2.105 4.643 2.105 2.565 0 4.643-.942 4.643-2.104 0-1.162-2.078-2.105-4.643-2.105-2.564 0-4.643.943-4.643 2.105"/>
            <path fill="#2FF7C8" d="M320.7 327.882c0 1.162 2.079 2.104 4.643 2.104 2.565 0 4.643-.942 4.643-2.104 0-1.162-2.078-2.105-4.643-2.105-2.564 0-4.643.943-4.643 2.105"/>
        </g>
        <g filter="url(#o)" transform="translate(341.713 251.955)">
            <path fill="#2A2A46" d="M80 30.265v57.251l46.037-36.637V.319z"/>
            <path fill="#07070D" d="M125.51 36.78l.527-34.26-.56-1.838L80 30.265v1.585l14.413 27.657z" opacity=".5"/>
            <path fill="#464769" d="M15.696 9.652v54.62l64.303 23.244V30.265z"/>
            <path fill="#2A2A46" d="M80 31.85v-1.585l-22.602-7.241-39.33-7.286-2.372 3.687v23.838l51.438 19.678z" opacity=".48"/>
            <path fill="#464769" d="M80 30.265l21.964 24.664 45.687-36.638L126.037.32zM15.696 9.652L.054 33.963l64.71 23.431 15.235-27.129z"/>
        </g>
        <g transform="translate(281 69)">
            <mask id="q" fill="#fff">
                <use xlink:href="#p"/>
            </mask>
            <use fill="#F2F2FE" fill-rule="nonzero" xlink:href="#p"/>
            <g mask="url(#q)">
                <path fill="#FFD56D" d="M90.114 166.26l47.635-15.217-24.507-14.52-47.635 15.214z"/>
                <path fill="#E19500" d="M113.122 151.054h13.91v-4.188h-13.91z"/>
                <path fill="#E19500" d="M113.122 151.054c0 1.727 3.114 3.127 6.955 3.127 3.842 0 6.955-1.4 6.955-3.127 0-1.726-3.113-3.126-6.955-3.126-3.84 0-6.955 1.4-6.955 3.126"/>
                <path fill="#FFD56D" d="M113.122 146.866c0 1.727 3.114 3.127 6.955 3.127 3.842 0 6.955-1.4 6.955-3.127 0-1.727-3.113-3.126-6.955-3.126-3.84 0-6.955 1.399-6.955 3.126"/>
                <path fill="#E19500" d="M100.609 143.218h13.91v-4.188h-13.91z"/>
                <path fill="#E19500" d="M100.608 143.219c0 1.727 3.115 3.127 6.956 3.127s6.955-1.4 6.955-3.127c0-1.727-3.114-3.126-6.955-3.126s-6.956 1.4-6.956 3.126"/>
                <path fill="#FFD56D" d="M100.608 139.03c0 1.727 3.115 3.127 6.956 3.127s6.955-1.4 6.955-3.126c0-1.727-3.114-3.128-6.955-3.128s-6.956 1.4-6.956 3.128"/>
                <path fill="#E19500" d="M87.699 159.381h13.91v-4.188H87.7z"/>
                <path fill="#E19500" d="M87.698 159.381c0 1.727 3.114 3.126 6.955 3.126 3.842 0 6.955-1.399 6.955-3.126 0-1.726-3.113-3.127-6.955-3.127-3.84 0-6.955 1.4-6.955 3.127"/>
                <path fill="#FFD56D" d="M87.698 155.193c0 1.726 3.114 3.126 6.955 3.126 3.842 0 6.955-1.4 6.955-3.126 0-1.727-3.113-3.127-6.955-3.127-3.84 0-6.955 1.4-6.955 3.127"/>
                <path fill="#E19500" d="M75.644 152.088h13.91V147.9h-13.91z"/>
                <path fill="#E19500" d="M75.643 152.088c0 1.726 3.114 3.126 6.955 3.126 3.842 0 6.955-1.4 6.955-3.126 0-1.727-3.113-3.128-6.955-3.128-3.84 0-6.955 1.4-6.955 3.128"/>
                <path fill="#FFD56D" d="M75.643 147.9c0 1.725 3.114 3.125 6.955 3.125 3.842 0 6.955-1.4 6.955-3.126s-3.113-3.127-6.955-3.127c-3.84 0-6.955 1.4-6.955 3.127"/>
                <path fill="#F5535A" d="M65.537 151.817l24.506 14.55v-30.413l-24.506-14.52z"/>
                <path fill="#E73F46" d="M90.044 166.367l47.636-15.209V120.74l-47.636 15.215z"/>
                <path fill="#F9647C" d="M90.044 135.954l47.636-15.216-24.508-14.52-47.634 15.215z"/>
                <path fill="#B6142E" d="M113.052 120.75h13.91v-4.187h-13.91z"/>
                <path fill="#B6142E" d="M113.052 120.75c0 1.727 3.114 3.127 6.955 3.127 3.842 0 6.955-1.4 6.955-3.126 0-1.727-3.113-3.128-6.955-3.128-3.84 0-6.955 1.4-6.955 3.128"/>
                <path fill="#FF4B67" d="M113.052 116.562c0 1.726 3.114 3.126 6.955 3.126 3.842 0 6.955-1.4 6.955-3.126 0-1.727-3.113-3.127-6.955-3.127-3.84 0-6.955 1.4-6.955 3.127"/>
                <path fill="#B6142E" d="M100.54 112.915h13.91v-4.19h-13.91z"/>
                <path fill="#B6142E" d="M100.539 112.915c0 1.726 3.114 3.126 6.955 3.126 3.842 0 6.955-1.4 6.955-3.126s-3.113-3.127-6.955-3.127c-3.84 0-6.955 1.4-6.955 3.127"/>
                <path fill="#FF4B67" d="M100.539 108.726c0 1.727 3.114 3.127 6.955 3.127 3.842 0 6.955-1.4 6.955-3.127 0-1.727-3.113-3.126-6.955-3.126-3.84 0-6.955 1.4-6.955 3.126"/>
                <path fill="#E73F46" d="M87.628 129.076h13.91v-4.188h-13.91z"/>
                <path fill="#E73F46" d="M87.628 129.077c0 1.727 3.114 3.127 6.955 3.127 3.842 0 6.955-1.4 6.955-3.127 0-1.726-3.113-3.126-6.955-3.126-3.84 0-6.955 1.4-6.955 3.126"/>
                <path fill="#F9647C" d="M87.628 124.888c0 1.727 3.114 3.126 6.955 3.126 3.842 0 6.955-1.399 6.955-3.126 0-1.726-3.113-3.127-6.955-3.127-3.84 0-6.955 1.4-6.955 3.127"/>
                <path fill="#E73F46" d="M75.573 121.783h13.91v-4.188h-13.91z"/>
                <path fill="#E73F46" d="M75.573 121.783c0 1.727 3.114 3.127 6.955 3.127 3.84 0 6.955-1.4 6.955-3.127 0-1.727-3.114-3.126-6.955-3.126-3.84 0-6.955 1.4-6.955 3.126"/>
                <path fill="#F9647C" d="M75.573 117.595c0 1.726 3.114 3.126 6.955 3.126 3.84 0 6.955-1.4 6.955-3.126 0-1.727-3.114-3.128-6.955-3.128-3.84 0-6.955 1.4-6.955 3.128"/>
                <path fill="#FBEDEF" d="M87.628 114.512l24.507 14.55V98.649L87.628 84.128z"/>
                <path fill="#E7D8DB" d="M112.135 129.062l47.635-15.21V83.434l-47.635 15.215z"/>
                <path fill="#FFF" d="M112.135 98.649l47.635-15.216-24.507-14.52-47.636 15.215z"/>
                <path fill="#E7D8DB" d="M135.143 83.444h13.91v-4.19h-13.91z"/>
                <path fill="#E7D8DB" d="M135.143 83.444c0 1.727 3.114 3.128 6.955 3.128 3.842 0 6.955-1.4 6.955-3.128 0-1.726-3.113-3.127-6.955-3.127-3.84 0-6.955 1.4-6.955 3.127"/>
                <path fill="#FFF" d="M135.143 79.256c0 1.726 3.114 3.127 6.955 3.127 3.842 0 6.955-1.4 6.955-3.127 0-1.727-3.113-3.128-6.955-3.128-3.84 0-6.955 1.4-6.955 3.128"/>
                <path fill="#E7D8DB" d="M122.63 75.61h13.91V71.42h-13.91z"/>
                <path fill="#E7D8DB" d="M122.63 75.609c0 1.727 3.114 3.127 6.954 3.127 3.842 0 6.955-1.4 6.955-3.127 0-1.727-3.113-3.127-6.955-3.127-3.84 0-6.955 1.4-6.955 3.127"/>
                <path fill="#FFF" d="M122.63 71.42c0 1.727 3.114 3.128 6.954 3.128 3.842 0 6.955-1.4 6.955-3.128 0-1.726-3.113-3.127-6.955-3.127-3.84 0-6.955 1.4-6.955 3.127"/>
                <path fill="#E7D8DB" d="M109.72 91.77h13.91v-4.188h-13.91z"/>
                <path fill="#E7D8DB" d="M109.719 91.771c0 1.727 3.114 3.127 6.955 3.127 3.842 0 6.955-1.4 6.955-3.127 0-1.727-3.113-3.127-6.955-3.127-3.84 0-6.955 1.4-6.955 3.127"/>
                <path fill="#FFF" d="M109.719 87.582c0 1.727 3.114 3.128 6.955 3.128 3.842 0 6.955-1.4 6.955-3.128 0-1.726-3.113-3.127-6.955-3.127-3.84 0-6.955 1.4-6.955 3.127"/>
                <path fill="#E7D8DB" d="M97.664 84.477h13.91v-4.189h-13.91z"/>
                <path fill="#E7D8DB" d="M97.663 84.477c0 1.727 3.115 3.128 6.956 3.128s6.955-1.4 6.955-3.128c0-1.726-3.114-3.127-6.955-3.127s-6.956 1.4-6.956 3.127"/>
                <path fill="#FFF" d="M97.663 80.289c0 1.726 3.115 3.127 6.956 3.127s6.955-1.4 6.955-3.127c0-1.727-3.114-3.128-6.955-3.128s-6.956 1.4-6.956 3.128"/>
                <path fill="#368800" d="M63 91.963l24.507 14.55V76.1L63 61.579z"/>
                <path fill="#00C697" d="M87.507 106.512l47.635-15.209V60.886L87.507 76.099z"/>
                <path fill="#1DDEB0" d="M87.507 76.1l47.635-15.215-24.507-14.521-47.636 15.215z"/>
                <path fill="#00C697" d="M110.514 60.896h13.91v-4.188h-13.91z"/>
                <path fill="#00C697" d="M110.515 60.896c0 1.727 3.114 3.127 6.955 3.127 3.84 0 6.955-1.4 6.955-3.127 0-1.727-3.114-3.127-6.955-3.127-3.84 0-6.955 1.4-6.955 3.127"/>
                <path fill="#1DDEB0" d="M110.515 56.708c0 1.726 3.114 3.127 6.955 3.127 3.84 0 6.955-1.4 6.955-3.127 0-1.727-3.114-3.128-6.955-3.128-3.84 0-6.955 1.4-6.955 3.128"/>
                <path fill="#00C697" d="M98.001 53.061h13.91v-4.189h-13.91z"/>
                <path fill="#00C697" d="M98.001 53.06c0 1.728 3.114 3.128 6.955 3.128 3.842 0 6.955-1.4 6.955-3.127 0-1.727-3.113-3.127-6.955-3.127-3.84 0-6.955 1.4-6.955 3.127"/>
                <path fill="#1DDEB0" d="M98.001 48.872c0 1.727 3.114 3.127 6.955 3.127 3.842 0 6.955-1.4 6.955-3.127 0-1.727-3.113-3.127-6.955-3.127-3.84 0-6.955 1.4-6.955 3.127"/>
                <path fill="#368800" d="M85.09 69.223H99v-4.19H85.09z"/>
                <path fill="#368800" d="M85.09 69.223c0 1.726 3.115 3.127 6.956 3.127 3.84 0 6.955-1.4 6.955-3.127 0-1.727-3.114-3.128-6.955-3.128-3.84 0-6.955 1.4-6.955 3.128"/>
                <path fill="#91DE5F" d="M85.09 65.034c0 1.727 3.115 3.127 6.956 3.127 3.84 0 6.955-1.4 6.955-3.127 0-1.727-3.114-3.127-6.955-3.127-3.84 0-6.955 1.4-6.955 3.127"/>
                <path fill="#368800" d="M73.036 61.93h13.91v-4.19h-13.91z"/>
                <path fill="#368800" d="M73.035 61.929c0 1.727 3.115 3.127 6.955 3.127 3.842 0 6.956-1.4 6.956-3.127 0-1.727-3.114-3.127-6.956-3.127-3.84 0-6.955 1.4-6.955 3.127"/>
                <path fill="#91DE5F" d="M73.035 57.74c0 1.727 3.115 3.127 6.955 3.127 3.842 0 6.956-1.4 6.956-3.127 0-1.727-3.114-3.127-6.956-3.127-3.84 0-6.955 1.4-6.955 3.127"/>
                <path fill="#FBC337" d="M15.485 107.212l24.507 14.549V91.349L15.485 76.828z"/>
                <path fill="#FFA94D" d="M39.992 121.76l47.635-15.208V76.134L39.992 91.35z"/>
                <path fill="#FFD56D" d="M39.992 91.349l47.635-15.215L63.12 61.613 15.484 76.828z"/>
                <path fill="#E19500" d="M63 76.144h13.91v-4.188H63z"/>
                <path fill="#E19500" d="M63 76.144c0 1.727 3.114 3.127 6.955 3.127 3.842 0 6.955-1.4 6.955-3.127 0-1.727-3.113-3.126-6.955-3.126-3.84 0-6.955 1.4-6.955 3.126"/>
                <path fill="#FFD56D" d="M63 71.956c0 1.727 3.114 3.127 6.955 3.127 3.842 0 6.955-1.4 6.955-3.127 0-1.727-3.113-3.127-6.955-3.127-3.84 0-6.955 1.4-6.955 3.127"/>
                <path fill="#E19500" d="M50.487 68.31h13.91v-4.19h-13.91z"/>
                <path fill="#E19500" d="M50.486 68.31c0 1.726 3.115 3.126 6.955 3.126 3.842 0 6.955-1.4 6.955-3.127 0-1.727-3.113-3.127-6.955-3.127-3.84 0-6.955 1.4-6.955 3.127"/>
                <path fill="#FFD56D" d="M50.486 64.12c0 1.727 3.115 3.127 6.955 3.127 3.842 0 6.955-1.4 6.955-3.127 0-1.727-3.113-3.127-6.955-3.127-3.84 0-6.955 1.4-6.955 3.127"/>
                <path fill="#FFA94D" d="M37.576 84.471h13.91v-4.188h-13.91z"/>
                <path fill="#FFA94D" d="M37.576 84.471c0 1.727 3.114 3.127 6.955 3.127 3.842 0 6.955-1.4 6.955-3.127 0-1.727-3.113-3.127-6.955-3.127-3.84 0-6.955 1.4-6.955 3.127"/>
                <path fill="#FFD56D" d="M37.576 80.283c0 1.727 3.114 3.127 6.955 3.127 3.842 0 6.955-1.4 6.955-3.127 0-1.727-3.113-3.127-6.955-3.127-3.84 0-6.955 1.4-6.955 3.127"/>
                <path fill="#FFA94D" d="M25.52 77.178h13.91V72.99H25.52z"/>
                <path fill="#FFA94D" d="M25.52 77.177c0 1.727 3.115 3.127 6.955 3.127 3.842 0 6.956-1.4 6.956-3.127 0-1.727-3.114-3.127-6.956-3.127-3.84 0-6.955 1.4-6.955 3.127"/>
                <path fill="#FFD56D" d="M25.52 72.989c0 1.727 3.115 3.126 6.955 3.126 3.842 0 6.956-1.4 6.956-3.126 0-1.727-3.114-3.127-6.956-3.127-3.84 0-6.955 1.4-6.955 3.127"/>
                <path fill="#8471F4" d="M35.893 70.418l24.508 14.55V54.556L35.893 40.034z"/>
                <path fill="#5C0CFA" d="M60.4 84.968l47.636-15.208V39.34L60.4 54.557z"/>
                <path fill="#9E8DFF" d="M60.4 54.555l47.636-15.214-24.507-14.522-47.636 15.215z"/>
                <path fill="#5C0CFA" d="M83.409 39.351h13.91v-4.188H83.41z"/>
                <path fill="#5C0CFA" d="M83.408 39.352c0 1.726 3.115 3.127 6.956 3.127s6.955-1.4 6.955-3.127c0-1.727-3.114-3.128-6.955-3.128s-6.956 1.4-6.956 3.128"/>
                <path fill="#9E8DFF" d="M83.408 35.163c0 1.727 3.115 3.127 6.956 3.127s6.955-1.4 6.955-3.127c0-1.727-3.114-3.127-6.955-3.127s-6.956 1.4-6.956 3.127"/>
                <path fill="#5C0CFA" d="M70.896 31.515h13.91v-4.188h-13.91z"/>
                <path fill="#5C0CFA" d="M70.895 31.516c0 1.727 3.114 3.127 6.955 3.127 3.842 0 6.955-1.4 6.955-3.127 0-1.727-3.113-3.126-6.955-3.126-3.84 0-6.955 1.399-6.955 3.126"/>
                <path fill="#9E8DFF" d="M70.895 27.327c0 1.727 3.114 3.128 6.955 3.128 3.842 0 6.955-1.4 6.955-3.128 0-1.726-3.113-3.127-6.955-3.127-3.84 0-6.955 1.4-6.955 3.127"/>
                <path fill="#5C0CFA" d="M57.985 47.678h13.91v-4.19h-13.91z"/>
                <path fill="#5C0CFA" d="M57.984 47.678c0 1.727 3.115 3.127 6.956 3.127 3.842 0 6.955-1.4 6.955-3.127 0-1.727-3.113-3.127-6.955-3.127-3.841 0-6.956 1.4-6.956 3.127"/>
                <path fill="#9E8DFF" d="M57.984 43.49c0 1.726 3.115 3.127 6.956 3.127 3.842 0 6.955-1.4 6.955-3.128 0-1.726-3.113-3.127-6.955-3.127-3.841 0-6.956 1.4-6.956 3.127"/>
                <path fill="#5C0CFA" d="M45.93 40.384h13.91v-4.189H45.93z"/>
                <path fill="#5C0CFA" d="M45.93 40.385c0 1.726 3.114 3.127 6.954 3.127 3.842 0 6.956-1.4 6.956-3.127 0-1.727-3.114-3.128-6.956-3.128-3.84 0-6.955 1.4-6.955 3.128"/>
                <path fill="#9E8DFF" d="M45.93 36.196c0 1.726 3.114 3.127 6.954 3.127 3.842 0 6.956-1.4 6.956-3.127 0-1.727-3.114-3.128-6.956-3.128-3.84 0-6.955 1.4-6.955 3.128"/>
            </g>
        </g>
        <g>
            <g transform="scale(-1 1) rotate(23 -261.114 -981.511)">
                <mask id="u" fill="#fff">
                    <use xlink:href="#r"/>
                </mask>
                <use fill="#000" filter="url(#s)" xlink:href="#r"/>
                <use fill="url(#t)" xlink:href="#r"/>
                <path fill="#5032B6" d="M203.529 124.826a2.391 2.391 0 0 0-.583.049c-4.454.977-5.945 10.877-7.695 14.28a1068.075 1068.075 0 0 1-9.488 17.97c-1.551 2.878.032 3.063 2.298 4.165l5.183 2.525 15.067 7.338 34.417 16.763c5.794 2.822 11.795 6.687 17.902 8.72 4.552 1.515 10.152-.083 14.284-2.667 7.947-4.97 11.89-18.59 5.776-26.391-2.134-2.722-5.16-4.577-8.13-6.35a715.412 715.412 0 0 0-59.397-31.77c-2.08-.99-6.965-4.553-9.634-4.632" mask="url(#u)"/>
            </g>
            <path fill="#C6C7DC" fill-opacity=".294" d="M301.804 91.401c25.659-30.733 71.377-34.896 102.115-9.298 30.737 25.598 34.855 71.264 9.196 101.997-25.658 30.733-71.377 34.896-102.114 9.298-30.738-25.598-34.855-71.263-9.197-101.997" opacity=".141"/>
            <path fill-rule="nonzero" stroke="#FFF" stroke-linecap="round" stroke-width="2" d="M407.656 106.21c15.945 38.962 5.27 68.48-32.027 88.554" opacity=".513"/>
            <path fill="#326186" d="M399.922 44.507c.133-.453.27-.588.28-.522-.117.174-.22.35-.274.515l-.006.007"/>
        </g>
        <path fill="#F1BD9A" d="M232.506 233.314l19.83-2.73c4.335-.764 11.544 4.416 12.407 9.31-.27 1.393-1.078 2.136-2.427 2.23-5.815.401-15.751.401-29.81 0v-8.81z"/>
    </g>
</svg>
