<?xml version="1.0" encoding="UTF-8"?>
<svg version="1.1" viewBox="0 0 548 497" xmlns="http://www.w3.org/2000/svg" xmlns:xlink="http://www.w3.org/1999/xlink">
<title>62F4F045-8D53-457B-9D6D-A113536646E5</title>
<desc>Created with sketchtool.</desc>
<defs>
<path id="b" d="m57.433 299.28c165.78 92.912 352.24 75.87 416-60.656 63.767-136.53-31.834-255.46-125.08-235.63-93.246 19.832-123.72 76.429-212.78 69-47.293-3.945-112.2 23.496-130.27 77.652-15.956 47.825 8.9891 120.79 52.118 149.63z"/>
<rect id="a" x="-2.8422e-14" y="1.1369e-13" width="229.94" height="243" rx="9.2939"/>
<filter id="h" x="-12.6%" y="-9.1%" width="125.2%" height="123.9%">
<feOffset dx="0" dy="7" in="SourceAlpha" result="shadowOffsetOuter1"/>
<feGaussianBlur in="shadowOffsetOuter1" result="shadowBlurOuter1" stdDeviation="8.5"/>
<feColorMatrix in="shadowBlurOuter1" values="0 0 0 0 0   0 0 0 0 0   0 0 0 0 0  0 0 0 0.179036458 0"/>
</filter>
<linearGradient id="g" x2="102%" y2="101%">
<stop stop-color="#3023AE" offset="0"/>
<stop stop-color="#C86DD7" offset="1"/>
</linearGradient>
<linearGradient id="f" x2="85.346%" y1="19.03%" y2="84.959%">
<stop stop-color="#935DFF" offset="0"/>
<stop stop-color="#4B545F" offset="1"/>
</linearGradient>
<linearGradient id="e" x1="84.483%" x2="39.366%" y1="6.3723%" y2="57.104%">
<stop stop-color="#F5F5F9" offset="0"/>
<stop stop-color="#EFF1F8" offset=".30912"/>
<stop stop-color="#C6CBF0" offset="1"/>
</linearGradient>
<linearGradient id="d" x1="10.677%" x2="50%" y1="70.469%" y2="100%">
<stop stop-color="#5F64AA" offset="0"/>
<stop stop-color="#313471" offset="1"/>
</linearGradient>
</defs>
<g fill="none" fill-rule="evenodd">
<g transform="translate(-153 -1947)">
<g transform="translate(153 1947)">
<rect width="548" height="497" fill="#fff" fill-rule="nonzero"/>
<g transform="translate(17 91)">
<mask id="c" fill="white">
<use xlink:href="#b"/>
</mask>
<use transform="translate(247.29 179.15) scale(-1 1) translate(-247.29 -179.15)" fill="#F2F2FE" xlink:href="#b"/>
<path transform="translate(244.82 207.58) scale(-1 1) translate(-244.82 -207.58)" d="m178.2 253.37c118.42 33.816 283.86-22.31 269.15-201.51 0 0 70.729 50.416 49.39 168.97-25.898 143.87-360.18 198.78-507.86 69.991 0 0 70.903-71.265 189.32-37.451z" fill="#E4E5F8" mask="url(#c)"/>
</g>
<g transform="translate(48 133)">
<use fill="black" filter="url(#h)" xlink:href="#a"/>
<use fill="#464769" fill-rule="evenodd" xlink:href="#a"/>
<path d="m6.7949 1.0836e-13h215.84c3.7527 3.7187e-16 6.7949 4.9232 6.7949 10.996v14.081h-229.43v-14.081c-4.5958e-16 -6.073 3.0422-10.996 6.7949-10.996z" fill="#464769"/>
<ellipse cx="16.277" cy="13.135" rx="3.0774" ry="3.2494" fill="#FF5F57" opacity=".3478"/>
<ellipse cx="26.177" cy="13.135" rx="3.0774" ry="3.2494" fill="#FFBC2D" opacity=".3478"/>
<ellipse cx="36.077" cy="13.135" rx="3.0774" ry="3.2494" fill="#29CA42" opacity=".3478"/>
<rect x="119" y="163" width="41.93" height="3.2989" rx="1.3801" fill="#464769"/>
<rect transform="translate(65.405 173.65) rotate(180) translate(-65.405 -173.65)" x="37" y="172" width="56.81" height="3.2989" rx="1.3801" fill="#7D82AD" opacity=".76821"/>
<rect x="21" y="133" width="88.625" height="3.2989" rx="1.3801" fill="#03DAC5" opacity=".52544"/>
<rect x="24" y="187" width="88.625" height="3.2989" rx="1.3801" fill="#03DAC5" opacity=".52544"/>
<rect transform="translate(134.85 134.65) rotate(180) translate(-134.85 -134.65)" x="114" y="133" width="41.703" height="3.2989" rx="1.3801" fill="#03DAC5"/>
<rect transform="translate(138.85 188.65) rotate(180) translate(-138.85 -188.65)" x="118" y="187" width="41.703" height="3.2989" rx="1.3801" fill="#03DAC5"/>
<rect x="20.9" y="101.06" width="58.454" height="3.2989" rx="1.3801" fill="#464769" opacity=".76821"/>
<rect transform="translate(120.41 102.7) rotate(180) translate(-120.41 -102.7)" x="84.7" y="101.06" width="71.425" height="3.2989" rx="1.3801" fill="#464769"/>
<rect x="37" y="153" width="65.814" height="3.2989" rx="1.3801" fill="#F2F2FE" opacity=".76821"/>
<rect x="41" y="206" width="65.814" height="3.2989" rx="1.3801" fill="#7D82AD" opacity=".76821"/>
<rect transform="translate(122.02 143.65) rotate(180) translate(-122.02 -143.65)" x="97" y="142" width="50.047" height="3.2989" rx="1.3801" fill="#464769"/>
<rect transform="translate(125.02 196.65) rotate(180) translate(-125.02 -196.65)" x="100" y="195" width="50.047" height="3.2989" rx="1.3801" fill="#F1F1FD"/>
<rect x="55" y="142" width="36.632" height="3.2989" rx="1.3801" fill="#464769"/>
<rect x="59" y="195" width="36.632" height="3.2989" rx="1.3801" fill="#F1F1FD"/>
<rect x="21" y="163" width="93.082" height="3.2989" rx="1.3801" fill="#464769" opacity=".76821"/>
<rect x="110" y="153" width="67.824" height="3.2989" rx="1.3801" fill="#F2F2FE"/>
<rect x="114" y="206" width="67.824" height="3.2989" rx="1.3801" fill="#7D82AD"/>
<rect x="55" y="121.93" width="30.076" height="3.2989" rx="1.3801" fill="#464769"/>
<rect x="90.2" y="121.93" width="53.505" height="3.2989" rx="1.3801" fill="#464769"/>
<rect transform="translate(165.66 113.69) rotate(180) translate(-165.66 -113.69)" x="137.5" y="112.04" width="56.329" height="3.2989" rx="1.3801" fill="#7D82AD"/>
<rect transform="translate(56.586 93.917) rotate(180) translate(-56.586 -93.917)" x="20.9" y="92.268" width="71.372" height="3.2989" rx="1.3801" fill="#464769" opacity=".76821"/>
<rect transform="translate(114.85 84.031) rotate(180) translate(-114.85 -84.031)" x="73.7" y="82.382" width="82.291" height="3.2989" rx="1.3801" fill="#03DAC5"/>
<rect x="96.8" y="92.268" width="43.474" height="3.2989" rx="1.3801" fill="#464769"/>
<rect x="37.4" y="82.382" width="30.076" height="3.2989" rx="1.3801" fill="#03DAC5" opacity=".66237"/>
<rect x="20.9" y="41.74" width="77.986" height="3.2989" rx="1.3801" fill="#F2F2FE" opacity=".76821"/>
<rect x="37.4" y="51.626" width="119.08" height="3.2989" rx="1.3801" fill="#F2F2FE" opacity=".76821"/>
<rect x="20.9" y="62.61" width="60.982" height="3.2989" rx="1.3801" fill="#464769" opacity=".76821"/>
<rect x="103.4" y="41.74" width="38.261" height="3.2989" rx="1.3801" fill="#F2F2FE"/>
<rect x="86.9" y="62.61" width="81.318" height="3.2989" rx="1.3801" fill="#464769"/>
<rect x="20.9" y="71.398" width="38.647" height="3.2989" rx="1.3801" fill="#F2F2FE"/>
<rect x="64.9" y="71.398" width="103.65" height="3.2989" rx="1.3801" fill="#E4E5F8"/>
<rect transform="translate(84.795 113.69) rotate(180) translate(-84.795 -113.69)" x="37.4" y="112.04" width="94.79" height="3.2989" rx="1.3801" fill="#7D82AD" opacity=".76821"/>
</g>
<g transform="translate(1 103)">
<path d="m8 107c0 2.2099-1.7901 4-4 4s-4-1.7901-4-4 1.7901-4 4-4 4 1.7901 4 4" fill="url(#g)" opacity=".6317"/>
<path d="m223 311.5c0 4.696-3.804 8.5-8.5 8.5s-8.5-3.804-8.5-8.5 3.804-8.5 8.5-8.5 8.5 3.804 8.5 8.5" fill="url(#f)" fill-rule="nonzero"/>
<path d="m299.51 37.009c0 20.437-16.654 37.009-37.192 37.009-20.543 0-37.197-16.572-37.197-37.009s16.654-37.009 37.197-37.009c20.538 0 37.192 16.572 37.192 37.009" fill="#02D9C4"/>
<path d="m252.57 33.436l-9.5913 4.3503 9.5666 4.3063c1.5654 0.70464 2.5721 2.2618 2.5721 3.9785 0 0.9885-0.80134 1.7898-1.7898 1.7898-0.26353 0-0.52381-0.058194-0.76225-0.17042l-12.15-5.7187c-1.6212-0.76307-2.6559-2.3937-2.6559-4.1855 0-1.7917 1.0349-3.4222 2.6562-4.1848l12.17-5.7247c0.88728-0.41737 1.9449-0.036432 2.3623 0.85085 0.11121 0.23641 0.16887 0.49446 0.16887 0.75572 0 1.7033-0.99626 3.2491-2.5474 3.9526z" fill="#F9FBFC"/>
<path d="m270.57 27.912l9.8523 5.4068c1.587 0.87092 2.5733 2.5373 2.5733 4.3476 0 1.8103-0.98614 3.4769-2.573 4.3483l-9.8325 5.3994c-0.80797 0.44369-1.8226 0.14838-2.2663-0.65959-0.13519-0.24619-0.20607-0.52251-0.20607-0.80337 0-1.7343 0.96184-3.3256 2.4974-4.1318l7.9108-4.153-7.9357-4.1978c-1.5211-0.80463-2.4726-2.3844-2.4726-4.1052 0-0.9144 0.74126-1.6557 1.6557-1.6557 0.27846 0 0.55243 0.070234 0.79655 0.2042z" fill="#F9FBFC"/>
</g>
<g transform="translate(288 27)">
<polyline points="28.53 165.34 16.783 177.94 28.53 190.54" fill-rule="nonzero" stroke="#A7A9CE" stroke-linecap="round" stroke-width="5.04"/>
<polyline transform="translate(61.257 177.94) scale(-1 1) translate(-61.257 -177.94)" points="67.13 165.34 55.383 177.94 67.13 190.54" fill-rule="nonzero" stroke="#A7A9CE" stroke-linecap="round" stroke-width="5.04"/>
<path d="m50.348 153.57l-16.783 45.364" fill-rule="nonzero" stroke="#A7A9CE" stroke-linecap="round" stroke-width="5.04"/>
<g transform="translate(0 .6282)">
<g transform="translate(.50738 .31178)">
<polygon points="99.465 198.2 93.853 220.49 161.34 224.1 159.06 196.17" fill="#393F5C"/>
<polygon points="127.19 212.71 107.56 278.86 107.95 378.8 83.992 379.3 79.348 277.34 95.39 214.48" fill="#393F5C"/>
<polygon points="160.98 219.55 165.72 281.62 184.68 384.06 160.98 388.92 138.07 284.42 125.14 219.55" fill="#393F5C"/>
<path d="m90.824 378.99l13.048-0.085024 0.34096 18.648-37.103 0.24487c0.26595-2.9282 2.2401-5.2375 5.1042-5.9381l18.374-4.4791 0.23526-8.3902z" fill="#202E3B"/>
<path d="m104.21 397.55l-37.103 0.24487c0.0113 1.5912 1.3099 2.8722 2.9011 2.8619l31.335-0.20395c1.5931-0.010368 2.8764-1.3097 2.867-2.9028z" fill="#C7CCEA"/>
<path d="m99.938 386.7c0.010229 1.5678-1.2547 2.85-2.8265 2.8602s-2.8572-1.2516-2.8675-2.8194c-0.010229-1.5678 1.2547-2.85 2.8265-2.8602 1.5718-0.010203 2.8572 1.2516 2.8675 2.8194" fill="#fff"/>
<path d="m167.84 386.33l12.936-1.7073 2.6697 18.46-36.779 4.86c-0.10229-2.9384 1.5684-5.4756 4.3234-6.5231l17.665-6.7339-0.81489-8.3562z" fill="#202E3B"/>
<path d="m183.44 403.09l-36.779 4.8634c0.20905 1.5761 1.6558 2.6846 3.2321 2.4763l31.069-4.1054c1.5773-0.20843 2.687-1.6561 2.4786-3.2334-4.2e-5 -3.17e-4 -8.4e-5 -6.34e-4 -1.26e-4 -9.5e-4z" fill="#C7CCEA"/>
<path d="m177.84 392.85c0.20798 1.5542-0.8899 2.9792-2.4481 3.1867-1.5582 0.20406-2.9902-0.88765-3.1914-2.4419-0.21139-1.5542 0.88649-2.9792 2.4447-3.1867 1.5616-0.20406 2.9868 0.88765 3.1948 2.4419" fill="#fff"/>
<path d="m71.408 163.79l-56.6-28.65 4.0906-11.727 49.121 19.566c10.856-16.44 27.454-35.683 27.454-35.683l19.206 1.9828c0.85922 4.843-3.3687 4.8804-33.397 50.123-2.0117 3.0269-5.4928 4.7205-9.0865 4.4723-0.26254-0.017005-0.52508-0.047613-0.78761-0.085024z" fill="#4B30EF"/>
<path d="m129.54 102.11l1.981 0.32649c8.7047 1.4284 15.715 7.9004 17.808 16.45l13.945 79.229c-29.657 16.124-67.179 0.17345-67.179 0.17345l-7.2045-73.893c-1.0161-8.1487 3.2493-16.039 10.628-19.671l30.021-2.6153z" fill="#6138FC"/>
<path d="m102.15 104.57l21.741-2.2465s-0.15403 15.014-13.27 14.795c-11.988-0.19579-8.4714-12.548-8.4714-12.548" fill="#ECB38C"/>
<path d="m21.501 126.14c-0.99901 5.8803-6.5873 9.8424-12.479 8.8459-5.8986-0.99648-9.8673-6.5707-8.8683-12.454 0.99901-5.8769 6.5873-9.8356 12.479-8.8391 5.8986 0.99308 9.8673 6.5673 8.8683 12.448" fill="#F0AE73"/>
<path d="m103.13 95.428c-11.344-0.78222-19.905-10.591-19.118-21.902l1.7628-25.466 41.079 2.833-1.7662 25.466c-0.7842 11.312-10.617 19.848-21.958 19.069" fill="#F1BD9A"/>
<path d="m132.52 71.178c-0.24549 3.554-3.3346 6.2374-6.8976 5.9925-3.5664-0.24487-6.2532-3.3261-6.0077-6.8836 0.24549-3.554 3.3312-6.2374 6.8976-5.9925 3.5664 0.24487 6.2532 3.3295 6.0077 6.8836" fill="#F1BD9A"/>
<path d="m52.253 171.34c-0.41256 5.9483-5.5815 10.438-11.548 10.026-5.9634-0.41152-10.464-5.564-10.051-11.516 0.41256-5.9517 5.5849-10.438 11.548-10.029 5.9634 0.41152 10.464 5.5708 10.051 11.519" fill="#F1AF74"/>
<path d="m58.81 177.2l-11.231-0.77882c-2.9357-0.20066-5.1723-2.7582-4.9678-5.6864 0.20458-2.9282 2.772-5.1559 5.7042-4.9518l11.235 0.77202c2.9322 0.20406 5.1655 2.765 4.9644 5.6898-0.20458 2.9248-2.772 5.1559-5.7042 4.9552" fill="#F1AF74"/>
<path d="m52.28 177.21l0.39689-11.443 55.522-4.5324 19.077-45.138c2.3083-5.047 8.2819-7.2713 13.338-4.9688s7.2897 8.2575 4.9814 13.305l-21.77 51.021c-1.6366 3.5846-5.2235 5.8803-9.1718 5.8769l-62.373-4.1213z" fill="#6138FC"/>
<path d="m85.825 379.3h20.174c2.7251 0 4.9342-2.2091 4.9342-4.9342v-0.57945c0-2.7251-2.2091-4.9342-4.9342-4.9342h-20.174c-2.7251 0-4.9342 2.2091-4.9342 4.9342v0.57945c0 2.7251 2.2091 4.9342 4.9342 4.9342z" fill="#4F5877"/>
<path d="m161.27 378.89l19.795-3.8675c2.6731-0.52273 5.2642 1.2195 5.7887 3.8922l0.11714 0.56575c0.52478 2.6741-1.2175 5.2672-3.8916 5.792-8.75e-4 1.72e-4 -0.001749 3.43e-4 -0.002623 5.14e-4l-19.793 3.8664c-2.6728 0.52304-5.264-1.2185-5.7891-3.8909l-0.12055-0.56915c-0.52547-2.6739 1.2162-5.2675 3.8901-5.793 0.001505-2.95e-4 0.003009-5.9e-4 0.004514-8.85e-4z" fill="#4F5877"/>
<path d="m88.018 77.256l17.723 0.84344s-1.0433 6.7679-10.587 5.7306c-7.5318-0.81963-7.1363-6.5741-7.1363-6.5741" fill="#fff"/>
<path d="m94.444 181.3l17.911 0.03401c5.0326-0.32649 9.4821-3.3636 11.61-7.9175l19.919-44.974c-7.7193 26.235-17.873 52.946-17.873 52.946-1.2411 3.4078-4.5416 5.632-8.1762 5.4994l-22.936-0.92166-0.45348-4.6661z" fill="#4B30EF"/>
<path d="m182.72 5.5149l-1.6809-4.8022-1.6775 4.8022c-1.4184 4.0472-4.7837 7.4617-9.3389 9.4819 4.5552 2.0168 7.9205 5.4347 9.3389 9.4819l1.6775 4.7988 1.6809-4.7988c1.4184-4.0472 4.7802-7.4651 9.3354-9.4819-4.5552-2.0202-7.9171-5.4347-9.3354-9.4819" fill="#fff"/>
<path d="m102.15 37.583c-7.693 0-14.771 2.7469-20.443 7.3921-5.6861 4.6452-9.9554 11.174-12.014 18.71 0 0 15.987-11.548 44.004 0 0 0 4.8151 7.1332 6.9959 19.127 1.0971 5.9827 1.5399 13.173 0.40271 21.256 6.6615-4.8466 11.625-12.181 13.752-20.767 0.73719-2.977 1.1238-6.1265 1.1238-9.348 0-20.091-15.13-36.371-33.821-36.371" fill="url(#e)"/>
<path transform="translate(131.66 73.676) rotate(-3) translate(-131.66 -73.676)" d="m132.06 61.519c3.6525 0.14957 6.4354 5.7023 6.2173 12.414-0.052178 1.4482-0.23413 2.8317-0.52981 4.1131-1.0784 4.6452-3.6351 7.8983-6.4956 7.7861-2.8618-0.10355-5.1844-3.5235-5.9577-8.2161-0.21674-1.3087-0.31307-2.721-0.26089-4.1879 0.22611-6.7219 3.3662-12.05 7.0267-11.909" fill="#B6B8E2"/>
<path d="m121.1 104.07c-1.6965 1.2339-3.496 2.3082-5.3918 3.2056-4.1475 1.9458-8.7312 3.0287-13.557 3.0287-0.99942 0-1.9908-0.046021-2.9742-0.1395-1.8356-0.16826-3.6271-0.49472-5.365-0.97219-4.775-1.2986-9.1406-3.6917-12.863-6.9074-7.6957-6.6744-12.626-16.891-12.626-28.343 0-3.5709 0.47763-7.011 1.3647-10.263h0.0093654s15.983-11.554 44.003 0c0 0 4.8085 7.1404 6.9906 19.135 1.1051 5.9813 1.5399 13.16 0.4094 21.256" fill="url(#d)"/>
</g>
</g>
<g transform="translate(130.9 84.688)" fill-rule="nonzero">
<path d="m6.713 19.132c11.409-5.2043 21.408-1.6906 29.998 10.541 12.885 18.348 14.577 57.072 5.0684 58.912-6.3391 1.2271-10.546 2.2926-12.621 3.1963-2.6976-11.152-4.4958-19.323-5.3945-24.511-2.0124-11.618-2.8212-23.238-3.9859-28.117-1.9449-8.1464-6.3-14.82-13.065-20.022z" fill="#A7A9CE"/>
<ellipse cx="31.048" cy="42.004" rx="4.1957" ry="5.0405" fill="#E7E9F7"/>
<path d="m13.426 16.127c0.96648 3.8508 4.028 6.8033 9.1845 8.8572 5.1565 2.054 8.8081 2.4412 10.955 1.1618-2.5928-5.3387-5.2366-8.6784-7.9315-10.019-2.6948-1.3406-6.764-1.3406-12.208 0z" fill="#464769"/>
<path d="m18.461 15.803c1.5613 1.8772 2.7877 3.0722 3.6792 3.5849 5.3221 3.0613 8.8501 2.9521 7.9199 1.3424-1.3359-2.3118-1.3359-3.2019-6.8688-5.4233-0.89976-0.36125-2.4765-0.19592-4.7303 0.49599z" fill="#826EF6"/>
<ellipse cx="36.083" cy="75.607" rx="4.1957" ry="5.0405" fill="#E7E9F7"/>
<ellipse cx="31.048" cy="42.004" rx="2.5174" ry="3.3603" fill="#826EF6"/>
<ellipse cx="36.083" cy="75.607" rx="2.5174" ry="3.3603" fill="#826EF6"/>
<path d="m26.44 17.84c1.3378-1.8818 2.6538-4.4913 3.9478-7.8285 1.0996-2.8358-1.5221-7.9668-6.0048-9.2741-3.4301-1.0003-8.4086 0.76993-10.897 4.3375-3.8261 5.4866-8.0715 6.0566-12.736 1.71" stroke="#B6B8E2" stroke-dasharray="1.680000038146972" stroke-width="6.72"/>
</g>
</g>
<path transform="translate(130.49 113.42) rotate(10) translate(-130.49 -113.42)" d="m131.19 109.63l-0.69664-1.9201-0.69664 1.9201c-0.58602 1.6192-1.9823 2.9866-3.8704 3.7941 1.8881 0.80746 3.2844 2.1734 3.8704 3.7941l0.69664 1.9201 0.69664-1.9201c0.58751-1.6207 1.9823-2.9866 3.8704-3.7941-1.8881-0.80746-3.2829-2.1748-3.8704-3.7941" fill="#C7CCEA"/>
<path transform="translate(283.49 72.42) rotate(10) translate(-283.49 -72.42)" d="m284.19 68.626l-0.69664-1.9201-0.69664 1.9201c-0.58602 1.6192-1.9823 2.9866-3.8704 3.7941 1.8881 0.80746 3.2844 2.1734 3.8704 3.7941l0.69664 1.9201 0.69664-1.9201c0.58751-1.6207 1.9823-2.9866 3.8704-3.7941-1.8881-0.80746-3.2829-2.1748-3.8704-3.7941" fill="#C7CCEA"/>
<path transform="translate(326.49 289.42) rotate(10) translate(-326.49 -289.42)" d="m327.19 285.63l-0.69664-1.9201-0.69664 1.9201c-0.58602 1.6192-1.9823 2.9866-3.8704 3.7941 1.8881 0.80746 3.2844 2.1734 3.8704 3.7941l0.69664 1.9201 0.69664-1.9201c0.58751-1.6207 1.9823-2.9866 3.8704-3.7941-1.8881-0.80746-3.2829-2.1748-3.8704-3.7941" fill="#C7CCEA"/>
<path transform="translate(416.88 374.07) rotate(10) translate(-416.88 -374.07)" d="m417.62 369.87l-0.74149-2.1231-0.73908 2.1231c-0.62353 1.7902-2.1041 3.3029-4.1119 4.1956 2.0078 0.89267 3.4884 2.4054 4.1119 4.198l0.73908 2.1231 0.74149-2.1231c0.62353-1.7926 2.1041-3.3053 4.1119-4.198-2.0078-0.89267-3.4884-2.4054-4.1119-4.1956" fill="#fff"/>
<path transform="translate(489.88 271.07) rotate(10) translate(-489.88 -271.07)" d="m490.62 266.87l-0.74149-2.1231-0.73908 2.1231c-0.62353 1.7902-2.1041 3.3029-4.1119 4.1956 2.0078 0.89267 3.4884 2.4054 4.1119 4.198l0.73908 2.1231 0.74149-2.1231c0.62353-1.7926 2.1041-3.3053 4.1119-4.198-2.0078-0.89267-3.4884-2.4054-4.1119-4.1956" fill="#fff"/>
<path transform="translate(32.124 248.07) rotate(10) translate(-32.124 -248.07)" d="m32.864 243.87l-0.74149-2.1231-0.73908 2.1231c-0.62353 1.7902-2.1041 3.3029-4.1119 4.1956 2.0078 0.89267 3.4884 2.4054 4.1119 4.198l0.73908 2.1231 0.74149-2.1231c0.62353-1.7926 2.1041-3.3053 4.1119-4.198-2.0078-0.89267-3.4884-2.4054-4.1119-4.1956" fill="#fff"/>
</g>
</g>
</g>
</svg>
