<svg xmlns="http://www.w3.org/2000/svg" xmlns:xlink="http://www.w3.org/1999/xlink" width="589" height="497" viewBox="0 0 589 497">
    <defs>
        <path id="a" d="M57.433 299.283c165.784 92.912 352.237 75.87 416.004-60.656C537.203 102.1 441.603-16.833 348.357 3 255.11 22.832 224.637 79.429 135.58 72 88.287 68.055 23.383 95.496 5.315 149.652c-15.956 47.824 8.989 120.788 52.118 149.631z"/>
        <rect id="d" width="229.943" height="243.001" rx="9.294"/>
        <filter id="c" width="125.2%" height="123.9%" x="-12.6%" y="-9.1%" filterUnits="objectBoundingBox">
            <feOffset dy="7" in="SourceAlpha" result="shadowOffsetOuter1"/>
            <feGaussianBlur in="shadowOffsetOuter1" result="shadowBlurOuter1" stdDeviation="8.5"/>
            <feColorMatrix in="shadowBlurOuter1" values="0 0 0 0 0 0 0 0 0 0 0 0 0 0 0 0 0 0 0.179036458 0"/>
        </filter>
        <linearGradient id="e" x1="0%" x2="102%" y1="0%" y2="101%">
            <stop offset="0%" stop-color="#3023AE"/>
            <stop offset="100%" stop-color="#C86DD7"/>
        </linearGradient>
        <linearGradient id="f" x1="0%" x2="85.346%" y1="19.03%" y2="84.959%">
            <stop offset="0%" stop-color="#935DFF"/>
            <stop offset="100%" stop-color="#4B545F"/>
        </linearGradient>
        <linearGradient id="g" x1="84.483%" x2="39.366%" y1="6.372%" y2="57.104%">
            <stop offset="0%" stop-color="#F5F5F9"/>
            <stop offset="30.912%" stop-color="#EFF1F8"/>
            <stop offset="100%" stop-color="#C6CBF0"/>
        </linearGradient>
        <linearGradient id="h" x1="10.677%" x2="50%" y1="70.469%" y2="100%">
            <stop offset="0%" stop-color="#5F64AA"/>
            <stop offset="100%" stop-color="#313471"/>
        </linearGradient>
    </defs>
    <g fill="none" fill-rule="evenodd">
        <path fill="#FFF" fill-rule="nonzero" d="M0 0h589v497H0z"/>
        <g transform="translate(39 92)">
            <mask id="b" fill="#fff">
                <use xlink:href="#a"/>
            </mask>
            <use fill="#F2F2FE" transform="matrix(-1 0 0 1 494.58 0)" xlink:href="#a"/>
            <path fill="#E4E5F8" d="M178.2 253.371c118.42 33.817 283.857-22.31 269.152-201.506 0 0 70.729 50.415 49.39 168.966-25.899 143.873-360.179 198.776-507.865 69.991 0 0 70.903-71.264 189.323-37.45z" mask="url(#b)" transform="matrix(-1 0 0 1 489.631 0)"/>
        </g>
        <g transform="translate(70 134)">
            <use fill="#000" filter="url(#c)" xlink:href="#d"/>
            <use fill="#464769" xlink:href="#d"/>
            <path fill="#464769" d="M6.795 0h215.844c3.753 0 6.795 4.923 6.795 10.996v14.08H0v-14.08C0 4.923 3.042 0 6.795 0z"/>
            <ellipse cx="16.277" cy="13.135" fill="#FF5F57" opacity=".348" rx="3.077" ry="3.249"/>
            <ellipse cx="26.177" cy="13.135" fill="#FFBC2D" opacity=".348" rx="3.077" ry="3.249"/>
            <ellipse cx="36.077" cy="13.135" fill="#29CA42" opacity=".348" rx="3.077" ry="3.249"/>
            <rect width="41.93" height="3.299" x="119" y="163" fill="#464769" rx="1.38"/>
            <rect width="56.81" height="3.299" x="37" y="172" fill="#7D82AD" opacity=".768" rx="1.38" transform="rotate(-180 65.405 173.65)"/>
            <rect width="88.625" height="3.299" x="21" y="133" fill="#03DAC5" opacity=".525" rx="1.38"/>
            <rect width="88.625" height="3.299" x="24" y="187" fill="#03DAC5" opacity=".525" rx="1.38"/>
            <rect width="41.703" height="3.299" x="114" y="133" fill="#03DAC5" rx="1.38" transform="rotate(-180 134.852 134.65)"/>
            <rect width="41.703" height="3.299" x="118" y="187" fill="#03DAC5" rx="1.38" transform="rotate(-180 138.852 188.65)"/>
            <rect width="58.454" height="3.299" x="20.9" y="101.055" fill="#464769" opacity=".768" rx="1.38"/>
            <rect width="71.425" height="3.299" x="84.7" y="101.055" fill="#464769" rx="1.38" transform="rotate(180 120.412 102.705)"/>
            <rect width="65.814" height="3.299" x="37" y="153" fill="#F2F2FE" opacity=".768" rx="1.38"/>
            <rect width="65.814" height="3.299" x="41" y="206" fill="#7D82AD" opacity=".768" rx="1.38"/>
            <rect width="50.047" height="3.299" x="97" y="142" fill="#464769" rx="1.38" transform="rotate(-180 122.023 143.65)"/>
            <rect width="50.047" height="3.299" x="100" y="195" fill="#F1F1FD" rx="1.38" transform="rotate(-180 125.023 196.65)"/>
            <rect width="36.632" height="3.299" x="55" y="142" fill="#464769" rx="1.38"/>
            <rect width="36.632" height="3.299" x="59" y="195" fill="#F1F1FD" rx="1.38"/>
            <rect width="93.082" height="3.299" x="21" y="163" fill="#464769" opacity=".768" rx="1.38"/>
            <rect width="67.824" height="3.299" x="110" y="153" fill="#F2F2FE" rx="1.38"/>
            <rect width="67.824" height="3.299" x="114" y="206" fill="#7D82AD" rx="1.38"/>
            <rect width="30.076" height="3.299" x="55" y="121.925" fill="#464769" rx="1.38"/>
            <rect width="53.505" height="3.299" x="90.2" y="121.925" fill="#464769" rx="1.38"/>
            <rect width="56.329" height="3.299" x="137.5" y="112.039" fill="#7D82AD" rx="1.38" transform="rotate(-180 165.664 113.689)"/>
            <rect width="71.372" height="3.299" x="20.9" y="92.268" fill="#464769" opacity=".768" rx="1.38" transform="rotate(-180 56.586 93.917)"/>
            <rect width="82.291" height="3.299" x="73.7" y="82.382" fill="#03DAC5" rx="1.38" transform="rotate(180 114.845 84.031)"/>
            <rect width="43.474" height="3.299" x="96.8" y="92.268" fill="#464769" rx="1.38"/>
            <rect width="30.076" height="3.299" x="37.4" y="82.382" fill="#03DAC5" opacity=".662" rx="1.38"/>
            <rect width="77.986" height="3.299" x="20.9" y="41.74" fill="#F2F2FE" opacity=".768" rx="1.38"/>
            <rect width="119.081" height="3.299" x="37.4" y="51.626" fill="#F2F2FE" opacity=".768" rx="1.38"/>
            <rect width="60.982" height="3.299" x="20.9" y="62.61" fill="#464769" opacity=".768" rx="1.38"/>
            <rect width="38.261" height="3.299" x="103.4" y="41.74" fill="#F2F2FE" rx="1.38"/>
            <rect width="81.318" height="3.299" x="86.9" y="62.61" fill="#464769" rx="1.38"/>
            <rect width="38.647" height="3.299" x="20.9" y="71.398" fill="#F2F2FE" rx="1.38"/>
            <rect width="103.652" height="3.299" x="64.9" y="71.398" fill="#E4E5F8" rx="1.38"/>
            <rect width="94.79" height="3.299" x="37.4" y="112.039" fill="#7D82AD" opacity=".768" rx="1.38" transform="rotate(180 84.795 113.689)"/>
        </g>
        <path fill="url(#e)" d="M8 107a4 4 0 0 1-4 4 4 4 0 0 1-4-4 4 4 0 0 1 4-4 4 4 0 0 1 4 4" opacity=".632" transform="translate(23 104)"/>
        <path fill="url(#f)" fill-rule="nonzero" d="M223 311.5c0 4.696-3.804 8.5-8.5 8.5a8.498 8.498 0 0 1-8.5-8.5c0-4.696 3.804-8.5 8.5-8.5s8.5 3.804 8.5 8.5" transform="translate(23 104)"/>
        <path fill="#02D9C4" d="M322.507 141.01c0 20.437-16.654 37.009-37.192 37.009-20.543 0-37.197-16.572-37.197-37.01 0-20.437 16.654-37.009 37.197-37.009 20.538 0 37.192 16.572 37.192 37.01"/>
        <path fill="#F9FBFC" d="M275.575 137.436l-9.592 4.35 9.567 4.307a4.363 4.363 0 0 1 2.572 3.978 1.79 1.79 0 0 1-2.552 1.62l-12.15-5.719a4.625 4.625 0 1 1 0-8.37l12.171-5.725a1.775 1.775 0 0 1 2.531 1.607 4.34 4.34 0 0 1-2.547 3.952zM293.57 131.912l9.852 5.407a4.96 4.96 0 0 1 0 8.696l-9.832 5.399a1.669 1.669 0 0 1-2.472-1.463c0-1.734.961-3.326 2.497-4.132l7.91-4.153-7.935-4.198a4.644 4.644 0 0 1-2.472-4.105 1.656 1.656 0 0 1 2.452-1.451z"/>
        <path fill-rule="nonzero" stroke="#A7A9CE" stroke-linecap="round" stroke-width="5.04" d="M338.53 193.336l-11.747 12.601 11.747 12.601M365.383 193.336l11.747 12.601-11.747 12.601M360.348 181.575l-16.783 45.364"/>
        <path fill="#393F5C" d="M409.972 227.141l-5.612 22.29 67.483 3.608-2.278-27.932z"/>
        <path fill="#393F5C" d="M437.702 241.652L418.066 307.8l.389 99.937-23.956.5-4.644-101.954 16.042-62.86z"/>
        <path fill="#393F5C" d="M471.483 248.493l4.743 62.068 18.96 102.44-23.703 4.857-22.909-104.495-12.922-64.87z"/>
        <path fill="#202E3B" d="M401.332 407.93l13.048-.085.341 18.648-37.103.245c.266-2.928 2.24-5.238 5.104-5.938l18.375-4.48.235-8.39z"/>
        <path fill="#C7CCEA" d="M414.72 426.493l-37.103.245a2.882 2.882 0 0 0 2.902 2.862l31.335-.204a2.886 2.886 0 0 0 2.867-2.903z"/>
        <path fill="#FFF" d="M410.445 415.642a2.844 2.844 0 0 1-2.826 2.86 2.844 2.844 0 0 1-2.868-2.819 2.844 2.844 0 0 1 2.827-2.86 2.844 2.844 0 0 1 2.867 2.82"/>
        <path fill="#202E3B" d="M478.344 415.274l12.936-1.707 2.67 18.46-36.78 4.86c-.102-2.939 1.569-5.476 4.324-6.523l17.665-6.734-.815-8.356z"/>
        <path fill="#C7CCEA" d="M493.95 432.026l-36.779 4.864a2.88 2.88 0 0 0 3.232 2.476l31.069-4.105a2.88 2.88 0 0 0 2.478-3.235z"/>
        <path fill="#FFF" d="M488.35 421.793a2.84 2.84 0 0 1-2.448 3.187 2.84 2.84 0 0 1-3.192-2.442 2.835 2.835 0 0 1 2.445-3.186 2.845 2.845 0 0 1 3.195 2.441"/>
        <path fill="#4B30EF" d="M381.915 192.73l-56.6-28.649 4.09-11.727 49.12 19.566c10.857-16.44 27.455-35.683 27.455-35.683l19.206 1.983c.86 4.843-3.369 4.88-33.397 50.124a10.082 10.082 0 0 1-9.874 4.387z"/>
        <path fill="#6138FC" d="M440.05 131.054l1.98.326c8.705 1.429 15.715 7.9 17.809 16.45l13.945 79.23c-29.657 16.124-67.18.173-67.18.173L399.4 153.34c-1.016-8.148 3.25-16.038 10.628-19.67l30.021-2.616z"/>
        <path fill="#ECB38C" d="M412.66 133.511l21.741-2.247s-.154 15.015-13.27 14.795c-11.987-.196-8.47-12.548-8.47-12.548"/>
        <path fill="#F0AE73" d="M332.009 155.082c-1 5.88-6.588 9.842-12.48 8.846-5.898-.997-9.867-6.57-8.868-12.455 1-5.876 6.588-9.835 12.48-8.839 5.898.993 9.867 6.568 8.868 12.448"/>
        <path fill="#F1BD9A" d="M413.638 124.368c-11.343-.782-19.905-10.59-19.117-21.902l1.763-25.467 41.078 2.833-1.766 25.467c-.784 11.311-10.617 19.848-21.958 19.069"/>
        <path fill="#F1BD9A" d="M443.023 100.118c-.246 3.554-3.335 6.237-6.898 5.993a6.457 6.457 0 0 1-6.007-6.884c.245-3.554 3.33-6.237 6.897-5.992 3.567.244 6.253 3.329 6.008 6.883"/>
        <path fill="#F1AF74" d="M362.76 200.276c-.412 5.948-5.58 10.437-11.547 10.026-5.964-.412-10.464-5.564-10.052-11.516.413-5.952 5.585-10.438 11.548-10.03 5.964.412 10.464 5.571 10.052 11.52"/>
        <path fill="#F1AF74" d="M369.317 206.137l-11.231-.778c-2.936-.201-5.172-2.759-4.968-5.687.205-2.928 2.772-5.156 5.704-4.952l11.235.772c2.932.204 5.166 2.765 4.964 5.69-.204 2.925-2.772 5.156-5.704 4.955"/>
        <path fill="#6138FC" d="M362.787 206.15l.397-11.443 55.522-4.532 19.076-45.138c2.309-5.047 8.282-7.27 13.339-4.968 5.056 2.302 7.29 8.257 4.981 13.304l-21.77 51.021a10.067 10.067 0 0 1-9.172 5.877l-62.373-4.121z"/>
        <path fill="#4F5877" d="M396.333 408.24h20.173a4.934 4.934 0 0 0 4.935-4.935v-.579a4.934 4.934 0 0 0-4.935-4.934h-20.173a4.934 4.934 0 0 0-4.934 4.934v.58a4.934 4.934 0 0 0 4.934 4.934zM471.779 407.834l19.795-3.868a4.934 4.934 0 0 1 5.789 3.892l.117.566a4.934 4.934 0 0 1-3.895 5.793l-19.792 3.866a4.934 4.934 0 0 1-5.79-3.89l-.12-.57a4.934 4.934 0 0 1 3.89-5.793h.005z"/>
        <path fill="#FFF" d="M398.525 106.196l17.723.843s-1.043 6.768-10.587 5.731c-7.531-.82-7.136-6.574-7.136-6.574"/>
        <path fill="#4B30EF" d="M404.951 210.24l17.911.033a13.795 13.795 0 0 0 11.61-7.917l19.918-44.974c-7.719 26.235-17.873 52.946-17.873 52.946a8.374 8.374 0 0 1-8.176 5.5l-22.936-.923-.454-4.666z"/>
        <path fill="#FFF" d="M493.224 34.455l-1.68-4.802-1.678 4.802c-1.419 4.047-4.784 7.462-9.339 9.482 4.555 2.017 7.92 5.435 9.339 9.482l1.677 4.798 1.681-4.798c1.419-4.047 4.78-7.465 9.336-9.482-4.555-2.02-7.917-5.435-9.336-9.482"/>
        <path fill="url(#g)" d="M102.15 37.583c-7.693 0-14.77 2.747-20.443 7.392-5.686 4.645-9.955 11.175-12.015 18.71 0 0 15.987-11.548 44.004 0 0 0 4.816 7.134 6.996 19.128 1.097 5.982 1.54 13.173.403 21.256 6.661-4.847 11.625-12.182 13.752-20.767a38.961 38.961 0 0 0 1.124-9.348c0-20.091-15.13-36.371-33.82-36.371" transform="translate(310.507 28.94)"/>
        <path fill="#B6B8E2" d="M441.932 90.454c3.655-.041 6.725 5.358 6.858 12.072a21.85 21.85 0 0 1-.314 4.135c-.833 4.696-3.216 8.078-6.079 8.116-2.863.046-5.361-3.248-6.38-7.893a21.132 21.132 0 0 1-.479-4.169c-.126-6.724 2.73-12.21 6.394-12.26"/>
        <path fill="url(#h)" d="M121.098 104.075a33.606 33.606 0 0 1-5.392 3.205 31.803 31.803 0 0 1-16.531 2.89 30.867 30.867 0 0 1-5.365-.973c-4.775-1.298-9.141-3.691-12.863-6.907C73.25 95.616 68.32 85.399 68.32 73.947c0-3.57.478-7.011 1.365-10.263h.009s15.983-11.554 44.003 0c0 0 4.808 7.14 6.99 19.135 1.105 5.981 1.54 13.16.41 21.256" transform="translate(310.507 28.94)"/>
        <g fill-rule="nonzero" transform="translate(440.904 112.688)">
            <path fill="#A7A9CE" d="M6.713 19.132c11.41-5.205 21.409-1.69 29.998 10.54C49.596 48.02 51.288 86.746 41.78 88.586c-6.34 1.227-10.546 2.293-12.621 3.197-2.698-11.153-4.496-19.323-5.395-24.511-2.012-11.618-2.82-23.239-3.986-28.117-1.944-8.146-6.3-14.82-13.065-20.022z"/>
            <ellipse cx="31.048" cy="42.004" fill="#E7E9F7" rx="4.196" ry="5.04"/>
            <path fill="#464769" d="M13.426 16.127c.967 3.85 4.028 6.803 9.185 8.857 5.156 2.054 8.808 2.441 10.954 1.162-2.593-5.339-5.236-8.678-7.931-10.02-2.695-1.34-6.764-1.34-12.208 0z"/>
            <path fill="#826EF6" d="M18.46 15.803c1.562 1.877 2.789 3.072 3.68 3.585 5.322 3.062 8.85 2.952 7.92 1.343-1.336-2.312-1.336-3.202-6.869-5.424-.9-.36-2.476-.196-4.73.496z"/>
            <ellipse cx="36.083" cy="75.607" fill="#E7E9F7" rx="4.196" ry="5.04"/>
            <ellipse cx="31.048" cy="42.004" fill="#826EF6" rx="2.517" ry="3.36"/>
            <ellipse cx="36.083" cy="75.607" fill="#826EF6" rx="2.517" ry="3.36"/>
            <path stroke="#B6B8E2" stroke-dasharray="1.68" stroke-width="6.72" d="M26.44 17.84c1.337-1.882 2.653-4.491 3.947-7.828 1.1-2.836-1.522-7.967-6.004-9.274-3.43-1-8.409.77-10.897 4.337C9.66 10.562 5.415 11.132.75 6.785"/>
        </g>
        <path fill="#C7CCEA" d="M153.835 110.805l-.353-2.012-1.02 1.77c-.858 1.493-2.47 2.597-4.47 3.064 1.72 1.123 2.857 2.711 3.153 4.409l.353 2.012 1.02-1.77c.86-1.494 2.47-2.597 4.47-3.065-1.72-1.123-2.856-2.711-3.153-4.408M306.835 69.805l-.353-2.012-1.02 1.77c-.858 1.493-2.47 2.597-4.47 3.064 1.72 1.123 2.857 2.711 3.153 4.409l.353 2.012 1.02-1.77c.86-1.494 2.47-2.597 4.47-3.065-1.72-1.123-2.856-2.711-3.153-4.408M349.835 286.805l-.353-2.012-1.02 1.77c-.858 1.493-2.47 2.597-4.47 3.064 1.72 1.123 2.857 2.711 3.153 4.409l.353 2.012 1.02-1.77c.86-1.494 2.47-2.597 4.47-3.065-1.72-1.123-2.856-2.711-3.153-4.408"/>
        <path fill="#FFF" d="M440.334 371.062l-.362-2.22-1.096 1.963c-.925 1.655-2.646 2.887-4.778 3.418 1.822 1.227 3.017 2.974 3.32 4.848l.36 2.22 1.098-1.963c.926-1.657 2.646-2.89 4.779-3.42-1.823-1.228-3.018-2.975-3.321-4.846M513.334 268.062l-.362-2.22-1.096 1.963c-.925 1.655-2.646 2.887-4.778 3.418 1.822 1.227 3.017 2.974 3.32 4.848l.36 2.22 1.098-1.963c.926-1.657 2.646-2.89 4.779-3.42-1.823-1.228-3.018-2.975-3.321-4.846M55.582 245.062l-.362-2.22-1.096 1.963c-.925 1.655-2.646 2.887-4.778 3.418 1.822 1.227 3.018 2.974 3.32 4.848l.36 2.22 1.098-1.963c.926-1.657 2.646-2.89 4.779-3.42-1.823-1.228-3.018-2.975-3.321-4.846"/>
    </g>
</svg>
