<svg xmlns="http://www.w3.org/2000/svg" xmlns:xlink="http://www.w3.org/1999/xlink" width="589" height="497" viewBox="0 0 589 497">
    <defs>
        <path id="a" d="M0 0h589v497H0z"/>
        <path id="c" d="M292.998 390.361c132.496-57.756 237.96-199.458 208.005-301.16-51.195-173.79-142.259-40.982-212.238-25.054C207.62 82.62 99.245 30.726 40.528 87.494c-16.765 16.209-29.482 41.275-36.361 79.369-30.97 171.505 156.336 281.259 288.831 223.498z"/>
        <linearGradient id="e" x1="40.533%" x2="60.317%" y1="102.258%" y2="38.811%">
            <stop offset="0%" stop-color="#FFF" stop-opacity="0"/>
            <stop offset="100%" stop-color="#FFF"/>
        </linearGradient>
        <path id="f" d="M27.231 2.98C16.814 12.655-1.178 36.516.485 85.16a42.06 42.06 0 0 0 1.34 9.258l11.433 44.157H52.66S62.73 102.24 64.833 92.96c5.381-23.652-2.31-68.04-22.681-89.655a10.61 10.61 0 0 0-14.92-.324z"/>
        <linearGradient id="h" x1="51.312%" x2="50.164%" y1="-26.955%" y2="80.061%">
            <stop offset="0%" stop-color="#FFF" stop-opacity="0"/>
            <stop offset="100%" stop-color="#FFF"/>
        </linearGradient>
        <linearGradient id="i" x1="0%" x2="85.346%" y1="19.03%" y2="84.959%">
            <stop offset="0%" stop-color="#935DFF"/>
            <stop offset="100%" stop-color="#4B545F"/>
        </linearGradient>
        <linearGradient id="j" x1="0%" x2="89.066%" y1="19.03%" y2="87.833%">
            <stop offset="0%" stop-color="#9C93F3"/>
            <stop offset="100%" stop-color="#4B545F"/>
        </linearGradient>
        <linearGradient id="k" x1="98.538%" x2="-3.824%" y1="1304.457%" y2="1304.457%">
            <stop offset="0%" stop-color="#464769"/>
            <stop offset="100%" stop-color="#02D9C4"/>
        </linearGradient>
        <linearGradient id="l" x1="102.985%" x2="-3.824%" y1="1304.457%" y2="1304.457%">
            <stop offset="4.164%" stop-color="#464769"/>
            <stop offset="100%" stop-color="#02D9C4"/>
        </linearGradient>
    </defs>
    <g fill="none" fill-rule="evenodd">
        <mask id="b" fill="#fff">
            <use xlink:href="#a"/>
        </mask>
        <use fill="#FFF" fill-rule="nonzero" xlink:href="#a"/>
        <g mask="url(#b)">
            <g transform="translate(-34 -20)">
                <g transform="rotate(22 75.7 392.75)">
                    <mask id="d" fill="#fff">
                        <use xlink:href="#c"/>
                    </mask>
                    <use fill="#F2F2FE" xlink:href="#c"/>
                    <path fill="#E4E5F8" d="M15.302 316.286s78.008-121.29 208.295-63.74C353.883 310.1 430.592 260.76 414.413-44.228c0 0 183.122 39.623 159.644 241.391-28.493 244.867-396.27 338.31-558.755 119.123" mask="url(#d)"/>
                </g>
                <g transform="translate(94.56 111.097)">
                    <path fill="#FFF" d="M24.406 105.133v218.723h372.32V105.133c0-11.503-9.306-20.828-20.786-20.828H45.194c-11.48 0-20.788 9.325-20.788 20.828z"/>
                    <path fill="#464769" d="M39.119 105.203h339.754v210.924H39.119z"/>
                    <rect width="404.194" height="16.2" x="8.239" y="323" fill="#EAEAEF" fill-rule="nonzero" rx="8.085"/>
                    <path fill="url(#e)" d="M204.585 136.492l-5.497 180.097h40.742l-6.398-181.393z"/>
                    <path fill="#393F5C" d="M156.335 321.935c0 2.798 1.34 6.65 4.131 6.689h99.089c1.46.02 2.86-.585 3.849-1.663a5.144 5.144 0 0 0 1.325-3.984l-.116-1.042H156.335z"/>
                    <path fill="#FFA94D" d="M206.294 138.598s2.84 32.978 13.858 38.833c0 0 8.407-5.16 12.634-38.833h-26.492z"/>
                    <path fill="#8D8FB3" d="M187.4 69.331s-17.692 39.343-17.923 49.364c-.23 10.02 14.782 50.174 17.439 43.763 2.656-6.41-3.142-25.758 10.024-33.997l-6.098-28.026a84.07 84.07 0 0 1-2.31-14.788c-.439-4.721-.854-10.877-1.131-16.316zM251.517 67.295s17.692 39.342 17.923 49.363c.231 10.021-14.782 50.174-17.438 43.763-2.656-6.41 2.31-24.74-11.017-32.955l7.09-28.952a82.309 82.309 0 0 0 2.31-14.788c.37-4.837.855-11.016 1.132-16.431z"/>
                    <g transform="translate(186.084)">
                        <mask id="g" fill="#fff">
                            <use xlink:href="#f"/>
                        </mask>
                        <use fill="#D2D4EC" xlink:href="#f"/>
                        <path fill="#02D9C4" fill-rule="nonzero" d="M2.31-12.571h64.671v37.029H2.31z" mask="url(#g)"/>
                    </g>
                    <path fill="#8D8FB3" d="M251.425 58.153a55.138 55.138 0 0 1-9.239 0 788.986 788.986 0 0 0-22.542-.393c-8.685-.023-16.769.162-22.543.324a62.514 62.514 0 0 1-9.377 0 46.337 46.337 0 0 1 9.239-1.18c5.774-.44 13.858-.81 22.611-.81 8.754 0 16.838.416 22.612.879 3.11.095 6.204.49 9.239 1.18zM252.603 63.36a61.2 61.2 0 0 1-9.632-.254c-5.912-.324-14.089-.764-23.096-1.088-9.008-.324-17.207-.486-23.097-.579-3.202.1-6.408-.054-9.585-.462a51.82 51.82 0 0 1 9.585-.718c5.936-.185 14.158-.231 23.212 0 9.054.232 17.253.972 23.097 1.597 3.213.188 6.4.692 9.516 1.504z" opacity=".42"/>
                    <path fill="#413351" d="M239.923 133.09c0 .463-9.562.787-21.342.717-11.78-.07-21.364-.463-21.364-.926 0-.462 9.562-.786 21.364-.717 11.803.07 21.342.463 21.342.926z" opacity=".42"/>
                    <path fill="#5805FC" d="M234.148 61.81a14.11 14.11 0 0 1-9.97 12.104 14.072 14.072 0 0 1-14.972-4.607 14.14 14.14 0 0 1-1.471-15.625 14.082 14.082 0 0 1 13.849-7.332 14.058 14.058 0 0 1 9.479 5.122 14.113 14.113 0 0 1 3.085 10.338z"/>
                    <path fill="#8D8FB3" d="M200.958 83.379a1.04 1.04 0 0 1-1.039 1.041 1.066 1.066 0 1 1 0-2.106 1.038 1.038 0 0 1 1.04 1.065zM200.958 86.48c0 .579-.461 1.052-1.039 1.065a1.064 1.064 0 0 1 0-2.13c.578.013 1.04.486 1.04 1.065zM200.958 89.905a1.04 1.04 0 0 1-1.039 1.042 1.066 1.066 0 1 1 0-2.106 1.038 1.038 0 0 1 1.04 1.064z" opacity=".42"/>
                    <path fill="#8D8FB3" d="M220.175 83.448s-5.751.88-5.751 28.28c0 33.373 1.778 50.915 4.62 50.637 2.84-.277 12.194-80.467 1.13-78.917z"/>
                    <path fill="url(#h)" d="M.109 321.935c-.901-27.285 14.782-58.458 38.94-69.984 24.941-11.409 54.26-6.91 74.65 11.456 7.39 6.804 14.25 15.76 24.113 16.918 13.858 1.62 24.967-13.03 38.849-13.886 18.477-1.088 30.603 21.847 48.919 24.948 13.557 2.314 26.676-6.943 40.419-6.573 10.047.255 19.563 5.647 29.633 5.323 18.963-.602 31.597-20.296 49.058-27.771 17.46-7.475 38.387-1.852 52.29 11.131 13.905 12.984 21.227 32.123 23.398 51.262L.108 321.935z"/>
                    <path fill="#FFF" d="M420.355 320.94c.878-37.028-14.459-79.403-38.064-95.07-23.605-15.668-53.63-9.258-72.986 15.551-7.206 9.258-13.858 21.408-23.558 22.981-13.512 2.199-24.414-17.68-37.995-18.792-18.107-1.48-29.91 29.693-47.787 33.905-13.257 3.1-26.1-9.443-39.541-8.957-9.817.347-19.125 7.684-28.94 7.267-18.478-.833-30.904-27.586-47.973-37.908-17.068-10.322-37.532-2.546-51.113 15.136-13.58 17.68-20.787 43.624-22.866 69.636l410.823-3.749z" opacity=".3"/>
                </g>
                <g fill-rule="nonzero" transform="matrix(-1 0 0 1 518.433 35.12)">
                    <ellipse cx="8.937" cy="107.683" fill="url(#i)" rx="8.577" ry="8.583"/>
                    <ellipse cx="445.203" cy="318.836" fill="url(#i)" rx="5.718" ry="5.722"/>
                    <ellipse cx="176.718" cy="5.722" fill="url(#j)" rx="5.718" ry="5.722"/>
                    <ellipse cx="346.738" cy="37.093" fill="url(#j)" opacity=".567" rx="23.666" ry="23.67" transform="rotate(-28 346.738 37.093)"/>
                    <path stroke="#5805FC" stroke-linecap="round" stroke-width="2.902" d="M318.278 47.766c-7.688 5.13-12.18 9.028-11.488 10.332 1.283 2.42 19.934-5.01 41.658-16.598s38.295-22.943 37.012-25.364c-.717-1.354-6.869.375-15.953 4.189" opacity=".567"/>
                </g>
                <path fill="#C7CCEA" d="M400.396 92.5l-.84-2.22-.839 2.22c-.706 1.871-2.389 3.452-4.664 4.385 2.275.934 3.958 2.513 4.664 4.387l.84 2.22.839-2.22c.708-1.874 2.389-3.453 4.664-4.387-2.275-.933-3.956-2.514-4.664-4.386"/>
                <path fill="#FFF" d="M448.827 160.76l-.84-2.22-.839 2.22c-.706 1.871-2.389 3.452-4.664 4.386 2.275.933 3.958 2.512 4.664 4.386l.84 2.22.84-2.22c.707-1.874 2.388-3.453 4.663-4.386-2.275-.934-3.956-2.515-4.664-4.387M62.48 295.078l-.84-2.22-.84 2.22c-.706 1.872-2.389 3.453-4.664 4.386 2.275.934 3.958 2.513 4.664 4.386l.84 2.22.84-2.22c.707-1.873 2.388-3.452 4.663-4.386-2.275-.933-3.956-2.514-4.664-4.386"/>
                <path fill="#C6CBE9" d="M552.294 123.326l-.84-2.22-.84 2.22c-.706 1.872-2.388 3.453-4.663 4.387 2.275.933 3.957 2.512 4.664 4.386l.84 2.22.839-2.22c.708-1.874 2.388-3.453 4.664-4.386-2.276-.934-3.956-2.515-4.664-4.387"/>
                <path fill="#E4E5F8" d="M59.177 103.509l-.84-2.22-.839 2.22c-.706 1.872-2.389 3.453-4.664 4.386 2.275.934 3.958 2.513 4.664 4.386l.84 2.22.839-2.22c.708-1.873 2.389-3.452 4.664-4.386-2.275-.933-3.956-2.514-4.664-4.386"/>
                <path fill="#C7CCEA" d="M411.067 77.262l-.503-1.295-.504 1.295c-.424 1.092-1.433 2.014-2.799 2.558 1.366.545 2.375 1.466 2.799 2.559l.504 1.295.503-1.295c.425-1.093 1.434-2.014 2.799-2.559-1.365-.544-2.374-1.466-2.799-2.558M161.841 129.192l-.587-1.48-.588 1.48c-.494 1.248-1.672 2.302-3.265 2.925 1.593.622 2.77 1.675 3.265 2.924l.588 1.48.587-1.48c.496-1.25 1.672-2.302 3.265-2.924-1.593-.623-2.77-1.677-3.265-2.925M538.283 394.526l-.588-1.48-.587 1.48c-.495 1.248-1.673 2.302-3.265 2.924 1.592.623 2.77 1.676 3.265 2.925l.587 1.48.588-1.48c.495-1.25 1.672-2.302 3.265-2.925-1.593-.622-2.77-1.676-3.265-2.924"/>
                <path fill="#FFF" d="M533.88 249.198l-.588-1.48-.587 1.48c-.495 1.248-1.672 2.302-3.265 2.924 1.593.623 2.77 1.675 3.265 2.924l.587 1.48.588-1.48c.496-1.249 1.672-2.301 3.265-2.924-1.593-.622-2.77-1.676-3.265-2.924M470.04 173.231l-.589-1.48-.587 1.48c-.495 1.248-1.672 2.302-3.265 2.924 1.593.623 2.77 1.675 3.265 2.924l.587 1.48.588-1.48c.496-1.249 1.672-2.301 3.265-2.924-1.593-.622-2.77-1.676-3.265-2.924"/>
                <rect width="56.136" height="4.404" x="147.495" y="243.315" fill="url(#k)" fill-rule="nonzero" rx="2.2"/>
                <rect width="56.136" height="4.404" x="146.394" y="318.181" fill="url(#l)" fill-rule="nonzero" rx="2.2"/>
                <rect width="13.208" height="4.404" x="147.495" y="269.738" fill="#09C9BA" fill-rule="nonzero" rx="2.2"/>
                <rect width="53.935" height="4.404" x="166.207" y="269.738" fill="url(#l)" fill-rule="nonzero" rx="2.2"/>
                <rect width="27.518" height="4.404" x="147.495" y="296.161" fill="#09C9BA" fill-rule="nonzero" rx="2.2"/>
                <rect width="41.827" height="4.404" x="181.617" y="296.161" fill="url(#l)" fill-rule="nonzero" rx="2.2"/>
                <rect width="92.459" height="4.404" x="147.495" y="256.526" fill="url(#l)" fill-rule="nonzero" rx="2.2"/>
                <rect width="92.459" height="4.404" x="146.394" y="331.392" fill="url(#l)" fill-rule="nonzero" rx="2.2"/>
                <rect width="133.186" height="4.404" x="147.495" y="282.95" fill="url(#l)" fill-rule="nonzero" rx="2.2"/>
            </g>
        </g>
    </g>
</svg>
