<?xml version="1.0" encoding="UTF-8"?>
<svg version="1.1" viewBox="0 0 548 497" xmlns="http://www.w3.org/2000/svg" xmlns:xlink="http://www.w3.org/1999/xlink">
<title>F78341A4-FA05-4BA7-A55E-7B788FDB6176</title>
<desc>Created with sketchtool.</desc>
<defs>
<rect id="d" width="548" height="497"/>
<path id="c" d="m274.97 366.9c124.53-54.301 223.66-187.52 195.51-283.14-48.119-163.39-133.71-38.53-199.49-23.554-76.269 17.367-178.13-31.422-233.32 21.95-15.757 15.238-27.71 38.805-34.176 74.62-29.109 161.24 146.94 264.43 271.48 210.13z"/>
<linearGradient id="k" x1="40.533%" x2="60.317%" y1="102.26%" y2="38.811%">
<stop stop-color="#fff" stop-opacity="0" offset="0"/>
<stop stop-color="#fff" offset="1"/>
</linearGradient>
<path id="b" d="m27.231 2.9806c-10.417 9.6737-28.409 33.534-26.746 82.18 0.10099 3.1261 0.55031 6.2311 1.3396 9.2571l11.433 44.157h39.403s10.07-36.334 12.172-45.615c5.3816-23.652-2.3097-68.04-22.681-89.655-4.0479-4.179-10.696-4.3234-14.921-0.324z"/>
<linearGradient id="j" x1="51.312%" x2="50.164%" y1="-26.955%" y2="80.061%">
<stop stop-color="#fff" stop-opacity="0" offset="0"/>
<stop stop-color="#fff" offset="1"/>
</linearGradient>
<linearGradient id="e" x2="85.346%" y1="19.03%" y2="84.959%">
<stop stop-color="#935DFF" offset="0"/>
<stop stop-color="#4B545F" offset="1"/>
</linearGradient>
<linearGradient id="f" x2="89.066%" y1="19.03%" y2="87.833%">
<stop stop-color="#9C93F3" offset="0"/>
<stop stop-color="#4B545F" offset="1"/>
</linearGradient>
<linearGradient id="l" x1="98.538%" x2="-3.8239%" y1="1304.5%" y2="1304.5%">
<stop stop-color="#464769" offset="0"/>
<stop stop-color="#02D9C4" offset="1"/>
</linearGradient>
<linearGradient id="a" x1="102.98%" x2="-3.8239%" y1="1304.5%" y2="1304.5%">
<stop stop-color="#464769" offset=".041637"/>
<stop stop-color="#02D9C4" offset="1"/>
</linearGradient>
</defs>
<g fill="none" fill-rule="evenodd">
<g transform="translate(-153 -3241)">
<g transform="translate(153 3241)">
<mask id="i" fill="white">
<use xlink:href="#d"/>
</mask>
<use fill="#FFFFFF" fill-rule="nonzero" xlink:href="#d"/>
<g mask="url(#i)">
<g transform="translate(-46 -14)">
<g transform="translate(292.71 277.87) rotate(22) translate(-238 -191)">
<g transform="translate(0)">
<mask id="h" fill="white">
<use xlink:href="#c"/>
</mask>
<use fill="#F2F2FE" xlink:href="#c"/>
<path d="m14.291 297.5s73.302-114.05 195.73-59.937c122.43 54.12 194.51 7.7231 179.3-279.07 0 0 172.07 37.258 150.01 226.99-26.774 230.26-372.36 318.12-525.05 112.01" fill="#E4E5F8" mask="url(#h)"/>
</g>
</g>
<g transform="translate(84.56 105.1)">
<path d="m24.406 105.13v218.72h372.32v-218.72c0-11.503-9.3067-20.829-20.787-20.829h-330.75c-11.48 0-20.787 9.3253-20.787 20.829z" fill="#fff"/>
<rect x="39.119" y="105.2" width="339.75" height="210.92" fill="#464769"/>
<rect x="8.2387" y="323" width="404.19" height="16.2" rx="8.085" fill="#EAEAEF" fill-rule="nonzero"/>
<polygon points="204.58 136.49 199.09 316.59 239.83 316.59 233.43 135.2" fill="url(#k)"/>
<path d="m156.34 321.94c-2.58e-4 2.7978 1.339 6.6503 4.131 6.6883h99.089c1.4607 0.020407 2.8607-0.58445 3.8487-1.6627 0.98792-1.0783 1.4699-2.5276 1.325-3.9841l-0.11548-1.0414h-108.28z" fill="#393F5C"/>
<path d="m206.29 138.6s2.8409 32.979 13.858 38.834c0 0 8.4072-5.1609 12.634-38.834h-26.492z" fill="#FFA94D"/>
<path d="m187.4 69.331s-17.692 39.343-17.923 49.364 14.782 50.174 17.438 43.763c2.6561-6.4106-3.1412-25.758 10.024-33.997l-6.0976-28.026c-1.208-4.8506-1.981-9.7998-2.3097-14.788-0.43884-4.7211-0.85458-10.877-1.1317-16.316z" fill="#8D8FB3"/>
<path d="m251.52 67.295s17.692 39.343 17.923 49.364-14.782 50.174-17.438 43.763c-2.6561-6.4106 2.3097-24.74-11.017-32.955l7.0907-28.952c1.2174-4.8487 1.9905-9.7987 2.3097-14.788 0.36955-4.8369 0.85458-11.016 1.1317-16.431z" fill="#8D8FB3"/>
<g transform="translate(186.08)">
<mask id="g" fill="white">
<use xlink:href="#b"/>
</mask>
<use fill="#D2D4EC" xlink:href="#b"/>
<rect x="2.3097" y="-12.571" width="64.671" height="37.029" fill="#02D9C4" fill-rule="nonzero" mask="url(#g)"/>
</g>
<g transform="translate(187.18 55.644)" fill="#8D8FB3" opacity=".42">
<path d="m64.24 2.5093c-3.0742 0.25846-6.1645 0.25846-9.2387 0-5.7742-0.18514-13.858-0.37029-22.542-0.39343-8.6844-0.023143-16.768 0.162-22.542 0.324-3.1214 0.23477-6.2559 0.23477-9.3773 0 3.0323-0.70274 6.1274-1.0982 9.2387-1.1803 5.7742-0.43971 13.858-0.81 22.612-0.81s16.838 0.41657 22.612 0.87943c3.1102 0.095575 6.2041 0.49083 9.2387 1.1803z"/>
</g>
<g transform="translate(187.18 59.171)" fill="#8D8FB3" opacity=".42">
<path d="m65.418 4.1889c-3.2121 0.16838-6.4325 0.083257-9.6314-0.25457-5.9128-0.324-14.089-0.76371-23.097-1.0877-9.0078-0.324-17.207-0.486-23.097-0.57857-3.2022 0.1001-6.4074-0.054669-9.5852-0.46286 3.166-0.53559 6.3748-0.77577 9.5852-0.71743 5.9359-0.18514 14.158-0.23143 23.212 0 9.0539 0.23143 17.253 0.972 23.097 1.5969 3.2134 0.18843 6.4006 0.69228 9.5159 1.5043z"/>
</g>
<g transform="translate(196.42 132.02)" fill="#413351" opacity=".42">
<path d="m43.499 1.0745c0 0.46286-9.5621 0.78686-21.341 0.71743s-21.365-0.46286-21.365-0.92571c0-0.46286 9.5621-0.78686 21.365-0.71743 11.802 0.069429 21.341 0.46286 21.341 0.92571z"/>
</g>
<path d="m234.15 61.81c-0.57257 5.6845-4.5082 10.463-9.9698 12.104s-11.372-0.17722-14.973-4.6074c-3.6006-4.4302-4.1813-10.598-1.471-15.625 2.7103-5.0267 8.1772-7.9208 13.849-7.3315 3.7126 0.37958 7.1224 2.2219 9.4789 5.1213 2.3565 2.8994 3.4666 6.6184 3.0857 10.338z" fill="#5805FC"/>
<path d="m200.96 83.379c0 0.57517-0.46534 1.0414-1.0394 1.0414-0.41264 0.061464-0.823-0.12473-1.0491-0.47602-0.2261-0.35129-0.2261-0.80266 0-1.154 0.2261-0.35129 0.63646-0.53749 1.0491-0.47602 0.2797-6.92e-5 0.54763 0.11282 0.74322 0.31316 0.1956 0.20034 0.30235 0.47122 0.29613 0.75141z" fill="#8D8FB3" opacity=".42"/>
<path d="m200.96 86.48c1.36e-4 0.57903-0.46162 1.052-1.0394 1.0646-0.58678 0-1.0625-0.47662-1.0625-1.0646s0.47568-1.0646 1.0625-1.0646c0.57774 0.012588 1.0395 0.48555 1.0394 1.0646z" fill="#8D8FB3" opacity=".42"/>
<path d="m200.96 89.905c0 0.57517-0.46534 1.0414-1.0394 1.0414-0.41264 0.061464-0.823-0.12473-1.0491-0.47602-0.2261-0.35129-0.2261-0.80266 0-1.154 0.2261-0.35129 0.63646-0.53749 1.0491-0.47602 0.2797-6.92e-5 0.54763 0.11282 0.74322 0.31316 0.1956 0.20034 0.30235 0.47122 0.29613 0.75141z" fill="#8D8FB3" opacity=".42"/>
<path d="m220.17 83.448s-5.7511 0.87943-5.7511 28.281c0 33.372 1.7785 50.914 4.6194 50.637 2.8409-0.27772 12.195-80.468 1.1317-78.917z" fill="#8D8FB3"/>
<path d="m0.10865 321.94c-0.90078-27.285 14.782-58.459 38.941-69.984 24.941-11.409 54.259-6.9098 74.649 11.456 7.391 6.804 14.251 15.76 24.113 16.917 13.858 1.62 24.968-13.029 38.849-13.886 18.477-1.0877 30.603 21.847 48.919 24.948 13.558 2.3143 26.677-6.9429 40.419-6.5726 10.047 0.25457 19.563 5.6469 29.633 5.3229 18.962-0.60171 31.596-20.296 49.058-27.771s38.387-1.8514 52.291 11.132c13.904 12.983 21.226 32.122 23.397 51.261l-420.27-2.8234z" fill="url(#j)"/>
<g transform="translate(9.3394 216.54)" fill="#fff" opacity=".3">
<path d="m411.02 104.4c0.87768-37.029-14.459-79.403-38.064-95.071-23.605-15.668-53.631-9.2571-72.986 15.552-7.2062 9.2571-13.858 21.407-23.559 22.981-13.512 2.1986-24.413-17.681-37.994-18.792-18.108-1.4811-29.91 29.692-47.787 33.904-13.258 3.1011-26.099-9.4423-39.542-8.9563-9.8161 0.34714-19.124 7.6834-28.94 7.2669-18.477-0.83314-30.904-27.586-47.972-37.908s-37.532-2.5457-51.113 15.135c-13.581 17.681-20.787 43.624-22.866 69.637l410.82-3.7491z"/>
</g>
</g>
<g transform="translate(282.93 191.62) scale(-1 1) translate(-225.5 -162.5)" fill-rule="nonzero">
<ellipse cx="8.9373" cy="107.68" rx="8.5766" ry="8.5835" fill="url(#e)"/>
<ellipse cx="445.2" cy="318.84" rx="5.7178" ry="5.7223" fill="url(#e)"/>
<ellipse cx="176.72" cy="5.7223" rx="5.7178" ry="5.7223" fill="url(#f)"/>
<ellipse transform="translate(390.06 92.597) rotate(-28) translate(-390.06 -92.597)" cx="390.06" cy="92.597" rx="23.666" ry="23.67" fill="url(#f)" opacity=".56689"/>
<path transform="translate(389.77 93.406) rotate(-28) translate(-389.77 -93.406)" d="m360.19 89.179c-9.1963 0.92066-14.992 2.2536-14.994 3.7296-0.003507 2.7395 19.953 4.9342 44.575 4.902s44.584-2.2791 44.587-5.0186c0.001962-1.5323-6.241-2.8942-16.052-3.7912" opacity=".56689" stroke="#5805FC" stroke-linecap="round" stroke-width="2.9021"/>
</g>
<path d="m390.4 86.499l-0.83949-2.2197-0.83949 2.2197c-0.70618 1.8719-2.3888 3.4527-4.664 4.3861 2.2753 0.93347 3.9579 2.5125 4.664 4.3861l0.83949 2.2197 0.83949-2.2197c0.70798-1.8736 2.3888-3.4527 4.664-4.3861-2.2753-0.93347-3.9561-2.5142-4.664-4.3861" fill="#C7CCEA"/>
<path d="m438.83 154.76l-0.83949-2.2197-0.83949 2.2197c-0.70618 1.8719-2.3888 3.4527-4.664 4.3861 2.2753 0.93347 3.9579 2.5125 4.664 4.3861l0.83949 2.2197 0.83949-2.2197c0.70798-1.8736 2.3888-3.4527 4.664-4.3861-2.2753-0.93347-3.9561-2.5142-4.664-4.3861" fill="#fff"/>
<path d="m52.479 289.08l-0.83949-2.2197-0.83949 2.2197c-0.70618 1.8719-2.3888 3.4527-4.664 4.3861 2.2753 0.93347 3.9579 2.5125 4.664 4.3861l0.83949 2.2197 0.83949-2.2197c0.70798-1.8736 2.3888-3.4527 4.664-4.3861-2.2753-0.93347-3.9561-2.5142-4.664-4.3861" fill="#fff"/>
<path d="m542.29 117.33l-0.83949-2.2197-0.83949 2.2197c-0.70618 1.8719-2.3888 3.4527-4.664 4.3861 2.2753 0.93347 3.9579 2.5125 4.664 4.3861l0.83949 2.2197 0.83949-2.2197c0.70798-1.8736 2.3888-3.4527 4.664-4.3861-2.2753-0.93347-3.9561-2.5142-4.664-4.3861" fill="#C6CBE9"/>
<path d="m54.343 66.22l-0.83949-2.2197-0.83949 2.2197c-0.70618 1.8719-2.3888 3.4527-4.664 4.3861 2.2753 0.93347 3.9579 2.5125 4.664 4.3861l0.83949 2.2197 0.83949-2.2197c0.70798-1.8736 2.3888-3.4527 4.664-4.3861-2.2753-0.93347-3.9561-2.5142-4.664-4.3861" fill="#E4E5F8"/>
<path d="m401.07 71.262l-0.5037-1.2948-0.5037 1.2948c-0.42371 1.092-1.4333 2.0141-2.7984 2.5586 1.3652 0.54452 2.3747 1.4657 2.7984 2.5586l0.5037 1.2948 0.5037-1.2948c0.42479-1.0929 1.4333-2.0141 2.7984-2.5586-1.3652-0.54452-2.3736-1.4666-2.7984-2.5586" fill="#C7CCEA"/>
<path d="m151.84 123.19l-0.58764-1.4798-0.58764 1.4798c-0.49433 1.248-1.6721 2.3018-3.2648 2.9241 1.5927 0.62231 2.7705 1.675 3.2648 2.9241l0.58764 1.4798 0.58764-1.4798c0.49559-1.2491 1.6721-2.3018 3.2648-2.9241-1.5927-0.62231-2.7692-1.6761-3.2648-2.9241" fill="#C7CCEA"/>
<path d="m528.28 388.53l-0.58764-1.4798-0.58764 1.4798c-0.49433 1.248-1.6721 2.3018-3.2648 2.9241 1.5927 0.62231 2.7705 1.675 3.2648 2.9241l0.58764 1.4798 0.58764-1.4798c0.49559-1.2491 1.6721-2.3018 3.2648-2.9241-1.5927-0.62231-2.7692-1.6761-3.2648-2.9241" fill="#C7CCEA"/>
<path d="m523.88 243.2l-0.58764-1.4798-0.58764 1.4798c-0.49433 1.248-1.6721 2.3018-3.2648 2.9241 1.5927 0.62231 2.7705 1.675 3.2648 2.9241l0.58764 1.4798 0.58764-1.4798c0.49559-1.2491 1.6721-2.3018 3.2648-2.9241-1.5927-0.62231-2.7692-1.6761-3.2648-2.9241" fill="#fff"/>
<path d="m460.04 167.23l-0.58764-1.4798-0.58764 1.4798c-0.49433 1.248-1.6721 2.3018-3.2648 2.9241 1.5927 0.62231 2.7705 1.675 3.2648 2.9241l0.58764 1.4798 0.58764-1.4798c0.49559-1.2491 1.6721-2.3018 3.2648-2.9241-1.5927-0.62231-2.7692-1.6761-3.2648-2.9241" fill="#fff"/>
<rect x="137.49" y="237.31" width="56.136" height="4.4039" rx="2.2" fill="url(#l)" fill-rule="nonzero"/>
<rect x="136.39" y="312.18" width="56.136" height="4.4039" rx="2.2" fill="url(#a)" fill-rule="nonzero"/>
<rect x="137.49" y="263.74" width="13.208" height="4.4039" rx="2.2" fill="#09C9BA" fill-rule="nonzero"/>
<rect x="156.21" y="263.74" width="53.935" height="4.4039" rx="2.2" fill="url(#a)" fill-rule="nonzero"/>
<rect x="137.49" y="290.16" width="27.518" height="4.4039" rx="2.2" fill="#09C9BA" fill-rule="nonzero"/>
<rect x="171.62" y="290.16" width="41.827" height="4.4039" rx="2.2" fill="url(#a)" fill-rule="nonzero"/>
<rect x="137.49" y="250.53" width="92.459" height="4.4039" rx="2.2" fill="url(#a)" fill-rule="nonzero"/>
<rect x="136.39" y="325.39" width="92.459" height="4.4039" rx="2.2" fill="url(#a)" fill-rule="nonzero"/>
<rect x="137.49" y="276.95" width="133.19" height="4.4039" rx="2.2" fill="url(#a)" fill-rule="nonzero"/>
</g>
</g>
</g>
</g>
</g>
</svg>
