<?xml version="1.0" encoding="UTF-8"?>
<svg width="140px" height="40px" viewBox="0 0 140 40" version="1.1" xmlns="http://www.w3.org/2000/svg" xmlns:xlink="http://www.w3.org/1999/xlink">
    <!-- Generator: Sketch 49.3 (51167) - http://www.bohemiancoding.com/sketch -->
    <title>slack_monochrome@3x</title>
    <desc>Created with Sketch.</desc>
    <defs>
        <polygon id="path-1" points="0.115940741 0.147572816 42.7789481 0.147572816 42.7789481 31.8207379 0.115940741 31.8207379"></polygon>
        <polygon id="path-3" points="6.5463337e-05 0.301652765 39.6983472 0.301652765 39.6983472 39.9809524 6.5463337e-05 39.9809524"></polygon>
    </defs>
    <g id="Hub" stroke="none" stroke-width="1" fill="none" fill-rule="evenodd">
        <g transform="translate(-347.000000, -503.000000)" id="slack_monochrome">
            <g transform="translate(347.000000, 503.000000)">
                <path d="M63.4063853,10.6688608 C64.658145,11.2100186 64.7494558,11.6159663 63.7706676,13.4647899 C62.7691317,15.3590009 62.5185875,15.471676 61.2895755,14.9755882 C59.7417765,14.3217553 57.7614523,13.8256676 56.4869451,13.8256676 C54.3928829,13.8256676 53.0043171,14.5696405 53.0043171,15.6970262 C53.0043171,19.4178431 65,17.410957 65,25.3480439 C65,29.339281 61.5397993,32 56.3504594,32 C53.6188231,32 50.2499333,31.0982819 47.9283949,29.9255089 C46.7676257,29.339281 46.6993829,29.0009384 47.7009187,27.1070448 C48.5659689,25.438184 48.8389403,25.2579038 50.0907,25.7765266 C52.0710241,26.633492 54.5748638,27.2873249 56.2594689,27.2873249 C58.1712298,27.2873249 59.4460575,26.5208169 59.4460575,25.3931139 C59.4460575,21.7852895 47.245646,23.4992203 47.245646,15.8100186 C47.245646,11.7286414 50.6827788,9 55.8269438,9 C58.239793,9 61.2895755,9.72175533 63.4063853,10.6688608" id="Fill-1" fill="#FFFFFF"></path>
                <path d="M73,1.59546097 L73,31.0785928 C73,31.5280675 72.5627566,32 71.9378299,32 L69.0624633,32 C68.4375367,32 68,31.5280675 68,31.0785928 L68,1.59546097 C68,0.134747497 68.3750733,0 70.5,0 C72.9170088,0 73,0.179663329 73,1.59546097" id="Fill-2" fill="#FFFFFF"></path>
                <path d="M81.0464697,25.2579038 C81.0464697,26.7687021 82.2968923,27.7834127 84.1837982,27.7834127 C86.4656882,27.7834127 88.5276965,26.656027 89.7345751,24.739281 L89.7345751,22.75493 C88.5276965,22.2813772 87.0577011,22.010957 85.7414993,22.010957 C82.9330668,22.010957 81.0464697,23.3862278 81.0464697,25.2579038 Z M95,17.8845098 L95,30.6247292 C95,31.3010971 94.5395455,31.7746498 93.8814446,31.7746498 L90.8972921,31.7746498 C90.2172648,31.7746498 89.7345751,31.256027 89.7784279,30.5571241 L89.8222807,29.1815359 C88.1988005,31.0303595 85.8730577,32 83.5473149,32 C79.0276965,32 76,29.316746 76,25.3029738 C76,21.0413165 79.4226806,18.177465 84.5568559,18.15493 C86.509541,18.15493 88.2865061,18.5158076 89.7345751,19.1245705 L89.7345751,17.6588422 C89.7345751,15.3136135 87.9353748,13.9158076 84.8857519,13.9158076 C83.4596093,13.9158076 81.7045706,14.5020355 80.3003543,15.3364659 C79.225343,15.9677637 78.9619173,15.9226937 77.7992003,14.1414752 C76.6584097,12.3599393 76.7019537,12.0215966 77.7992003,11.3001587 C79.9053703,9.90203547 82.7576555,9 85.390368,9 C91.2922762,9 95,12.2923342 95,17.8845098 Z" id="Fill-3" fill="#FFFFFF"></path>
                <g id="Group-7" transform="translate(97.000000, 0.000000)">
                    <mask id="mask-2" fill="white">
                        <use xlink:href="#path-1"></use>
                    </mask>
                    <g id="Clip-5"></g>
                    <path d="M18.6944889,10.9850097 C19.8255481,11.6250097 19.8710963,11.9782524 18.6263259,13.8541359 C17.4497185,15.6200388 17.2461852,15.7303301 16.0017333,15.1123883 C15.0512741,14.6267961 13.5348074,14.2073786 12.2903556,14.2073786 C8.37576296,14.2073786 5.77314815,16.7235728 5.77314815,20.5200777 C5.77314815,24.4709903 8.37576296,27.119534 12.2903556,27.119534 C13.6482,27.119534 15.3452667,26.6118835 16.4540296,26.016 C17.5854074,25.3756893 17.8344889,25.4198058 19.0337111,27.119534 C20.1198593,28.7086602 20.0972444,29.0839612 19.1241704,29.7460194 C17.3818741,30.9160388 14.6209556,31.8207379 12.1998963,31.8207379 C4.9586963,31.8207379 0.115940741,27.296 0.115940741,20.5200777 C0.115940741,13.7879612 4.9586963,9.30733981 12.2451259,9.30733981 C14.4626519,9.30733981 17.0652667,10.0358835 18.6944889,10.9850097" id="Fill-4" fill="#FFFFFF" mask="url(#mask-2)"></path>
                    <path d="M42.3196444,28.8410097 C43.2248741,29.9666019 42.8627185,30.3639612 40.5996444,31.1586796 C38.2916593,31.9754563 37.9747333,31.9310291 37.1602815,30.8936699 L30.6883037,22.4624466 L27.7916963,25.1992233 L27.7916963,30.6730874 C27.7916963,31.1145631 27.3167852,31.5780971 26.6380222,31.5780971 L23.5149481,31.5780971 C22.8361852,31.5780971 22.3609556,31.1145631 22.3609556,30.6730874 L22.3609556,1.71464078 C22.3609556,0.27992233 22.7683407,0.147572816 25.0763259,0.147572816 C27.7015556,0.147572816 27.7916963,0.324038835 27.7916963,1.71464078 L27.7916963,18.1803495 L36.662437,9.88116505 C37.6355111,8.97646602 38.1785852,9.04264078 39.9208815,10.168233 C41.8444148,11.3820583 41.9801037,11.7132427 41.0522593,12.5961942 L34.4445926,18.864466 L42.3196444,28.8410097" id="Fill-6" fill="#FFFFFF" mask="url(#mask-2)"></path>
                </g>
                <g id="Group-12">
                    <mask id="mask-4" fill="white">
                        <use xlink:href="#path-3"></use>
                    </mask>
                    <g id="Clip-10"></g>
                    <polyline id="Fill-9" fill="#FFFFFF" mask="url(#mask-4)" points="16.3419048 18.4863492 18.0520635 23.591746 23.3561905 21.8152381 21.6463492 16.7098413 16.3419048 18.4863492 418 -148.5"></polyline>
                    <path d="M31.1374603,23.5495238 L28.5653968,24.4107937 L29.4568254,27.0720635 C29.8177778,28.1498413 29.2368254,29.3161905 28.1590476,29.6768254 C27.9247619,29.7555556 27.6860317,29.7895238 27.4526984,29.7831746 C26.6120635,29.7615873 25.8368254,29.2225397 25.5546032,28.3793651 L24.6631746,25.7177778 L19.3590476,27.4939683 L20.2504762,30.1555556 C20.6114286,31.2330159 20.0304762,32.3993651 18.9526984,32.7603175 C18.7184127,32.8387302 18.48,32.8726984 18.2463492,32.8666667 C17.4060317,32.8447619 16.6307937,32.3057143 16.348254,31.4625397 L15.4568254,28.8009524 L12.8844444,29.6625397 C12.6498413,29.7409524 12.4114286,29.7749206 12.1777778,29.7688889 C11.3374603,29.7469841 10.5622222,29.2079365 10.2796825,28.3647619 C9.91873016,27.2869841 10.5,26.1209524 11.5774603,25.76 L14.1498413,24.8987302 L12.4396825,19.7933333 L9.86761905,20.6546032 C9.63333333,20.7330159 9.39460317,20.7669841 9.16095238,20.7609524 C8.32095238,20.7390476 7.54539683,20.2 7.2631746,19.3568254 C6.90222222,18.2790476 7.4831746,17.1130159 8.56095238,16.7520635 L11.1326984,15.8907937 L10.2412698,13.2292063 C9.88031746,12.151746 10.4612698,10.9857143 11.5390476,10.6244444 C12.6168254,10.2638095 13.7828571,10.8447619 14.1434921,11.9222222 L15.0349206,14.5838095 L20.3390476,12.807619 L19.447619,10.1460317 C19.0866667,9.06825397 19.6679365,7.90222222 20.7453968,7.54126984 C21.8228571,7.18031746 22.9892063,7.7615873 23.3501587,8.83904762 L24.2415873,11.5006349 L26.8136508,10.6390476 C27.891746,10.2784127 29.0574603,10.8593651 29.4184127,11.9368254 C29.7793651,13.0146032 29.1980952,14.1806349 28.1206349,14.5415873 L25.5485714,15.4028571 L27.2584127,20.5085714 L29.8307937,19.6469841 C30.9085714,19.2863492 32.0746032,19.8673016 32.4352381,20.9447619 C32.7961905,22.0222222 32.2152381,23.1885714 31.1374603,23.5495238 Z M38.0368254,14.6942857 C33.9444444,1.05365079 28.0333333,-2.12920635 14.3926984,1.9631746 C0.752063492,6.05555556 -2.43079365,11.9666667 1.6615873,25.6073016 C5.75396825,39.2479365 11.6650794,42.4307937 25.3057143,38.3384127 C38.9463492,34.2460317 42.1292063,28.3349206 38.0368254,14.6942857 Z" id="Fill-11" fill="#FFFFFF" mask="url(#mask-4)"></path>
                </g>
            </g>
        </g>
    </g>
</svg>