<?xml version="1.0" encoding="UTF-8"?>
<svg width="133px" height="40px" viewBox="0 0 133 40" version="1.1" xmlns="http://www.w3.org/2000/svg" xmlns:xlink="http://www.w3.org/1999/xlink">
    <!-- Generator: Sketch 49.3 (51167) - http://www.bohemiancoding.com/sketch -->
    <title>twilio-2@3x</title>
    <desc>Created with Sketch.</desc>
    <defs></defs>
    <g id="Hub" stroke="none" stroke-width="1" fill="none" fill-rule="evenodd">
        <g transform="translate(-954.000000, -503.000000)" fill="#FFFFFF" fill-rule="nonzero" id="twilio-2">
            <g transform="translate(954.000000, 503.000000)">
                <path d="M93.7081829,7.84 L86.666065,7.84 C86.5060168,7.84 86.3459687,8 86.3459687,8.16 L86.3459687,12.24 C86.3459687,12.4 86.5060168,12.56 86.666065,12.56 L93.7081829,12.56 C93.868231,12.56 94.0282792,12.4 94.0282792,12.24 L94.0282792,8.16 C94.1083032,8 93.9482551,7.84 93.7081829,7.84 Z M93.6281588,13.92 L80.0240674,13.92 C79.8640193,13.92 79.6239471,14.08 79.543923,14.24 L77.7833935,20.88 L77.7033694,21.2 L75.6227437,14.08 C75.5427196,13.92 75.3826715,13.76 75.1425993,13.76 L69.8610108,13.76 C69.7009627,13.76 69.4608905,13.92 69.3808664,14.08 L67.3802647,20.72 L67.3002407,21.04 L67.2202166,20.88 L66.4199759,17.6 L65.5397112,14.32 C65.4596871,14.16 65.299639,14 65.0595668,14 L54.4163658,14 L54.4163658,8.24 C54.4163658,8.08 54.1762936,7.84 53.9362214,7.92 L47.2141998,10 C46.9741276,10.08 46.8941035,10.16 46.8941035,10.32 L46.8941035,13.92 L45.133574,13.92 C44.9735259,13.92 44.8134777,14.08 44.8134777,14.24 L44.8134777,19.36 C44.8134777,19.52 44.9735259,19.68 45.133574,19.68 L46.8941035,19.68 L46.8941035,25.92 C46.8941035,30.32 49.2948255,32.4 53.6961492,32.4 C55.5367028,32.4 57.2972323,32 58.4975933,31.36 L58.4975933,26.08 C58.4975933,25.84 58.2575211,25.76 58.0974729,25.76 C57.3772563,26.08 56.8170878,26.16 56.1768953,26.16 C54.9765343,26.16 54.3363418,25.68 54.3363418,24.32 L54.3363418,19.76 L58.177497,19.76 C58.3375451,19.76 58.4975933,19.6 58.4975933,19.44 L58.4975933,15.12 L63.5391095,31.84 C63.6191336,32 63.7791817,32.16 64.0192539,32.16 L69.6209386,32.16 C69.7809868,32.16 70.021059,32 70.101083,31.84 L72.5018051,24.4 L73.7021661,28.24 L74.822503,31.76 C74.9025271,31.92 75.0625752,32.08 75.3026474,32.08 L80.9043321,32.08 C81.0643803,32.08 81.3044525,31.92 81.3844765,31.76 L86.5060168,14.96 L86.5060168,31.76 C86.5060168,31.92 86.666065,32.08 86.8261131,32.08 L93.6281588,32.08 C93.788207,32.08 93.9482551,31.92 93.9482551,31.76 L93.9482551,14.32 C93.9482551,14.08 93.788207,13.92 93.6281588,13.92 Z M102.590854,7.84 L95.7888087,7.84 C95.6287605,7.84 95.4687124,8 95.4687124,8.16 L95.4687124,31.76 C95.4687124,31.92 95.6287605,32.08 95.7888087,32.08 L102.590854,32.08 C102.750903,32.08 102.910951,31.92 102.910951,31.76 L102.910951,8.16 C102.910951,8 102.750903,7.84 102.590854,7.84 Z M111.633574,7.84 L104.591456,7.84 C104.431408,7.84 104.27136,8 104.27136,8.16 L104.27136,12.24 C104.27136,12.4 104.431408,12.56 104.591456,12.56 L111.633574,12.56 C111.793622,12.56 111.95367,12.4 111.95367,12.24 L111.95367,8.16 C112.033694,8 111.873646,7.84 111.633574,7.84 Z M111.55355,13.92 L104.751504,13.92 C104.591456,13.92 104.431408,14.08 104.431408,14.24 L104.431408,31.76 C104.431408,31.92 104.591456,32.08 104.751504,32.08 L111.55355,32.08 C111.713598,32.08 111.873646,31.92 111.873646,31.76 L111.873646,14.32 C111.873646,14.08 111.713598,13.92 111.55355,13.92 Z M122.836943,13.52 C116.835138,13.52 112.593863,17.92 112.593863,23.04 L112.593863,23.12 C112.593863,28.24 116.835138,32.56 122.756919,32.56 C128.758724,32.56 133,28.16 133,23.04 L133,22.96 C133,17.84 128.758724,13.52 122.836943,13.52 Z M125.71781,23.04 C125.71781,24.8 124.517449,26.16 122.836943,26.16 C121.156438,26.16 119.876053,24.72 119.876053,22.96 L119.876053,22.88 C119.876053,21.12 121.076414,19.76 122.756919,19.76 C124.437425,19.76 125.71781,21.2 125.71781,23.04 Z M20.0060168,0 C8.96269555,0 0,8.96 0,20 C0,31.04 8.96269555,40 20.0060168,40 C31.0493381,40 40.0120337,31.04 40.0120337,20 C40.0120337,8.96 31.0493381,0 20.0060168,0 Z M20.0060168,34.72 C11.843562,34.72 5.28158845,28.16 5.28158845,20 C5.28158845,11.84 11.843562,5.28 20.0060168,5.28 C28.1684717,5.28 34.7304452,11.84 34.7304452,20 C34.7304452,28.16 28.1684717,34.72 20.0060168,34.72 Z" id="Shape"></path>
                <circle id="Oval" cx="25" cy="15" r="4"></circle>
                <circle id="Oval" cx="25" cy="25" r="4"></circle>
                <circle id="Oval" cx="15" cy="25" r="4"></circle>
                <circle id="Oval" cx="15" cy="15" r="4"></circle>
            </g>
        </g>
    </g>
</svg>