<?xml version="1.0" encoding="UTF-8"?>
<svg width="300px" height="158px" viewBox="0 0 300 158" version="1.1" xmlns="http://www.w3.org/2000/svg" xmlns:xlink="http://www.w3.org/1999/xlink">
    <!-- Generator: Sketch 49.3 (51167) - http://www.bohemiancoding.com/sketch -->
    <title>bg-pixels@3x</title>
    <desc>Created with Sketch.</desc>
    <defs>
        <rect id="path-1" x="0" y="0" width="300" height="158" rx="4"></rect>
    </defs>
    <g id="Hub" stroke="none" stroke-width="1" fill="none" fill-rule="evenodd">
        <g transform="translate(-548.000000, -444.000000)" id="bg-pixels">
            <g transform="translate(548.000000, 444.000000)">
                <mask id="mask-2" fill="white">
                    <use xlink:href="#path-1"></use>
                </mask>
                <use id="Mask" fill="#1DA1F2" xlink:href="#path-1"></use>
                <g opacity="0.234941123" style="mix-blend-mode: overlay;" mask="url(#mask-2)" fill-rule="nonzero" id="Shape">
                    <g transform="translate(-21.000000, -243.000000)">
                        <path d="M148.909091,153.285714 L158,153.285714 L158,144 L148.909091,144 L148.909091,153.285714 Z M148,274 L157.090909,274 L157.090909,264.714286 L148,264.714286 L148,274 Z" fill="#BFBFBF"></path>
                        <polygon fill="#F9F9F9" points="65 329 74 329 74 320 65 320"></polygon>
                        <polygon fill="#BFBFBF" points="28 265 37 265 37 256 28 256"></polygon>
                        <path d="M28,302 L37.2528736,302 L37.2528736,292.8 L28,292.8 L28,302 Z M84.4425287,265.2 L93.6954023,265.2 L93.6954023,256 L84.4425287,256 L84.4425287,265.2 Z M121.454023,292.8 L130.706897,292.8 L130.706897,283.6 L121.454023,283.6 L121.454023,292.8 Z M157.54023,283.6 L166.793103,283.6 L166.793103,274.4 L157.54023,274.4 L157.54023,283.6 Z M501.747126,283.6 L511,283.6 L511,274.4 L501.747126,274.4 L501.747126,283.6 Z" fill="#D2D2D2"></path>
                        <polygon fill="#F9F9F9" points="157 329 166 329 166 320 157 320"></polygon>
                        <polygon fill="#F9F9F9" points="84 292 93 292 93 283 84 283"></polygon>
                        <polygon fill="#BFBFBF" points="56 292 65 292 65 283 56 283"></polygon>
                        <path d="M46.5,349 L56,349 L56,339.769231 L46.5,339.769231 L46.5,349 Z M37,274.230769 L46.5,274.230769 L46.5,265 L37,265 L37,274.230769 Z" fill="#ECEBEB"></path>
                        <polygon fill="#D2D2D2" points="56 320 65 320 65 311 56 311"></polygon>
                        <path d="M75,395 L84.24,395 L84.24,385.747331 L75,385.747331 L75,395 Z M296.76,348.736655 L306,348.736655 L306,339.483986 L296.76,339.483986 L296.76,348.736655 Z M250.56,310.800712 L259.8,310.800712 L259.8,301.548043 L250.56,301.548043 L250.56,310.800712 Z M232.08,144.252669 L241.32,144.252669 L241.32,135 L232.08,135 L232.08,144.252669 Z" fill="#BFBFBF"></path>
                        <polygon fill="#D2D2D2" points="103 292 112 292 112 283 103 283"></polygon>
                        <path d="M437.734597,358.25 L447,358.25 L447,349 L437.734597,349 L437.734597,358.25 Z M56,386 L65.2654028,386 L65.2654028,376.75 L56,376.75 L56,386 Z" fill="#D2D2D2"></path>
                        <polygon fill="#ECEBEB" points="288 320 297 320 297 311 288 311"></polygon>
                        <polygon fill="#BFBFBF" points="279 395 288 395 288 386 279 386"></polygon>
                        <path d="M380.763359,330 L390,330 L390,320.5 L380.763359,320.5 L380.763359,330 Z M269,320.5 L278.236641,320.5 L278.236641,311 L269,311 L269,320.5 Z" fill="#BFBFBF"></path>
                        <polygon fill="#D2D2D2" points="37 386 46 386 46 377 37 377"></polygon>
                        <polygon fill="#BFBFBF" points="19 329 28 329 28 320 19 320"></polygon>
                        <polygon fill="#F9F9F9" points="37 367 46 367 46 358 37 358"></polygon>
                        <path d="M0,349.25 L9.29078014,349.25 L9.29078014,340 L0,340 L0,349.25 Z M121.70922,377 L131,377 L131,367.75 L121.70922,367.75 L121.70922,377 Z" fill="#ECEBEB"></path>
                        <polygon fill="#BFBFBF" points="112 404 121 404 121 395 112 395"></polygon>
                        <path d="M37,414 L46.2307692,414 L46.2307692,404.714286 L37,404.714286 L37,414 Z M111.769231,358.285714 L121,358.285714 L121,349 L111.769231,349 L111.769231,358.285714 Z" fill="#F9F9F9"></path>
                        <polygon fill="#BFBFBF" points="103 395 112 395 112 386 103 386"></polygon>
                        <polygon fill="#ECEBEB" points="84 367 93 367 93 358 84 358"></polygon>
                        <polygon fill="#BFBFBF" points="121 349 130 349 130 340 121 340"></polygon>
                        <polygon fill="#D2D2D2" points="84 377 93 377 93 368 84 368"></polygon>
                        <polygon fill="#BFBFBF" points="28 358 37 358 37 349 28 349"></polygon>
                        <polygon fill="#ECEBEB" points="56 367 65 367 65 358 56 358"></polygon>
                        <polygon fill="#F9F9F9" points="46 395 55 395 55 386 46 386"></polygon>
                        <polygon fill="#D2D2D2" points="84 339 93 339 93 330 84 330"></polygon>
                        <path d="M157.769231,311.279279 L167,311.279279 L167,302 L157.769231,302 L157.769231,311.279279 Z M131,329.837838 L140.230769,329.837838 L140.230769,320.558559 L131,320.558559 L131,329.837838 Z M149.461538,405 L158.692308,405 L158.692308,395.720721 L149.461538,395.720721 L149.461538,405 Z M140.230769,377.162162 L149.461538,377.162162 L149.461538,367.882883 L140.230769,367.882883 L140.230769,377.162162 Z" fill="#D2D2D2"></path>
                        <polygon fill="#BFBFBF" points="167 320 176 320 176 311 167 311"></polygon>
                        <polygon fill="#ECEBEB" points="158 386 167 386 167 377 158 377"></polygon>
                        <polygon fill="#BFBFBF" points="139 311 148 311 148 302 139 302"></polygon>
                        <polygon fill="#D2D2D2" points="186 265 195 265 195 256 186 256"></polygon>
                        <polygon fill="#BFBFBF" points="205 255 214 255 214 246 205 246"></polygon>
                        <path d="M223,191.25 L232.285714,191.25 L232.285714,182 L223,182 L223,191.25 Z M278.714286,256 L288,256 L288,246.75 L278.714286,246.75 L278.714286,256 Z" fill="#BFBFBF"></path>
                        <path d="M269,237.2 L278.25,237.2 L278.25,228 L269,228 L269,237.2 Z M296.75,274 L306,274 L306,264.8 L296.75,264.8 L296.75,274 Z" fill="#D2D2D2"></path>
                        <polygon fill="#BFBFBF" points="297 302 306 302 306 293 297 293"></polygon>
                        <polygon fill="#F9F9F9" points="242 255 251 255 251 246 242 246"></polygon>
                        <polygon fill="#BFBFBF" points="260 274 269 274 269 265 260 265"></polygon>
                        <polygon fill="#ECEBEB" points="317 283 326 283 326 274 317 274"></polygon>
                        <polygon fill="#BFBFBF" points="288 283 297 283 297 274 288 274"></polygon>
                        <polygon fill="#ECEBEB" points="269 292 278 292 278 283 269 283"></polygon>
                        <polygon fill="#F9F9F9" points="232 283 241 283 241 274 232 274"></polygon>
                        <polygon fill="#ECEBEB" points="214 311 223 311 223 302 214 302"></polygon>
                        <path d="M195,292.4 L204.25,292.4 L204.25,283.2 L195,283.2 L195,292.4 Z M213.5,283.2 L222.75,283.2 L222.75,274 L213.5,274 L213.5,283.2 Z M222.75,320 L232,320 L232,310.8 L222.75,310.8 L222.75,320 Z" fill="#BFBFBF"></path>
                        <path d="M186,377.2 L195.333333,377.2 L195.333333,368 L186,368 L186,377.2 Z M186,395.6 L195.333333,395.6 L195.333333,386.4 L186,386.4 L186,395.6 Z M204.666667,414 L214,414 L214,404.8 L204.666667,404.8 L204.666667,414 Z" fill="#D2D2D2"></path>
                        <polygon fill="#F9F9F9" points="186 349 195 349 195 340 186 340"></polygon>
                        <path d="M269.714286,376.819672 L279,376.819672 L279,367.639344 L269.714286,367.639344 L269.714286,376.819672 Z M251.142857,339.180328 L260.428571,339.180328 L260.428571,330 L251.142857,330 L251.142857,339.180328 Z M214,386 L223.285714,386 L223.285714,376.819672 L214,376.819672 L214,386 Z" fill="#ECEBEB"></path>
                        <polygon fill="#D2D2D2" points="242 377 251 377 251 368 242 368"></polygon>
                        <path d="M232,377 L241.2,377 L241.2,367.666667 L232,367.666667 L232,377 Z M268.8,358.333333 L278,358.333333 L278,349 L268.8,349 L268.8,358.333333 Z" fill="#BFBFBF"></path>
                        <polygon fill="#F9F9F9" points="232 339 241 339 241 330 232 330"></polygon>
                        <path d="M195,368 L204.271523,368 L204.271523,358.731707 L195,358.731707 L195,368 Z M325.728477,339.268293 L335,339.268293 L335,330 L325.728477,330 L325.728477,339.268293 Z" fill="#D2D2D2"></path>
                        <polygon fill="#D2D2D2" points="297 395 306 395 306 386 297 386"></polygon>
                        <path d="M316.290076,367.639344 L325.526718,367.639344 L325.526718,358.459016 L316.290076,358.459016 L316.290076,367.639344 Z M334.763359,339.180328 L344,339.180328 L344,330 L334.763359,330 L334.763359,339.180328 Z M316.290076,386 L325.526718,386 L325.526718,376.819672 L316.290076,376.819672 L316.290076,386 Z M223,349.278689 L232.236641,349.278689 L232.236641,340.098361 L223,340.098361 L223,349.278689 Z" fill="#BFBFBF"></path>
                        <polygon fill="#F9F9F9" points="251 404 260 404 260 395 251 395"></polygon>
                        <polygon fill="#ECEBEB" points="297 339 306 339 306 330 297 330"></polygon>
                        <polygon fill="#F9F9F9" points="279 377 288 377 288 368 279 368"></polygon>
                        <polygon fill="#F9F9F9" points="306 311 315 311 315 302 306 302"></polygon>
                        <path d="M130.75,386.333333 L140,386.333333 L140,377 L130.75,377 L130.75,386.333333 Z M103,405 L112.25,405 L112.25,395.666667 L103,395.666667 L103,405 Z" fill="#D2D2D2"></path>
                        <polygon fill="#F9F9F9" points="84 404 93 404 93 395 84 395"></polygon>
                        <polygon fill="#D2D2D2" points="168 404 177 404 177 395 168 395"></polygon>
                        <polygon fill="#ECEBEB" points="149 358 158 358 158 349 149 349"></polygon>
                        <polygon fill="#F9F9F9" points="112 404 121 404 121 395 112 395"></polygon>
                        <polygon fill="#D2D2D2" points="205 386 214 386 214 377 205 377"></polygon>
                        <polygon fill="#BFBFBF" points="269 386 278 386 278 377 269 377"></polygon>
                        <polygon fill="#ECEBEB" points="242 395 251 395 251 386 242 386"></polygon>
                        <polygon fill="#F9F9F9" points="223 395 232 395 232 386 223 386"></polygon>
                        <polygon fill="#BFBFBF" points="297 404 306 404 306 395 297 395"></polygon>
                        <path d="M316.769231,395.333333 L326,395.333333 L326,386 L316.769231,386 L316.769231,395.333333 Z M242,414 L251.230769,414 L251.230769,404.666667 L242,404.666667 L242,414 Z" fill="#D2D2D2"></path>
                        <polygon fill="#ECEBEB" points="279 395 288 395 288 386 279 386"></polygon>
                    </g>
                </g>
            </g>
        </g>
    </g>
</svg>